<?xml version="1.0" encoding="utf-8"?>
<!-- Generator: Adobe Illustrator 24.0.0, SVG Export Plug-In . SVG Version: 6.00 Build 0)  -->
<svg version="1.1" xmlns="http://www.w3.org/2000/svg" xmlns:xlink="http://www.w3.org/1999/xlink" x="0px" y="0px"
	 viewBox="0 0 500 500" style="enable-background:new 0 0 500 500;" xml:space="preserve">
<style type="text/css">
	.st0{display:none;}
	.st1{display:inline;fill:#FFFFFF;stroke:#000000;stroke-miterlimit:10;}
	.st2{fill:#7FC7D9;}
	.st3{display:inline;}
	.st4{display:inline;fill:#7EC5D7;}
	.st5{fill:#0F1035;}
	.st6{display:inline;fill:#0F1035;}
	.st7{fill:#52629B;}
	.st8{fill:#29ABE2;}
	.st9{fill:#DD819A;}
	.st10{fill:#C4CFFF;}
	.st11{clip-path:url(#SVGID_4_);}
	.st12{fill:#302C43;}
	.st13{fill:url(#SVGID_5_);}
	.st14{fill:#407BFF;}
	.st15{opacity:0.5;fill:url(#SVGID_6_);enable-background:new    ;}
	.st16{fill:#FFFFFF;}
	.st17{fill:#EBB591;}
	.st18{fill:#EFC3A6;}
	.st19{fill:#E49B6A;}
	.st20{clip-path:url(#SVGID_8_);}
	.st21{fill:#314488;}
	.st22{fill:url(#SVGID_9_);}
	.st23{fill:#F8FAFF;}
	.st24{fill:#C26951;}
	.st25{opacity:0.29;fill:url(#SVGID_10_);enable-background:new    ;}
	.st26{fill:#C97A65;}
	.st27{fill:url(#SVGID_11_);}
	.st28{fill:url(#SVGID_12_);}
	.st29{fill:url(#SVGID_13_);}
	.st30{clip-path:url(#SVGID_15_);}
	.st31{fill:url(#SVGID_16_);}
	.st32{fill:#1D262D;}
</style>
<g id="Layer_2" class="st0">
	<rect x="-32" y="-19" class="st1" width="538" height="538"/>
</g>
<g id="Layer_3">
	<g>
		<g>
			<path class="st2" d="M269.2,205.4h64.1c45.2,0,78.7,15.9,78.7,63.4c0,45.9-33.6,66.7-77.5,66.7h-29.3v75.6h-36.1V205.4z
				 M331.6,306.3c30.4,0,44.8-12.2,44.8-37.5c0-25.5-15.8-34.2-46.1-34.2h-25v71.7H331.6z"/>
		</g>
	</g>
	
		<image style="display:none;overflow:visible;" width="128" height="217" id="Layer_5_copy_5_xA0_Image" xlink:href="8F959E9D.png"  transform="matrix(2.25 0 0 1.7086 82.992 28)">
	</image>
	
		<image style="display:none;overflow:visible;" width="212" height="191" id="Layer_5_xA0_Image" xlink:href="8F959EA4.png"  transform="matrix(2.25 0 0 1.7086 8.7406 146.6567)">
	</image>
	
		<image style="display:none;overflow:visible;" width="506" height="726" xlink:href="8F959EA5.jpg"  transform="matrix(0.4797 0 0 0.4313 147.2799 74.8798)">
	</image>
	<path class="st2" d="M160.2,116.5"/>
</g>
<g id="Layer_5" class="st0">
	<g class="st3">
		<defs>
			<rect id="SVGID_1_" x="4" y="69.3" width="477" height="326.3"/>
		</defs>
		<clipPath id="SVGID_2_">
			<use xlink:href="#SVGID_1_"  style="overflow:visible;"/>
		</clipPath>
		<g transform="matrix(1 0 0 1 0 0)" style="clip-path:url(#SVGID_2_);">
			
				<image style="overflow:visible;" width="212" height="191" id="Layer_5_xA0_Image_1_" xlink:href="8F959EA7.png"  transform="matrix(2.25 0 0 1.7086 3.9955 69.3284)">
			</image>
		</g>
	</g>
</g>
<g id="Layer_4" class="st0">
</g>
<g id="Layer_6">
	<path class="st2" d="M373.8,131.8c0.3-1.7-76.6-43.6-154.2-9.1c-12.4,5.5-70.4,31.3-88.3,95c-21.6,77.2,29.3,161.3,86.4,188
		c42.9,20,87.3,6.9,87.3,4.8c0.1-2-39.2,3-75.5-22.8c-19.3-13.7-30-30.6-34.6-38c-3.6-5.9-45.8-76.4-15.5-146
		c21.5-49.3,65.7-66.7,79.2-72C318.9,108,373.5,133.2,373.8,131.8z"/>
</g>
<g id="Layer_9" class="st0">
	
		<image style="display:inline;overflow:visible;" width="832" height="808" id="Ellipse_1_copy_xA0_Image" xlink:href="8F959EAB.png"  transform="matrix(0.4808 0 0 0.4882 47 81.499)">
	</image>
	<path class="st4" d="M144.6,56.3c0.4-2.1,15-0.5,30.7,3.8c18.4,5,38.7,12.7,38.1,17c-0.4,2.5-7.7,1-17.5,6.9
		c-6,3.6-10.2,8.4-12.9,12c-2.6-7-7-16.1-14.7-23.9C156.7,60.3,144.2,58.3,144.6,56.3z"/>
	<ellipse class="st4" cx="253.8" cy="51.3" rx="24" ry="24.3"/>
</g>
<g id="Layer_11">
	<path class="st5" d="M160.1,116.5c-15.9,8.1-91,48.3-113.6,132.5c-10.7,39.8-5.3,73.1-3.4,83.3c12.5,65.7,57.5,103.9,72,115.9
		c7.1,5.9,86.2,68.8,189,45c12.8-3,81.7-20.2,123.8-81c19.4-28.1,27.7-57.6,30.4-67.5c8.7-32.1,9.6-62.5,7.2-62.9
		c-2.8-0.5-3,44-26.6,85.7c-37.6,66.3-113,87.3-122.4,89.7c-19.2,5-104.8,24.5-176.6-33.8c-51.6-41.9-80.1-111.1-67.5-180
		C87,163.6,149.5,123.2,160.1,116.5z"/>
</g>
<g id="Outer">
	
		<image style="overflow:visible;" width="832" height="744" id="Ellipse_1_copy_4_xA0_Image" xlink:href="8F959EAC.png"  transform="matrix(0.5142 -7.016315e-03 7.066902e-03 0.5179 39.4061 114.9008)">
	</image>
</g>
<g id="Layer_7" class="st0">
	<path class="st6" d="M95.2,114.9c-0.9-0.6-59.7,55.2-77.4,136.7C12.8,274.2,1.2,328,28.6,378.7c24.8,46,73.3,73.7,84.8,80.5
		c0,0,5.7,3.3,11.3,6.1c61.3,30.5,231.4,49.7,300.3-43.7c24.7-33.5,27.3-69.2,26.6-69.4c-0.9-0.3-12,56.6-57.6,84.8
		c-12.1,7.5-22.6,10.1-43.4,15.6c-50.2,13.3-91.5,10.3-106.6,8.4c-25.9-3.2-57.9-7.3-94-27c-14.7-8.1-57.7-32.3-85.9-84.7
		C34.9,295.3,32.9,232.7,48,193c10.5-27.5,37.2-65.3,39.4-68.3C94.2,115.1,95.2,114.9,95.2,114.9z"/>
	<path class="st6" d="M698,246"/>
	<path class="st6" d="M823-29"/>
</g>
<g id="Layer_8">
	<ellipse class="st2" cx="282.4" cy="57.8" rx="30.4" ry="33.8"/>
	<path class="st2" d="M170.1,56c0.3-0.6,14.6,2.8,32.1,12.3c13.2,7.2,27.7,17.4,27.7,17.4l0,0c-1.8,0.9-4.3,2.3-7.2,4.2
		c-2.4,1.6-4,3-5.7,4.4c-2.5,2.1-6.1,5-10.9,8.9c-1-3.6-3.6-12.7-7.9-20.9c-2.5-4.9-4.8-7.9-5.5-8.8c-0.2-0.2-2.1-2.7-4.4-5
		C180.3,60.7,169.8,56.5,170.1,56z"/>
</g>
<g id="Layer_1" class="st0">
	<g id="BACKGROUND" class="st3">
		<g>
			<g>
				<g>
					<g>
						<path class="st7" d="M62.3,111.7c-5.1,9.8-8.5,0-9.6-6.6c-0.9-5.4-1.8-18.6-11.2-14.4c-9.9,4.4,0.9,11.1,1.7,15.6
							c1.8,10.2-9.4-1.5-12.4-4.3c-4.1-3.9-12.5-12-15-3.5c-2.1,6.9,6.9,15.3,11.4,18.8c3.2,2.5,18.9,9.5,14.7,14.4
							c-3.2,3.7-19-2.4-8.5,8.6c4.3,4.5,12,4.7,17.2,7.1c7.6,3.5,10.8,5,8,11.8c-1.5,3.5-6.1,3.1-3.5,8c1.3,2.5,8.6,4.1,11.1,4.3
							c23.4,2.5,40.2-5,42.7-9.2c3.4-5.7,0.8-17.2-1.6-22.7c-1.2-2.7-3-7.6-6.8-7.7c-4.2-0.1-4.3,6.4-6.8,6.3
							c-7-0.1,1.1-12.1,0.5-15.7c-0.8-4.7-8-13.2-12.9-8.9c-0.5,0.4-4.3,20.2-9.3,8c-2.8-6.7,7.7-12.3,1.5-19.2
							C64.7,92.6,64.2,108.1,62.3,111.7z"/>
					</g>
					<path class="st8" d="M65.8,113.8c-2.4,4.2-4.6,8.5-5.5,13.3c-3.8-3.8-7.6-7.9-11.9-11c-1.2-0.9-2.4,1.2-1.2,2
						c0.5,0.4,1,0.8,1.6,1.2c-1.5,0.2-3.5-0.5-4.7-0.8c-2.9-0.7-5.4-2.1-8-3.6c-1.3-0.8-2.5,1.3-1.2,2c3.3,1.9,6.5,3.5,10.3,4.2
						c1.9,0.3,3.9,0.7,5.6-0.2c5,4.2,9.4,9.3,14.1,13.7c-2.7,1.3-5.5,2.2-8.6,2.4c-3.4,0.2-6.7-0.6-10-0.6c-1.5,0-1.5,2.3,0,2.4
						c4,0.1,7.9,1,12,0.4c3-0.4,5.8-1.5,8.6-2.9c5.8,5.1,11.8,9.8,18.3,13.9c2.2,1.4,4.4,2.6,6.6,3.9c-3.5,1.8-7.1,3.2-11,4
						c-2.2,0.5-4.4,1-6.7,1c-1.7,0-3.2-0.3-4.8,0.1c-1.5,0.4-0.8,2.7,0.6,2.3c2-0.6,4.5,0,6.6-0.3c2-0.3,4.1-0.6,6.1-1.1
						c4.1-0.9,7.9-2.6,11.6-4.6c0.1,0,0.1-0.1,0.1-0.1c3.9,2.1,7.7,4.2,11.5,6.4c0.1,0.2,0.2,0.3,0.4,0.4c0.4,0.2,1,0.6,1.5,0.8
						c7.8,4.2,15.6,8.4,23.5,12.5c1.3,0.7,2.5-1.3,1.2-2c-7.8-4.1-15.6-8.3-23.4-12.5c0,0-0.1-0.1-0.1-0.1c-2-1.3-4.1-2.5-6.2-3.7
						c1.6-4.1,0.9-9-0.3-13.1c-0.4-1.5-2.7-0.9-2.3,0.6c1,3.6,1.6,7.7,0.4,11.4c-4.8-2.6-9.6-5.1-14.2-8c-1.8-1.1-3.6-2.4-5.4-3.6
						c0.1-0.1,0.1-0.1,0.2-0.2c3-5.5,4.7-11.6,4.4-18c-0.1-1.5-2.4-1.5-2.3,0c0.2,5.9-1.3,11.6-4.1,16.8c0,0,0,0,0,0
						c-5.2-3.8-10.1-8.1-14.8-12.4c-0.8-0.8-1.6-1.5-2.4-2.3c0.3-0.1,0.6-0.3,0.7-0.8c0.9-4.6,3-8.8,5.3-12.8
						C68.6,113.7,66.6,112.5,65.8,113.8z"/>
				</g>
				<g>
					<g>
						<g>
							<path class="st9" d="M67.1,61.2c2.8,10.8,4,21.6,8.5,31.9c4.3,9.9,9.4,19.6,15.1,28.9c5.2,8.5,10.8,16.7,16,25.2
								c6,9.9,13.9,17.4,21.4,26.2c1.2,1.4-0.9,3.4-2.1,2c-6.8-7.9-14.3-14.7-19.9-23.6c-6-9.4-12.1-18.9-17.9-28.4
								c-5.9-9.6-11.2-19.7-15.6-30.1c-4.3-10.1-5.5-20.9-8.3-31.4C63.8,60,66.6,59.4,67.1,61.2L67.1,61.2z"/>
						</g>
						<path class="st9" d="M66.1,62.9c-0.7-2.3,0.1-6.2,2-7.8c2.2-1.9,3.9,0.3,4.1,2.6c0.2,2.6-1.1,5.1-1.8,7.5
							c-0.8,2.5-0.6,5.3-1.7,7.6c-1-1.6-1.3-4.5-1.6-6.3c-0.3-2-1-3.8-1.3-5.8"/>
						<path class="st9" d="M67.5,67.7c-0.9-4.1,0.2-9.8-3.3-13c-2.3-2.1-4.6-1.7-5.3,1.5c-0.5,2.4,0.9,4.6,2.4,6.3
							c1.9,2.2,4.3,4.9,6.5,6.6"/>
						<path class="st9" d="M68.6,78.8c-4.4-1.9-10-4.3-12.2-9c-1.4-2.9,2-3.1,3.8-2.2c4.2,2,7.3,6.7,9.2,10.8L68.6,78.8z"/>
						<path class="st9" d="M71.8,89.5C66.1,88,58.9,86.2,55.4,81c-2.2-3.3,1.8-4.1,4.2-3.4c5.4,1.7,10.1,6.7,13.1,11.3L71.8,89.5z"
							/>
						<path class="st9" d="M82.9,112.9c-5.8-0.5-13.2-1-17.6-5.6c-2.8-2.8,1.1-4.3,3.6-4c5.6,0.7,11.1,4.8,14.9,8.8L82.9,112.9z"/>
						<path class="st9" d="M94.6,132c-6.8,1.2-15.3,3-21.8-0.8c-4-2.4-0.1-5.3,2.8-5.7c6.6-0.9,14.2,2,19.8,5.4L94.6,132z"/>
						<path class="st9" d="M78.3,105c-6.2-2.6-14.1-5.8-17.3-12.3c-2-4.1,2.8-4.3,5.4-3.1c5.9,2.8,10.4,9.2,13.1,14.8L78.3,105z"/>
						<path class="st9" d="M71.1,78.2c3-3.7,7-8.3,6.9-13.5c-0.1-3.2-3.2-1.8-4.4-0.2c-2.8,3.7-3.6,9.3-3.4,13.8L71.1,78.2z"/>
						<path class="st9" d="M77.3,102.8c2.1-5,4.9-11.3,3.1-16.9c-1.1-3.5-4.1-1-4.9,1.2c-1.9,4.9-0.9,11.3,0.8,16.1L77.3,102.8z"/>
						<path class="st9" d="M87.3,116.1c2.3-5.4,5.3-12.1,3.4-18.2c-1.2-3.8-4.4-1.1-5.2,1.3c-2,5.3-1,12.1,0.8,17.3L87.3,116.1z"/>
						<path class="st9" d="M95.4,129.6c2.7-7.2,6.4-16.2,3.6-24.5c-1.8-5.2-5.8-1.6-6.8,1.5c-2.4,7.1-0.7,16.4,1.8,23.5L95.4,129.6z
							"/>
						<path class="st9" d="M88.8,122c-3.7,0.9-7,2.4-10.9,2.1c-3.4-0.3-6.3-2.1-8.5-4.6c-1-1.1-2.3-2.3-2.3-3.9
							c0-2.3,2.3-1.1,3.7-0.5c3,1.3,6.1,2.4,9.3,3.3c1.7,0.5,3.3,1,4.9,1.7c1.1,0.4,3.3,0.7,3.9,1.2"/>
						<path class="st9" d="M101.6,115.7c-0.4,4.2-0.7,17.7-1.2,22.9c0.8,1.3,1.6,2.6,2.4,3.9c3-8.2,6-21.9,5.5-25.6
							c-0.2-1.6-1.2-5.1-2.7-5.8C102.8,109.7,101.8,113.9,101.6,115.7z"/>
						<path class="st9" d="M120.8,130c-1.7,4.9-5.8,21-7.9,27c0.6,1.8,1.2,3.6,1.7,5.4c5.9-8.9,13.3-24.5,13.8-29.1
							c0.2-2,0-6.4-1.6-7.7C123.8,123.1,121.5,127.9,120.8,130z"/>
						<path class="st9" d="M103.9,145.6c-2.3,0.4-9.6,5.3-21.5,1.4c-1.7-0.6-3.9-1.4-4.3-3.4c-0.6-2.7,2.3-2.5,4.1-2.4
							c3.6,0.3,17.2,2.3,20.6,2.4"/>
						<path class="st9" d="M109.2,153.1c1-2.4,2.9-4.8,4-7.3c1.2-2.7,5.7-17.9,5.2-22.9c-0.2-2.2,0.4-6.3-2.2-7.1
							c-2.6-0.8-4.6,2.2-5.5,4.2c-2.1,4.6-3.2,27.3-2.6,33.1"/>
						<path class="st9" d="M109.8,155.3c-9.1,4.9-26.6,5.2-28.2,3.6c-3.4-3.6,2.9-6.8,5.9-7.2c6.7-1,21.7,2.4,21.8,3.5"/>
					</g>
				</g>
				<g>
					<path class="st8" d="M127.9,126.5c2.7,4.2,6.2,9.7,8.7,14.1c3.2,5.7,7,6.1,12.1,2.1c6.3-4.9,10.5-14.5,12.6-22.1
						c0.8-2.7,0.6-3.2-2.5-3.6c-2.3-0.3-4.4-0.3-6.7-0.7c-4.4-0.9-8.1-2.1-11.5-5.1c-5.3-4.8,1.9-4.3,5.1-2.8
						c3.7,1.8,7.8,3.2,12,3.8c7.2,0.9-0.9-23.9-4.6-27.8c-2.4,2.4-11.2,4.6-14.3,2.1c-2.7-2.2,0.6-2.6,2.6-2.8
						c2.3-0.2,4.4-0.2,6.4-1.3c8.2-4.5-10.4-18.1-14.3-20.7c-5.1-3.4-5.5-6.7-5.1-12.4c-5.7,3.4-13.9,8.3-15,15.3
						c-0.5,3.4,1.6,6.6,3,9.5c1,2,3.4,8.4-0.8,4.6c-2.9-2.6-3.5-7.1-6.6-9.7c-2.5,1.6-7.4,7.3-7,10.4c0.4,3.7,7.4,5.7,9.6,8.2
						c-4.7,2.1-8.4-3.4-11.8-5.5c-4,4.4-9.4,13.6-8.4,20c1.4,9.4,14.1,2.3,16.3,0.8c1.6-1.1,4.4-2.8,2.9,0.5
						c-1.3,2.9-8.4,5.9-11.4,6.8c-1.5,0.4-5.4,0.1-6.4,1.3c-1.2,1.3,6.8,26.7,14.5,30.4C115.1,145.8,126,133.4,127.9,126.5z"/>
				</g>
			</g>
			<g>
				<g>
					<g>
						<path class="st7" d="M447.4,386.3c0.1-9.9,6.8-3.5,10.4,1.4c2.9,3.9,9,14.2,14.8,7c6.1-7.6-5.2-8.5-7.7-11.8
							c-5.5-7.4,8.1-2.6,11.6-1.6c4.9,1.4,14.8,4.5,13.4-3.3c-1.1-6.3-11.7-9.4-16.7-10.4c-3.6-0.7-19,0.1-17.6-5.5
							c1-4.3,16.1-5.8,3.3-10.3c-5.2-1.8-11.5,1.1-16.6,1.3c-7.5,0.3-10.6,0.4-11.1-6.2c-0.3-3.4,3.6-5-0.4-7.8
							c-2.1-1.5-8.5,0.3-10.6,1.1c-19.8,7.5-30.1,20.3-30.4,24.7c-0.5,5.9,6.4,14.1,10.5,17.5c2,1.7,5.5,4.9,8.5,3.4
							c3.4-1.6,0.9-6.9,2.9-7.8c5.6-2.7,4,10.1,6,12.8c2.5,3.5,11.8,7.3,13.9,1.9c0.2-0.5-4.8-17.8,4.1-10.2c4.9,4.2-1.2,13,6.6,16
							C453.3,402.6,447.4,390,447.4,386.3z"/>
					</g>
					<path class="st8" d="M443.8,386c0.2-4.3,0.2-8.7-1-12.8c4.6,1.5,9.2,3.2,14,3.9c1.3,0.2,1.4-1.9,0.1-2.1
						c-0.6-0.1-1.2-0.2-1.7-0.3c1.1-0.8,3-1,4-1.3c2.6-0.6,5.2-0.5,7.8-0.4c1.4,0.1,1.5-2,0.1-2.1c-3.4-0.2-6.6-0.1-9.9,0.8
						c-1.6,0.5-3.4,1-4.4,2.4c-5.7-1.4-11.3-3.6-16.9-5.2c1.7-2.2,3.5-4,5.9-5.4c2.6-1.5,5.6-2.2,8.3-3.6c1.2-0.6,0.3-2.5-1-1.9
						c-3.3,1.6-6.7,2.4-9.7,4.5c-2.3,1.6-4.1,3.5-5.7,5.8c-6.7-1.7-13.4-3.1-20.3-3.7c-2.3-0.2-4.6-0.3-6.8-0.4
						c2.1-2.9,4.4-5.5,7.1-7.7c1.5-1.2,3.2-2.6,4.9-3.5c1.3-0.7,2.7-1,3.8-2.1c1-0.9-0.4-2.5-1.4-1.6c-1.4,1.3-3.6,1.8-5.1,2.9
						c-1.5,1-3,2.2-4.4,3.3c-2.9,2.4-5.3,5.3-7.4,8.4c0,0,0,0.1-0.1,0.1c-3.9-0.1-7.9-0.2-11.8-0.5c-0.1-0.1-0.3-0.1-0.5-0.2
						c-0.4,0-1.1-0.1-1.5,0c-7.9-0.2-15.9-0.4-23.8-0.5c-1.4,0-1.5,2.1-0.1,2.1c7.9,0.1,15.8,0.3,23.7,0.5c0,0,0.1,0,0.1,0
						c2.1,0.2,4.3,0.3,6.4,0.4c0.4,3.9,2.9,7.5,5.5,10.4c0.9,1,2.5-0.4,1.6-1.4c-2.3-2.5-4.4-5.5-5-8.9c4.9,0.2,9.8,0.2,14.6,0.6
						c1.9,0.2,3.9,0.4,5.8,0.7c0,0.1-0.1,0.1-0.1,0.3c-0.2,5.6,1,11.2,3.7,16.2c0.7,1.2,2.5,0.2,1.9-1c-2.6-4.6-3.7-9.8-3.5-15.1
						c0,0,0,0,0,0c5.7,1,11.3,2.3,16.9,3.9c1,0.3,1.9,0.6,2.8,0.9c-0.2,0.2-0.4,0.5-0.3,0.9c1.1,4,1.1,8.2,0.9,12.4
						C441.6,387.3,443.7,387.4,443.8,386z"/>
				</g>
				<g>
					<g>
						<g>
							<path class="st9" d="M464.2,428.6c-6.6-7.5-12-15.7-19.8-22.1c-7.5-6.2-15.5-11.9-23.8-17c-7.6-4.7-15.4-9-23-13.7
								c-8.9-5.5-18.2-8.3-27.7-12.2c-1.5-0.6-0.7-3.1,0.9-2.4c8.6,3.6,17.4,6,25.5,10.8c8.6,5.1,17.3,10.2,25.9,15.4
								c8.6,5.3,16.9,11.2,24.7,17.7c7.6,6.3,12.9,14.5,19.4,21.8C467.2,428.2,465.3,429.9,464.2,428.6L464.2,428.6z"/>
						</g>
						<path class="st9" d="M464.3,426.8c1.5,1.6,2.4,5,1.6,7c-1,2.4-3.2,1.4-4.3-0.4c-1.2-2-1.2-4.5-1.6-6.8
							c-0.4-2.3-1.7-4.5-1.8-6.8c1.4,0.9,2.9,3,3.9,4.4c1,1.5,2.4,2.6,3.4,4.1"/>
						<path class="st9" d="M461.2,423.6c2.4,2.9,3.8,7.9,7.9,9c2.7,0.7,4.4-0.5,3.6-3.3c-0.6-2.1-2.6-3.3-4.5-4.1
							c-2.4-1-5.4-2.2-7.9-2.6"/>
						<path class="st9" d="M455.7,415.2c4.3-0.2,9.7-0.6,13.4,2.2c2.3,1.8-0.4,3.3-2.2,3.3c-4.1,0.1-8.6-2.4-11.7-4.9L455.7,415.2z"
							/>
						<path class="st9" d="M448.9,407.9c5.1-1.1,11.6-2.6,16.6,0.2c3.1,1.7,0.2,4-2,4.4c-5,0.9-10.8-1.3-15.1-3.7L448.9,407.9z"/>
						<path class="st9" d="M430.5,393.8c4.9-1.9,11-4.5,16.3-2.7c3.4,1.1,0.9,3.9-1.2,4.7c-4.8,1.7-10.9,0.6-15.5-1L430.5,393.8z"/>
						<path class="st9" d="M413.4,383.2c4.9-3.8,11-8.6,17.8-8.2c4.2,0.3,2.2,4.2,0.1,5.7c-4.9,3.5-12.2,4.2-18,3.7L413.4,383.2z"/>
						<path class="st9" d="M437.4,398.2c6-0.4,13.6-1.1,18.8,2.8c3.2,2.4-0.5,4.6-3.1,4.7c-5.8,0.2-12.1-3.1-16.5-6.6L437.4,398.2z"
							/>
						<path class="st9" d="M454,416.7c-0.9,4.2-2.2,9.5,0,13.6c1.4,2.6,3.3,0.2,3.6-1.6c0.7-4.1-0.9-8.9-2.9-12.4L454,416.7z"/>
						<path class="st9" d="M439.1,399.5c0.4,4.9,0.6,11,4.4,14.8c2.3,2.4,3.6-0.9,3.4-2.9c-0.5-4.7-3.9-9.4-7.1-12.6L439.1,399.5z"
							/>
						<path class="st9" d="M425.7,393c0.4,5.2,0.7,11.8,4.7,15.9c2.5,2.5,3.9-0.9,3.7-3.1c-0.5-5-4.1-10-7.7-13.5L425.7,393z"/>
						<path class="st9" d="M413.8,385.5c0.8,6.9,1.5,15.5,7.1,21c3.5,3.4,5.3-1,4.8-3.9c-1-6.6-6.1-13.4-11-18.1L413.8,385.5z"/>
						<path class="st9" d="M422.1,388.8c2.6-2.2,4.6-4.8,7.9-6.1c2.8-1.1,5.9-0.9,8.7,0.2c1.2,0.5,2.8,0.9,3.5,2.1
							c0.9,1.8-1.4,1.8-2.8,1.9c-2.9,0.2-5.9,0.6-8.7,1.1c-1.6,0.3-3.1,0.5-4.6,0.7c-1,0.1-2.9,0.8-3.6,0.6"/>
						<path class="st9" d="M414.4,399.1c-1.3-3.5-6.6-14.4-8.3-18.8c-1.2-0.7-2.3-1.4-3.5-2.2c0.9,7.8,4.1,19.9,6,22.7
							c0.8,1.2,3,3.6,4.5,3.5C416,404.4,415,400.6,414.4,399.1z"/>
						<path class="st9" d="M393.3,395.4c-0.6-4.6-3.9-19.1-4.6-24.8c-1.2-1.2-2.4-2.4-3.6-3.6c-1.1,9.5-0.7,25,0.8,28.9
							c0.6,1.7,2.6,5.1,4.5,5.5C393.7,402.1,393.6,397.4,393.3,395.4z"/>
						<path class="st9" d="M400.5,376.1c1.7-1.3,5.5-8.2,16.6-9.9c1.6-0.2,3.7-0.4,4.8,0.9c1.6,1.9-0.8,2.9-2.3,3.6
							c-3,1.2-14.7,5.1-17.4,6.5"/>
						<path class="st9" d="M393.2,372.3c0.2,2.4-0.4,5-0.3,7.4c0.1,2.6,2.7,16.6,5.1,20.4c1,1.7,2.2,5.2,4.6,4.8
							c2.4-0.4,2.8-3.6,2.7-5.5c-0.2-4.5-8.5-23.1-11.4-27.5"/>
						<path class="st9" d="M391.8,370.8c5.2-7.6,19.2-15,21.1-14.3c4.2,1.5,0.4,6.6-1.8,8.2c-4.9,3.5-18.3,6.9-18.9,6.1"/>
					</g>
				</g>
				<g>
					<path class="st7" d="M389,401.1c-3.9-2.3-8.9-5.3-12.6-7.8c-4.9-3.3-8.1-2.1-10.5,3.2c-3,6.5-2.5,15.9-1.1,22.8
						c0.5,2.4,0.8,2.8,3.4,1.9c1.9-0.7,3.6-1.6,5.6-2.1c3.9-1,7.3-1.6,11.3-0.6c6.2,1.7,0.2,4.2-3,4.3c-3.7,0-7.5,0.6-11.1,1.9
						c-6.1,2.2,10.4,18.8,15,20.4c0.9-2.9,7.1-8.2,10.5-7.5c3,0.6,0.6,2.3-0.9,3.3c-1.7,1.1-3.5,1.9-4.6,3.6
						c-4.7,6.9,15.7,10.2,19.8,10.8c5.4,0.7,7.1,3.1,9.1,7.8c3.2-5,7.8-12.3,5.8-18.3c-1-2.9-3.9-4.6-6.2-6.3
						c-1.6-1.2-6.1-5.4-1.2-4c3.4,0.9,5.7,4.3,9.2,5.1c1.4-2.2,2.9-8.9,1.4-11.2c-1.8-2.8-8.2-1.5-11-2.7c2.9-3.5,8.1-0.7,11.7-0.4
						c1.4-5.1,2-14.6-1.4-19.4c-4.9-6.9-12.2,3.9-13.3,6c-0.8,1.5-2.4,4-2.5,0.8c-0.1-2.8,4.3-8.1,6.3-10.1c1-1,4.3-2.3,4.6-3.6
						c0.4-1.5-16.3-18.6-23.9-18.4C391.4,380.5,387.7,394.8,389,401.1z"/>
				</g>
			</g>
		</g>
		<g>
			<g>
				<g>
					<path class="st10" d="M456.1,264.4c-2.5-9.4-6.3-18.8-8-28.4c-3.8-21.6,3.3-43.6,3.3-65.6c0-24.8-11.3-51-31.6-60
						c-3.2-1.4-6.4-2.3-9.6-2.9c-18.9-3.4-39.1,5.3-58.8,6.2c-49.8,2.5-93.1-44.2-143-44.7c-31.7-0.4-62.9,19.8-78.8,50.8
						c-5.2,10.2-9,21.7-16.5,29.9c-9.2,10.1-22.3,13.8-34.3,18.9c-24.4,10.5-39.8,37.3-27,65.8c5.3,11.9,13,22.7,15.5,35.7
						c0.7,3.5,0.9,7,0.9,10.5c0,14.5-4.7,29.2-5.4,43.9c-1.8,37.2,26.7,73,59.5,73.9c25.2,0.7,48-16.4,72.6-22.7
						c23.9-6.1,49.3-1.7,71.9,9.1c17.6,8.4,33.5,20.5,50.5,30.3c17,9.8,35.6,17.5,54.7,16c19-1.5,38.3-14,44.8-34.3
						c6-19,0.3-41.3,8-59.5c8-19.1,29-29.5,33.1-50.1C459.3,279.6,458.1,272,456.1,264.4z"/>
				</g>
			</g>
		</g>
	</g>
	<g id="OBJECTS" class="st3">
		<g>
			<g>
				<defs>
					<rect id="SVGID_3_" x="23" y="119.3" width="454" height="380.7"/>
				</defs>
				<clipPath id="SVGID_4_">
					<use xlink:href="#SVGID_3_"  style="overflow:visible;"/>
				</clipPath>
				<g class="st11">
					<g>
						<path class="st12" d="M415.6,148.8c-2.2-5.4-4.1-11.3-7.8-15.9l2,4c-4-6.3-21.1-7.2-27.5-6.4c-4.4,0.6-8.9,2.9-12.3,5.8
							c-6.3,5.4-8.3,10-11.2,18.1c-3.4,9.8-3.2,17.4-0.3,27.4c2.3,7.9,6,16.1,13.7,19.9c9.5,4.6,22.3,3.6,31.1-2
							c9.2-5.8,14.9-17.2,15.6-28.3C419.7,163.2,418.7,156.3,415.6,148.8z"/>
					</g>
					
						<linearGradient id="SVGID_5_" gradientUnits="userSpaceOnUse" x1="386.4051" y1="65.8449" x2="386.4051" y2="-133.7341" gradientTransform="matrix(1 0 0 -1 0 502)">
						<stop  offset="0" style="stop-color:#29ABE2"/>
						<stop  offset="0.1086" style="stop-color:#22A1DB"/>
						<stop  offset="0.4513" style="stop-color:#0F87CA"/>
						<stop  offset="0.7577" style="stop-color:#0477C0"/>
						<stop  offset="0.9955" style="stop-color:#0071BC"/>
					</linearGradient>
					<path class="st13" d="M370,519.3l16.3-110.9h14.9l4.4,110.9h30.1l4.3-123.7h-97.3c-4.6,34-7.7,76.8-10.2,123.7H370z"/>
					<path class="st14" d="M440.1,395.7h-97.3c2.3-17.4,5.1-32.5,8.3-44.6l-16.9-69.9l-8.5-35.2c1-9.7,28.5-21.8,44.8-28.1
						c2-0.8,3.9-1.5,5.5-2.1c3.9-1.4,6.3-2.3,6.3-2.3h22l4.3,1.8l5.6,2.3l20,8.3v90.2c0,4.2,0.2,8.4,0.5,12.6L440.1,395.7z"/>
					
						<linearGradient id="SVGID_6_" gradientUnits="userSpaceOnUse" x1="334.23" y1="163.7067" x2="360.86" y2="163.7067" gradientTransform="matrix(1 0 0 -1 0 502)">
						<stop  offset="0" style="stop-color:#29ABE2"/>
						<stop  offset="0.1086" style="stop-color:#22A1DB"/>
						<stop  offset="0.4513" style="stop-color:#0F87CA"/>
						<stop  offset="0.7577" style="stop-color:#0477C0"/>
						<stop  offset="0.9955" style="stop-color:#0071BC"/>
					</linearGradient>
					<path class="st15" d="M360.9,395.1l-18,0.6c2.3-17.4,5.1-32.5,8.3-44.6l-16.9-69.9l20.8,0.1C355,281.3,356.5,267.4,360.9,395.1
						z"/>
					<path class="st16" d="M414.3,220.4c0,13.3-9.9,24.1-22,24.1c-12.1,0-22-10.8-22-24.1c0-0.9,0-1.7,0.1-2.6
						c2-0.8,3.9-1.5,5.5-2.1c3.9-1.4,6.3-2.3,6.3-2.3h22l4.3,1.8l5.6,2.4C414.3,218.6,414.3,219.5,414.3,220.4z"/>
					<path class="st17" d="M409.6,221.4c0,9.6-7.7,17.3-17.3,17.3c-9.5,0-17.3-7.7-17.3-17.3c0-1.9,0.3-3.8,0.9-5.6
						c3.9-1.4,6.3-2.3,6.3-2.3h22l4.3,1.8C409.3,217.2,409.6,219.2,409.6,221.4z"/>
					<rect x="377.9" y="195.6" class="st17" width="29.2" height="25.6"/>
					<g>
						<path class="st12" d="M422,161.2c-0.5-5.4-8.6-21.5-13.7-12l0,0c-0.4,2.2-0.1,4.6,0.9,6.6c2.7,5.4,5.8,15.9,6.2,20
							c0.5,5.7,0.9,15-1.8,20.3C421.4,186.8,423,171.7,422,161.2z"/>
					</g>
					<path class="st18" d="M355.6,178.7c1.8,6.8,7,8.8,11.9,10c0.2,0.4,0.4,0.8,0.6,1.1c2.8,5,6.7,9.7,11,13.4
						c5.9,5,12.6,7.9,18.6,6.7c9.9-2.1,17.6-10.4,21-20.2c0.2-0.5,0.3-1,0.5-1.5c1.2-4.1,1.7-8.4,1.3-12.6
						c-3.4-38.1-16.4-45-31.1-43.2c-11.3,1.3-22.1,18.8-25,34.3c-1.5-0.8-3.1-1.3-4.4-1.2C355.4,166.1,354.2,173.3,355.6,178.7z"/>
					<g>
						<path class="st12" d="M434.6,127.7c-2.5,2.4-3.4,5.8-7.6,6.3c-0.1-1.1,1.3-3,1.5-4.4c0.1-1.2,0-2.6,0-3.8
							c-1.2,3.6-8.1,6.4-11.4,6.7c0.3-1.5,2.4-2.8,3.1-4.2c0.6-1.2,1.3-2.6,1.7-3.9c-4,4.5-9.7,4.8-15.3,5.3
							c-3.8,0.4-7.7,0.2-11.6,0.3c-2.7,0-5.3,0.9-7.9,1.4c-9.3,1.7-17.5,7.6-21.5,16.5c-1.3,2.9-3.9,9.7-2,13.3
							c-0.3,3.8,0.8,7.6,1.5,11.6c1,5.1,2.5,9.9,4.7,14.7c0.8,1.7,2.4,4.3,3.2,6.7c-0.1-2.6,0.3-5.4,0.3-7.8
							c0-5.8,0.4-11.8,2.2-17.3c0,0,0-0.1,0-0.1c2.1-6.6,7.7-11.6,14.6-12.9c0.6-0.1,1.1-0.2,1.7-0.3c7.5-0.9,15.3,0.1,22.8-1.1
							c3.7-0.6,7.5-1.8,10.9-3.4c3.2-1.5,4.7-3.7,6-7C433.3,139.3,435.1,133.1,434.6,127.7z"/>
					</g>
					<path class="st12" d="M389.6,172.2c0,1.6,1.1,3,2.6,3c1.5,0,2.7-1.3,2.8-2.9c0-1.6-1.1-3-2.6-3
						C390.8,169.2,389.6,170.5,389.6,172.2z"/>
					<path class="st12" d="M408.1,172.3c0,1.6,1.1,3,2.6,3c1.5,0,2.7-1.3,2.8-2.9c0-1.6-1.1-3-2.6-3
						C409.4,169.3,408.1,170.6,408.1,172.3z"/>
					<g>
						<path class="st12" d="M383.1,166.4c0.4,0,0.7-0.1,0.9-0.5c2.8-5.1,7.5-2.9,7.7-2.8c0.5,0.2,1,0,1.2-0.4c0.2-0.5,0-1-0.4-1.2
							c-2.2-1.1-7.2-1.7-10.1,3.6c-0.3,0.4-0.1,1,0.4,1.3C382.9,166.3,383,166.4,383.1,166.4z"/>
					</g>
					<g>
						<path class="st12" d="M398.9,190.1c-0.1-0.3-0.5-0.6-0.8-0.6c-5.8-0.2-6-5.4-6-5.6c0-0.5-0.4-0.9-0.9-0.9
							c-0.5,0-0.9,0.4-0.9,0.9c0.1,2.5,1.8,7.2,7.8,7.4c0.5,0,0.9-0.4,0.9-0.9C399,190.3,399,190.2,398.9,190.1z"/>
					</g>
					<g>
						<path class="st12" d="M408.1,162.6c0.2,0.2,0.5,0.3,0.8,0.2c4.6-1.7,6.4,2.3,6.5,2.5c0.2,0.4,0.6,0.6,1,0.4
							c0.4-0.2,0.6-0.6,0.4-1c-0.8-1.9-3.6-5.1-8.4-3.3c-0.4,0.1-0.6,0.6-0.5,1C407.9,162.4,408,162.5,408.1,162.6z"/>
					</g>
					<g>
						<path class="st12" d="M407.1,185.8c0.6-0.2,1.1-0.5,1.5-0.9c1.3-1.4,1-3.8-0.6-6.4l-4.6-8.9c-0.2-0.3-0.6-0.5-1-0.3
							c-0.4,0.2-0.5,0.6-0.3,0.9l4.6,9c1.6,2.5,1.5,4.1,0.8,4.8c-0.7,0.7-2,0.8-3.3,0.1c-0.4-0.2-0.8-0.1-1,0.3
							c-0.2,0.3-0.1,0.7,0.3,0.9C404.8,185.9,406,186.1,407.1,185.8z"/>
					</g>
					<path class="st17" d="M434.2,225.9c0,0,14.6,3.2,17.7,15.3l13,65.3c0.5,2.5,0.8,5.1,0.7,7.6c-0.5,23.6-33.2,17-60.7,8.7
						l28.8-22.4L434.2,225.9z"/>
					<path class="st14" d="M433.3,285.3l29.3-2.5c0,0-3.3-27.3-12.6-47c-2.6-5.6-9-8.4-15.7-9.8L433.3,285.3z"/>
					<path class="st18" d="M414.5,315.3l-37.1,28.9c-6.1,4.2-11.4,6.9-15.9,8.6c-11.5,4.4-24.1-2.5-27.5-14.8
						c-9.8-36.1-12.6-75-8.4-91.9c5.8-4.4,12.5,0.8,17.7,7.1c5.5,6.7,14.4,62.9,14.4,62.9l48.9-11c0,0,0.1-0.1,0.1-0.1
						C408.8,307.6,412.3,312.3,414.5,315.3z"/>
					<path class="st14" d="M324.1,247.8c-5.1,17.8,1.6,64.2,1.6,64.2l34-13.8c0,0-5.3-61.6-29.1-56.4
						C327.5,242.4,325,244.8,324.1,247.8z"/>
					<path class="st17" d="M359.7,300.6c0,0-12.4-1.6-17.8-6.5c0,0-2.6-0.5-2.2,2.5c0.1,1.1,0.6,2.1,1.3,2.9
						c1.4,1.6,4.3,3.9,10.1,4.2L359.7,300.6z"/>
					<g>
						<path class="st17" d="M375.3,305.2c-2,0.1-3.9-0.3-5.6-1.2c-4.9-2.6-16.4-7-25.6,2l-11.6,12.4c0,0-1.2,1.4-1.6,3
							c-0.1,0.5-0.1,1,0,1.5c0.1,0.4,0.3,0.7,0.6,1c0.2,0.2,0.5,0.4,0.9,0.6c1.1,0.5,2.9,0.7,5.8,0.4c4.3-0.4,8.5-1.8,12.4-3.9
							l9-4.9l9.4-2l41.9-9L375.3,305.2z"/>
						<g>
							<path class="st19" d="M348.7,307.3c-1.2,0.4-10.7,8.9-17.9,15.5c-0.1-0.5-0.1-1,0-1.5c5.6-5.2,15.9-14.6,17.5-15L348.7,307.3
								z"/>
						</g>
						<g>
							<path class="st19" d="M350,312.1l-17.6,12.3c-0.4-0.2-0.7-0.4-0.9-0.6l18-12.5L350,312.1z"/>
						</g>
					</g>
					<path class="st18" d="M433.7,300.4l-19.2,14.9c-2.2-3-5.7-7.8-7.8-10.4C421.4,289.5,433.7,300.4,433.7,300.4z"/>
					<rect x="360.9" y="259.2" class="st16" width="25.5" height="4.4"/>
				</g>
			</g>
			<g>
				<defs>
					<rect id="SVGID_7_" x="23" y="119.3" width="454" height="380.7"/>
				</defs>
				<clipPath id="SVGID_8_">
					<use xlink:href="#SVGID_7_"  style="overflow:visible;"/>
				</clipPath>
				<g class="st20">
					<g>
						<path class="st21" d="M161.7,180.8c4.2-4.7,6.4-13.2,1.3-17.9c-3.9-3.6-9.7-3.4-14.4-4.9c-8.4-2.7-17-3.4-25.7-3.4
							c-5.6,0-12.2,0.5-16.6-3.6l7.7-3.6c-3.4,1.4-8.7,2.2-12.7,3.8c-2.3,0.9-5.1,1.9-5.7,4.8c-0.6,2.9,1.6,4,2.8,6.1
							c-2.6,1.3-12.7,8.3-4.8,10.5c-4.2,1.8-8.3,5-9.8,10c-1.7,5.3,0.6,9,6.1,7.8c-0.1,3.7-5.5,24.7,5.3,17.5
							c1.7,4.1,1.3,8.9,5.6,11.7c3.5,2.1,6.6,0.6,8.3-3.3c1.9,4.2,14.7,13.6,14.4,3.2c3,1.8,4.1,5.8,8.6,5.5c3.5-0.3,6.8-3,5.5-7.1
							c6.4,5.6,18.7,2.9,14.8-7.9c5.2-0.5,13.3-5.5,6.2-11.1c5.4-1.3,9.2-1,9.9-8.2C169.2,186.1,166.5,180.3,161.7,180.8z"/>
					</g>
					<path class="st14" d="M93.1,235.2c-13.6,11.7-14.3,43.4-11.3,76.8l-32.2-1.9l4.3,17.6l34.2,6.8c6.5,1.3,12.5-3.7,12.5-10.3
						v-86.4L93.1,235.2z"/>
					
						<linearGradient id="SVGID_9_" gradientUnits="userSpaceOnUse" x1="75.63" y1="20.745" x2="186.67" y2="20.745" gradientTransform="matrix(1 0 0 -1 0 502)">
						<stop  offset="0" style="stop-color:#29ABE2"/>
						<stop  offset="0.1086" style="stop-color:#22A1DB"/>
						<stop  offset="0.4513" style="stop-color:#0F87CA"/>
						<stop  offset="0.7577" style="stop-color:#0477C0"/>
						<stop  offset="0.9955" style="stop-color:#0071BC"/>
					</linearGradient>
					<path class="st22" d="M84.7,530.5h38.1l5.2-60.1l4.5-0.5l7.2,60.6h40.8l6.1-93.6c0-0.2,0-0.4,0-0.6c0.1-1.5,0.2-2.9,0.2-4.4
						h-111c0.1,1.5,0.2,3,0.4,4.4L84.7,530.5z"/>
					<rect x="75.6" y="431.4" class="st23" width="111" height="6"/>
					<path class="st24" d="M112.2,224.8l1.2-0.2c0.8-0.1,1.5-0.4,2.1-0.8c1.1-0.8,1.8-2.1,1.8-3.5c0-1.1,0.1-2.1,0.2-3.2
						c0-0.4,0-0.8,0.1-1.2c0.1-1.6,0.2-3.2,0.3-4.8l0.8-8.5l22-9c-1.1,2.1-2.8,18.8-2.6,22.1c0,0.9,0.1,1.8,0.3,2.8c0,0,0,0,0,0
						c0.1,0.3,0.1,0.5,0.2,0.8c0.4,1.6,1,2.8,1.8,3.7C123.3,244.7,113.9,245.4,112.2,224.8z"/>
					<path class="st14" d="M186.7,432h-111c-0.9-26.4,18.1-63.3,25.4-73.8c0.3-0.4,0.5-0.7,0.7-1c0.9-1.2,1.4-2.7,1.5-4.2
						c0-0.9-0.1-1.7-0.4-2.6c-0.2-0.6-0.5-1.6-1-2.8c-4.1-11.9-16.1-47.3-18.1-58.5c-2.6-15,9.3-54,9.3-54l15.3-8.6
						c-8.2,18.6,6.1,32.5,6.1,32.5c20-7.7,26.4-24.4,28.5-33.5c0.4,0.2,0.8,0.4,1.2,0.5c0,0,0,0,0,0h0l10.9,1.6v0
						c1.8,0.2,10.6,2.4,11.7,4.7c0.6,1.1,0.8,2.3,0.8,3.6c0,0.1,0,0.3,0,0.4c-0.6,7.4-1.4,15-0.1,22.2c1,5.8,2.8,11.4,3.7,17.1
						c1.2,7.7,0,15-2.9,22.2c-1.6,3.8-6.8,29-9.8,43.5c-0.2,1.3-0.4,2.6-0.5,3.9c-0.2,3.5,0.4,6.9,1.6,10c0.6,1.7,1.5,3.3,2.4,4.8
						l0.4,0.6C162.6,360.8,186.7,398,186.7,432z"/>
					
						<linearGradient id="SVGID_10_" gradientUnits="userSpaceOnUse" x1="164.5528" y1="235.3364" x2="164.5528" y2="117.7106" gradientTransform="matrix(1 0 0 -1 0 502)">
						<stop  offset="0" style="stop-color:#ECADB5"/>
						<stop  offset="1" style="stop-color:#DD819A"/>
					</linearGradient>
					<path class="st25" d="M186.7,432h-9.6c-7.5-24.8-18.3-47.9-26.7-64c-8.1-15.4-10.1-33.2-5.7-50.1l22.2-85.5l0.8,3.6
						c0,0.1,0,0.3,0,0.4c-0.6,7.4-1.4,15-0.1,22.2c1,5.8,2.8,11.4,3.7,17.1c1.2,7.7,0,15-2.9,22.2c-1.6,3.8-6.8,29-9.8,43.5
						c-0.2,1.3-0.4,2.6-0.5,3.9c-0.2,3.5,0.4,6.9,1.6,10c0.6,1.7,1.5,3.3,2.4,4.8l0.4,0.6C162.6,360.8,186.7,398,186.7,432z"/>
					<rect x="87.1" y="265.5" class="st16" width="22.3" height="5.6"/>
					<g>
						<g>
							<path class="st26" d="M155,187.6c1.8-4.7,1.3-11.2-2.6-12.1c-1.2-0.3-2.6,0-4.1,0.6c-1.1-14.2-9.2-30.9-19.1-33.1
								c-13-2.9-25.3,2-32,35.8c-2.7,13.4,4.5,28.8,17.2,32.9c9.5,3,22.2-5.9,29.1-16.1C147.8,194.8,152.7,193.5,155,187.6z"/>
							<g>
								<g>
									<g>
										<path class="st12" d="M109.6,197c-0.8-0.1-1.3-0.2-1.3-0.2c-0.4-0.1-0.7-0.6-0.6-1c0.1-0.4,0.5-0.7,1-0.6
											c0.4,0.1,10,2.5,13.7-6.6c0.2-0.4,0.6-0.6,1.1-0.5c0.4,0.2,0.6,0.6,0.5,1.1C120.5,197.5,112.7,197.4,109.6,197z"/>
									</g>
								</g>
								<path class="st12" d="M125.2,178.5c-0.1,1.5-1.3,2.6-2.6,2.5c-1.3-0.1-2.3-1.4-2.2-2.9s1.3-2.6,2.6-2.5
									C124.3,175.8,125.3,177,125.2,178.5z"/>
								<path class="st12" d="M108.6,176.8c-0.1,1.5-1.3,2.6-2.6,2.5c-1.3-0.1-2.3-1.4-2.2-2.9s1.3-2.6,2.6-2.5
									C107.7,174.1,108.7,175.4,108.6,176.8z"/>
								<g>
									<g>
										<path class="st12" d="M131.5,173.9c-0.3,0-0.6-0.2-0.7-0.5c-2-4.8-6.5-3.3-6.7-3.2c-0.4,0.1-0.9-0.1-1.1-0.5
											c-0.2-0.4,0.1-0.9,0.5-1.1c2.1-0.8,6.6-0.9,8.8,4.1c0.2,0.4,0,0.9-0.4,1.1C131.7,173.9,131.6,173.9,131.5,173.9z"/>
									</g>
								</g>
								<g>
									<g>
										<path class="st12" d="M109.5,168.2c-0.2,0.2-0.5,0.2-0.8,0.1c-4-1.9-5.9,1.4-6,1.6c-0.2,0.3-0.6,0.4-0.9,0.3
											c-0.3-0.2-0.4-0.6-0.3-0.9c0.9-1.6,3.7-4.2,7.8-2.2c0.3,0.2,0.5,0.6,0.3,0.9C109.6,168.1,109.6,168.1,109.5,168.2z"/>
									</g>
								</g>
							</g>
						</g>
					</g>
					<g>
						<path class="st12" d="M111.1,189.7c0.4,0,0.8-0.3,0.8-0.8s-0.3-0.8-0.8-0.8c0,0-1.5,0-1.8-0.8c-0.2-0.4-0.3-1.5,1.8-4.1
							c0.3-0.3,0.2-0.8-0.1-1.1c-0.3-0.3-0.8-0.2-1.1,0.1c-2,2.5-2.6,4.3-2,5.7C108.7,189.7,111,189.7,111.1,189.7L111.1,189.7z"/>
					</g>
					<g>
						
							<linearGradient id="SVGID_11_" gradientUnits="userSpaceOnUse" x1="156.2613" y1="151.1951" x2="161.8494" y2="110.216" gradientTransform="matrix(1 0 0 -1 0 502)">
							<stop  offset="0" style="stop-color:#29ABE2"/>
							<stop  offset="0.1086" style="stop-color:#22A1DB"/>
							<stop  offset="0.4513" style="stop-color:#0F87CA"/>
							<stop  offset="0.7577" style="stop-color:#0477C0"/>
							<stop  offset="0.9955" style="stop-color:#0071BC"/>
						</linearGradient>
						<polygon class="st27" points="171.3,412 178.3,404.9 153.6,380.2 146.6,387.3 						"/>
						
							<rect x="155.4" y="383.6" transform="matrix(0.7071 -0.7071 0.7071 0.7071 -237.4936 228.819)" class="st23" width="4.1" height="34.9"/>
					</g>
					<g>
						
							<linearGradient id="SVGID_12_" gradientUnits="userSpaceOnUse" x1="111.3025" y1="124.5373" x2="116.8906" y2="83.5585" gradientTransform="matrix(0.9235 -7.650000e-02 7.650000e-02 -0.9235 -14.8944 487.1056)">
							<stop  offset="0" style="stop-color:#29ABE2"/>
							<stop  offset="0.1086" style="stop-color:#22A1DB"/>
							<stop  offset="0.4513" style="stop-color:#0F87CA"/>
							<stop  offset="0.7577" style="stop-color:#0477C0"/>
							<stop  offset="0.9955" style="stop-color:#0071BC"/>
						</linearGradient>
						<polygon class="st28" points="89.9,412.4 83.9,406.5 108.6,381.8 114.6,387.7 						"/>
						
							<linearGradient id="SVGID_13_" gradientUnits="userSpaceOnUse" x1="89.88" y1="100.69" x2="117.02" y2="100.69" gradientTransform="matrix(1 0 0 -1 0 502)">
							<stop  offset="0" style="stop-color:#29ABE2"/>
							<stop  offset="0.1086" style="stop-color:#22A1DB"/>
							<stop  offset="0.4513" style="stop-color:#0F87CA"/>
							<stop  offset="0.7577" style="stop-color:#0477C0"/>
							<stop  offset="0.9955" style="stop-color:#0071BC"/>
						</linearGradient>
						<polygon class="st29" points="89.9,412.4 92.3,414.9 117,390.2 114.6,387.7 						"/>
					</g>
					<path class="st16" d="M143,225.6c-2.1,9.2-8.5,25.8-28.5,33.5c0,0-14.3-13.9-6.1-32.5l3.5-1.1c1.8,21,11.4,20.3,28.7-1.8
						c0.5,0.6,1.1,1.2,1.9,1.6C142.6,225.4,142.8,225.5,143,225.6z"/>
					<g>
						<path class="st21" d="M156.8,154.9c-4.3-8.1-12.5-13.9-21-16.2c-7.7-2.1-18.3-1.7-25.1,3.3c-6.2,4.6-11.5,12.3-11,20.8v0
							c0.1,1.9,2.4,2.7,3.6,1.2c1.5-1.9,3.1-3.8,4.7-4.3c1,2.6,3.2,4.3,5.8,4.6c2.6,0.3,5.2,0,6.6-1.8l0,0c0.7,2.9,4.1,4.3,6.6,2.8
							c1.3-0.8,2.7-1.5,4.1-2.1c2.1,7.4,4.2,14.8,6.3,22.2c0.6,2,1.3,4.1,2.9,5.1c1.7,1,3.8,0.5,5.6-0.3
							C158.2,184.6,163.4,167.6,156.8,154.9z"/>
					</g>
					<g>
						<path class="st26" d="M224.6,316.5c-13.6,14.8-35,25.4-60.9,33.5c0,0,1.6,8.9-15.5,8.3c-0.8,0-1.6-0.3-2.3-0.7
							c-0.3-0.2-0.6-0.4-0.9-0.7c-0.1-0.1-0.3-0.3-0.4-0.4c-0.3-0.3-0.5-0.6-0.8-0.9c-0.2-0.3-0.4-0.5-0.7-0.8
							c-0.6-0.7-1.1-1.5-1.6-2.2c-0.2-0.3-0.4-0.6-0.5-0.9c-0.9-1.7-1.3-3.4-0.5-4.7c1.2-2,3.4-4.3,7.3-7c0,0,8.6-5.9,11.4-2.1
							l1.2,1.8l36-29.1L176,289.2c-6.8-7.1-10.6-16.5-10.8-26.3l-0.6-32.3c5,1.3,43.9,51.2,60.3,70.5
							C228.5,305.4,228.4,312.4,224.6,316.5z"/>
						<g>
							<path class="st24" d="M158.1,351.2l-12.2,6.4c-0.3-0.2-0.6-0.4-0.9-0.7l12.7-6.6L158.1,351.2z"/>
						</g>
						<g>
							<path class="st24" d="M155.6,347.3l-11.9,8.4c-0.2-0.3-0.4-0.5-0.7-0.8l12-8.5L155.6,347.3z"/>
						</g>
						<g>
							<path class="st24" d="M152.7,343.6l-11.3,9c-0.2-0.3-0.4-0.6-0.5-0.9l11.2-8.9L152.7,343.6z"/>
						</g>
					</g>
					<path class="st21" d="M45.5,270.3l44-0.6c2.5,0,4.6,1.7,5.2,4.1l16.2,70.2c0.8,3.3-1.7,6.4-5.1,6.4l-44.4,0.6
						c-2.5,0-4.7-1.7-5.2-4.1l-15.8-70.2C39.8,273.4,42.2,270.3,45.5,270.3z"/>
					<path class="st26" d="M53,327.9c-0.6,0.1-1.2-0.1-1.8-0.5c-4.1-3.5-4.9-10.5-5-14.3c0-1.4,0.9-2.6,2.1-2.8
						c8.4-1.3,12.7,1.6,14.8,4.6c0.3,0.4,0.5,0.8,0.7,1.1c0.2,0.4,0.4,0.9,0.6,1.3c0.1,0.4,0.3,0.7,0.4,1c0.2,0.5,0.3,0.9,0.3,1.3
						c0.1,0.5,0.1,0.9,0.1,1c0,0,0,0,0,0C65.8,326.1,56,327.6,53,327.9z"/>
					<g>
						<path class="st24" d="M63.8,316c-3.3-0.5-10.3-0.8-12.8-0.8v-1c0.8,0,7.9,0.1,12,0.7C63.4,315.3,63.6,315.7,63.8,316z"/>
					</g>
					<g>
						<path class="st24" d="M64.8,318.3l-13.6,1.2l-0.1-1l13.3-1.2C64.6,317.7,64.7,318,64.8,318.3z"/>
					</g>
					<g>
						<path class="st24" d="M65.2,320.6c-3.8,1.5-10.9,3.1-13.1,3.6l-0.2-1c4.5-0.8,10.3-2.5,13.2-3.6
							C65.2,320.1,65.2,320.5,65.2,320.6z"/>
					</g>
					<path class="st14" d="M164.6,230.6l1.1,35.8c0.2,6.9,2.7,13.5,7,18.8l16.2,20l21.3-25.7C210.1,279.6,170.3,227.9,164.6,230.6z"
						/>
				</g>
			</g>
			<g>
				<defs>
					<rect id="SVGID_14_" x="23" y="119.3" width="454" height="380.7"/>
				</defs>
				<clipPath id="SVGID_15_">
					<use xlink:href="#SVGID_14_"  style="overflow:visible;"/>
				</clipPath>
				<g class="st30">
					<g>
						<path class="st12" d="M228,177.5c-2.2,6.1-2.8,12.3-5.6,18.2c-4.2,9.1-13.6,11.8-19.9,19.1c-2.5,2.9-3.8,5.5-3.5,9.3
							c0.4,5.6,4.8,6.8,6.8,11.5c4,9.4-5.7,10.3-12.1,14.8c-22.5,15.5-13,43.2,11.5,48.5c12.4,2.7,23-0.2,33.9,7.6
							c9.3,6.7,15.2,12.3,27,14c10.8,1.6,23.4,1.8,34.3,0.4c12.8-1.7,19.4-9.5,30.9-13.5c9-3.2,20.9,3,27.8-4.1
							c6-6.2,8.7-19.7,2.8-26.2c-9.1-9.9-21.9-12.4-24.5-27.3c-1.6-9.3,2-19,0.2-28.2c-2.3-11.5-16.9-20-25.2-27
							c-8.1-6.9-6.2-12.3-8-22.1c-3.4-18.8-20.4-39.6-41-37.9c-21.7,1.7-37.1,24.3-35.9,45.3"/>
					</g>
					<path class="st18" d="M224.3,236.9c0,0-13.6,1.9-13.6,22.9l-2.9,68.1L178,417c-1.1,3.4-1.7,6.9-1.7,10.4v20.7l14.9,12
						c0,0,3.3-1.8-9.1-12l0.7-16.3c0,0,2.2,15.2,4.7,15.2c1.7-0.2,1.3-10.6,1.1-19.8c0-1-0.2-2.1-0.7-3l-1.9-4.3l37.6-71.7
						c4.1-7.8,6-16.6,5.5-25.4L224.3,236.9z"/>
					<path class="st14" d="M224.3,236.9c0,0-22.6,0.5-18.4,63h22.8L224.3,236.9z"/>
					<path class="st14" d="M313.5,408.8c-26.3,8.9-55.5,14.7-80.3,8.8c-9.2-2.1-17.7-5.9-25.3-11.7c0,0,9.9-35.8,20.2-62.6
						c1.7-4.3,2.9-11.7,2.7-16.4c-0.8-15.1-7.5-26.1-9.4-40.7c-1.6-12.5,3-49.2,3-49.2s23-8,25-8c0.1,0,0.3,0,0.4,0
						c-0.2,2.7-0.2,6,0.2,9.4c1.6,13,18.5,17.6,26.3,7c2.5-3.4,4.7-7.9,5.8-13.6l2.1,0.3l0.8,0.1c5.6,0.8,16.2,2.2,16.2,2.2
						c-0.9,8.9-3,18.4-1.8,27.2c0.8,5.3,2.1,10.5,2.7,15.8c0.8,7.1-0.5,13.8-3.5,20.3c-3.7,8-6.9,17.1-7.8,26
						c-1.9,19,6.4,36.1,13.2,53.4C309.8,392.3,313.5,408.8,313.5,408.8z"/>
					<path class="st21" d="M247.2,302.5l16.3,59.3c0.8,2.8,3.7,4.4,6.5,3.6l38.7-11.5c2.7-0.8,4.2-3.6,3.5-6.3L296.8,290
						c-0.7-2.7-3.5-4.4-6.2-3.7l-39.7,9.9C248.1,296.9,246.4,299.8,247.2,302.5z"/>
					<rect x="229.9" y="272.9" class="st16" width="19.6" height="4.5"/>
					<path class="st16" d="M284,232c0.4,21.9-21,38.7-21,38.7c-18.4-9.2-17.1-40.9-17.1-40.9c0.1-0.1,3.7-1,3.7-0.9
						c-0.2,2.7-0.2,6,0.2,9.4c1.6,13,18.5,17.6,26.3,7c2.5-3.4,4.7-7.9,5.8-13.6L284,232z"/>
					<path class="st18" d="M232.6,233.1"/>
					<path class="st17" d="M276.2,230.8c-1.5-0.2-2.5-1.5-2.4-3l0.4-3.7c0,0,0,0,0,0l1.6-10.1l-19.3-5.5c0,0-1.4,10.9-1.6,12.4
						c-0.1,0.8-0.2,1.7-0.2,2.5l0,0l-0.4,1.6c-0.5,2.2-2.4,3.8-4.6,3.9c0,0,0,0-0.1,0.1c-0.2,2.7-0.2,6,0.2,9.4
						c1.6,13,18.5,17.6,26.3,7c2.5-3.4,4.7-7.9,5.8-13.6L276.2,230.8z"/>
					<path class="st18" d="M234.3,173.8c1.3-0.1,2.7,0.5,4.1,1.4c2.2-8.4,7.1-17.3,12.9-23.3c2.4-3,5.2-4.9,8.1-6
						c1.6-0.7,3.2-1.1,4.8-1.2c1.1-0.1,2.2,0,3.2,0c1.1,0,2.1,0.1,3.2,0.3c1.6,0.2,3.1,0.8,4.7,1.6c2.8,1.3,5.4,3.5,7.6,6.6
						c5.3,6.5,9.3,15.7,10.8,24.3c1.4-0.8,2.9-1.2,4.2-1c4.2,0.6,5.3,7.3,3.9,12.4c-1.8,6.4-6.7,8.2-11.3,9.3
						c-2.3,4.2-5.4,8.2-8.9,11.6c-3.7,4-8.4,6.9-13.7,7.9c-0.1,0-0.3,0.1-0.5,0.1c-0.3,0.1-0.6,0.1-0.9,0.2c-0.2,0-0.4,0-0.6,0
						c-0.2,0-0.4,0-0.5,0c-0.4,0-0.8,0-1.2,0c-0.4,0-0.8-0.1-1.2-0.1c-0.2,0-0.4,0-0.5-0.1c-0.2,0-0.4,0-0.6-0.1
						c-0.3-0.1-0.6-0.2-0.9-0.3c-0.1,0-0.3-0.1-0.5-0.1c-5.1-1.5-9.6-4.8-12.9-9.1c-3.2-3.6-6-7.9-7.9-12.3
						c-4.5-1.5-9.2-3.7-10.4-10.2C228.4,180.6,230.1,174,234.3,173.8z"/>
					<g>
						<g>
							<path class="st12" d="M267.5,204c3-0.8,6.4-2.8,7.9-7.7c0.1-0.4-0.1-0.8-0.5-1s-0.8,0.1-1,0.5c-2.8,8.7-11.8,7.1-12.2,7
								c-0.4-0.1-0.8,0.2-0.9,0.6c-0.1,0.4,0.2,0.8,0.6,0.9C261.5,204.4,264.3,204.9,267.5,204z"/>
						</g>
						<g>
							<path class="st12" d="M278.1,186.1c-0.2,1.4-1.4,2.5-2.9,2.3c-1.4-0.2-2.4-1.4-2.3-2.9s1.4-2.5,2.9-2.3
								C277.3,183.4,278.3,184.7,278.1,186.1z"/>
						</g>
						<g>
							<path class="st12" d="M257.1,185.2c-0.2,1.4-1.4,2.5-2.9,2.3s-2.4-1.4-2.3-2.9s1.4-2.5,2.9-2.3
								C256.3,182.5,257.3,183.8,257.1,185.2z"/>
						</g>
						<g>
							<path class="st12" d="M281.5,179.7C281.6,179.7,281.6,179.7,281.5,179.7c0.5-0.2,0.7-0.6,0.5-1c-1.8-4.7-6-4.7-8-4.1
								c-0.4,0.1-0.6,0.6-0.5,1c0.1,0.4,0.5,0.6,1,0.5c0.1,0,4.3-1.3,6,3.2C280.8,179.6,281.2,179.8,281.5,179.7z"/>
						</g>
						<g>
							<path class="st12" d="M258.7,175.8C258.7,175.8,258.7,175.7,258.7,175.8c0.3-0.4,0.1-0.9-0.3-1.1c-4.4-2.5-7.6,0.2-8.7,1.9
								c-0.2,0.4-0.1,0.8,0.2,1.1c0.4,0.2,0.8,0.2,1.1-0.2c0.1-0.1,2.5-3.8,6.7-1.4C258,176.2,258.4,176.1,258.7,175.8z"/>
						</g>
						<g>
							<path class="st12" d="M262.5,196.1c0.4,0,0.8-0.3,0.8-0.7c0-0.4-0.3-0.8-0.7-0.8c0,0-1.4-0.1-1.8-0.9
								c-0.1-0.4-0.3-1.5,1.9-3.9c0.3-0.3,0.2-0.8-0.1-1c-0.3-0.3-0.8-0.2-1,0.1c-2,2.3-2.7,4.1-2.1,5.5
								C260.1,196,262.4,196.1,262.5,196.1L262.5,196.1z"/>
						</g>
					</g>
					<g>
						<path class="st12" d="M295.6,156.6c-1-6.6-6.1-12.5-11.8-15.4c-6-3.1-13.3-3.3-19.8-1.7c-8.2,2-17.3,6.7-22.8,13.2
							c-3.1,3.7-5.6,10.2-6.8,17.6c-1.4,8.4,9.6,12.4,14.3,5.3c0.2-0.2,0.3-0.5,0.5-0.7c3.2-4.4,9.2-4.1,14.3-3.7
							c7.6,0.6,14.5,0.6,20.8-4.4c-0.2,2.8,0.3,5.3,0.9,8.2C287,183.9,300.2,188.4,295.6,156.6z"/>
					</g>
					<path class="st18" d="M348.8,324.8c-17.1,9.3-49.5,12.9-80.8,17c0,0-6.1,3.6-11,4.6c-1.8,0.4-3.5-0.5-4.3-2.2
						c-1.4-2.9-3.7-8-3.9-11.8c-0.1-2,1.4-3.6,3.4-3.8l8.6-0.6l-7.1-1.7c-0.9-0.2-1.3-1.4-0.5-2c2.1-1.8,8.5-2.5,15.7,3.9
						c15.2-1.8,36.8-9.8,59.2-18.6l-9-10.7l-19.6-23.3l-0.4-0.5c0,0,0-0.2-0.1-0.6c-0.8-4.6-5.1-32.9,2-40.1l8.1,4.7
						c4.4,2.5,8.1,6.1,10.9,10.4l20.6,31.8l13.6,21.1C359.3,309.9,356.9,320.4,348.8,324.8z"/>
					<path class="st16" d="M249.7,228.9"/>
					
						<linearGradient id="SVGID_16_" gradientUnits="userSpaceOnUse" x1="130.1287" y1="36.31" x2="316.8497" y2="36.31" gradientTransform="matrix(1 0 0 -1 0 502)">
						<stop  offset="0" style="stop-color:#29ABE2"/>
						<stop  offset="0.1086" style="stop-color:#22A1DB"/>
						<stop  offset="0.4513" style="stop-color:#0F87CA"/>
						<stop  offset="0.7577" style="stop-color:#0477C0"/>
						<stop  offset="0.9955" style="stop-color:#0071BC"/>
					</linearGradient>
					<polygon class="st31" points="230.8,525.6 251.1,444.7 267.9,444.7 265.8,525.6 300.5,525.6 313.5,408.8 207.8,405.8 
						192.2,525.6 					"/>
					<path class="st14" d="M342.4,279.7l-1.8,1.5l-21.6,17.7l-3.9,3.2c-6.3-7.8-11.5-17.2-15.7-26.5c0,0,0,0,0,0
						c-0.3-0.7-0.6-1.5-0.7-2.3c-1.1-7-4.4-32.1,2.2-38.9C318.1,236.6,342.4,279.7,342.4,279.7z"/>
				</g>
			</g>
		</g>
	</g>
	<g id="DESIGNED_BY_FREEPIK">
		<g class="st3">
			<g>
				<g id="XMLID_1_">
					<g id="XMLID_20_">
						<path id="XMLID_28_" class="st32" d="M260.1,465.5c-0.4,0.4-0.8,0.9-1.1,1.5l-0.5-0.2c-0.1-0.3-0.4-0.5-0.7-0.5
							c-0.3,0-0.6,0.3-0.5,0.7c0,0.3,0.3,0.6,0.7,0.5c0.1,0,0.1,0,0.2,0l0.5,0.2c-0.3,0.5-0.4,1.1-0.5,1.7l0.8,0.1
							c0.2-1.3,0.9-2.5,1.8-3.5L260.1,465.5z"/>
						<path id="XMLID_27_" class="st32" d="M265.6,463.2c-0.2,0-0.3,0-0.5,0l-0.1-0.6c0.2-0.1,0.3-0.4,0.3-0.6
							c0-0.4-0.4-0.7-0.8-0.6c-0.4,0-0.7,0.4-0.6,0.8c0,0.3,0.2,0.5,0.4,0.6l0.1,0.6c-0.7,0.1-1.4,0.3-2.1,0.6l0.3,0.7
							c0.9-0.5,1.9-0.7,3-0.7c0.5,0,1,0,1.5,0.2l0.2-0.7C266.7,463.2,266.1,463.2,265.6,463.2z"/>
						<path id="XMLID_26_" class="st32" d="M272.2,465.7c0.3,0,0.6-0.3,0.5-0.7c0-0.3-0.3-0.6-0.7-0.5c-0.3,0-0.5,0.3-0.5,0.6
							l-0.4,0.4c-0.4-0.4-0.9-0.8-1.4-1.1l-0.4,0.6c1.1,0.7,2,1.7,2.6,2.9l0.7-0.3c-0.3-0.5-0.6-1.1-0.9-1.5l0.4-0.4
							C272.1,465.7,272.1,465.7,272.2,465.7z"/>
						<path id="XMLID_25_" class="st32" d="M265,473.4c-0.4,0-0.8,0-1.2,0c-0.9,0-1.7-0.1-2.5-0.2c-0.4-0.1-0.9-0.1-1.3-0.3
							c1,1.9,3.1,3.1,5.4,3.1c2.9,0,5.3-1.9,6-4.5c-0.7,0.5-1.5,0.8-2.5,1.1C267.8,473,266.5,473.3,265,473.4z"/>
						<path id="XMLID_21_" class="st32" d="M265.6,464.7c-3.4,0-6.1,2.7-6.1,5.9c0,0.4,0,0.9,0.1,1.3c0.7,0.5,2.7,0.9,5.4,0.7
							c2.9-0.2,5.3-1,6.7-2.2c0-0.2,0-0.4,0-0.6C271.2,466.9,268.6,464.7,265.6,464.7z M263.4,471.2c-1,0-1.9-0.8-1.9-1.9
							c0-1,0.8-1.9,1.9-1.9c1,0,1.9,0.8,1.9,1.9C265.3,470.4,264.5,471.2,263.4,471.2z M268.2,470.3c-0.8,0-1.4-0.6-1.4-1.4
							s0.6-1.4,1.4-1.4s1.4,0.6,1.4,1.4S268.9,470.3,268.2,470.3z"/>
					</g>
					<path id="XMLID_18_" class="st32" d="M281.6,466.5c-0.3-0.1-0.8-0.3-1.4-0.2c-0.5,0.1-0.8,0.3-0.8,1v0.9h2.2v1.7h-2.2v5.5h-1.9
						v-5.5h-1.3v-1.7h1.3v-0.9c0-1.7,0.9-2.8,2.6-2.8c0.6,0,1.2,0.1,1.6,0.3L281.6,466.5L281.6,466.5z"/>
					<path id="XMLID_16_" class="st32" d="M286.3,469.9c-0.2,0-0.4,0-0.5,0c-0.9,0-1.5,0.5-1.5,1.6v3.9h-1.9v-7.2h1.9v0.8
						c0.5-0.7,1.1-1,2-1c0.4,0,0.9,0.1,1.1,0.3L286.3,469.9z"/>
					<path id="XMLID_13_" class="st32" d="M294,471.8c0,0.2,0,0.5,0,0.6h-5.1c0.2,1,0.9,1.5,1.8,1.5c0.6,0,1.3-0.3,1.8-0.7l1.1,1.2
						c-0.8,0.8-1.9,1.1-3.1,1.1c-2.2,0-3.7-1.5-3.7-3.8c0-2.3,1.5-3.8,3.6-3.8C292.5,468,294,469.5,294,471.8z M288.9,471.1h3.2
						c-0.2-0.9-0.7-1.4-1.6-1.4C289.5,469.6,289,470.2,288.9,471.1z"/>
					<path id="XMLID_10_" class="st32" d="M301.6,471.8c0,0.2,0,0.5,0,0.6h-5.1c0.2,1,0.9,1.5,1.8,1.5c0.6,0,1.3-0.3,1.8-0.7
						l1.1,1.2c-0.8,0.8-1.9,1.1-3.1,1.1c-2.2,0-3.7-1.5-3.7-3.8c0-2.3,1.5-3.8,3.6-3.8C300.2,468,301.6,469.5,301.6,471.8z
						 M296.5,471.1h3.2c-0.2-0.9-0.7-1.4-1.6-1.4C297.2,469.6,296.7,470.2,296.5,471.1z"/>
					<path id="XMLID_7_" class="st32" d="M310,471.8c0,2.1-1.5,3.8-3.5,3.8c-1,0-1.6-0.4-2.1-0.9v3.7h-1.9v-10.1h1.9v0.8
						c0.5-0.6,1.1-1,2.1-1C308.5,468,310,469.6,310,471.8z M304.3,471.8c0,1.1,0.8,2,1.8,2c1.1,0,1.9-0.9,1.9-2s-0.7-2-1.9-2
						C305,469.8,304.3,470.6,304.3,471.8z"/>
					<path id="XMLID_4_" class="st32" d="M313.1,465.8c0,0.7-0.5,1.2-1.2,1.2c-0.7,0-1.2-0.5-1.2-1.2s0.5-1.2,1.2-1.2
						C312.5,464.6,313.1,465.1,313.1,465.8z M312.8,475.4h-1.9v-7.2h1.9V475.4z"/>
					<path id="XMLID_2_" class="st32" d="M316,470.7l2.7-2.5h2.4l-3.5,3.4l3.5,3.8h-2.4l-2.7-2.9v2.9h-1.9v-10.7h1.9L316,470.7
						L316,470.7z"/>
				</g>
				<g>
					<path class="st32" d="M184.4,475.3v-1c-0.5,0.7-1.4,1.2-2.4,1.2c-1.9,0-3.1-1.4-3.1-3.7c0-2.3,1.3-3.7,3.1-3.7
						c0.9,0,1.8,0.5,2.4,1.3v-3.8h1.1v9.8L184.4,475.3L184.4,475.3z M184.4,473.4v-3.2c-0.4-0.6-1.3-1.1-2.1-1.1
						c-1.4,0-2.3,1.2-2.3,2.7c0,1.6,0.9,2.7,2.3,2.7C183.2,474.5,184,474,184.4,473.4z"/>
					<path class="st32" d="M186.9,471.7c0-2,1.5-3.7,3.5-3.7c2.1,0,3.4,1.7,3.4,3.8v0.3h-5.7c0.1,1.3,1,2.5,2.6,2.5
						c0.8,0,1.6-0.3,2.2-0.9l0.5,0.7c-0.7,0.7-1.6,1.1-2.8,1.1C188.4,475.5,186.9,474,186.9,471.7z M190.4,469
						c-1.5,0-2.3,1.3-2.3,2.4h4.6C192.7,470.3,192,469,190.4,469z"/>
					<path class="st32" d="M194.6,474.4l0.6-0.8c0.5,0.5,1.4,1,2.3,1c1.1,0,1.7-0.5,1.7-1.2c0-1.7-4.4-0.7-4.4-3.3
						c0-1.1,0.9-2,2.6-2c1.2,0,2.1,0.5,2.6,1l-0.5,0.8c-0.4-0.5-1.2-0.9-2.1-0.9c-1,0-1.6,0.5-1.6,1.1c0,1.5,4.4,0.5,4.4,3.3
						c0,1.2-0.9,2.1-2.8,2.1C196.3,475.5,195.3,475.1,194.6,474.4z"/>
					<path class="st32" d="M201.5,466.5c0-0.4,0.3-0.8,0.7-0.8c0.4,0,0.8,0.3,0.8,0.8s-0.3,0.7-0.8,0.7
						C201.8,467.2,201.5,466.9,201.5,466.5z M201.7,475.3v-7.1h1.1v7.1H201.7z"/>
					<path class="st32" d="M204.6,477.1l0.6-0.8c0.6,0.7,1.3,1,2.3,1c1.2,0,2.3-0.6,2.3-2.1v-1c-0.5,0.7-1.4,1.3-2.4,1.3
						c-1.9,0-3.1-1.4-3.1-3.7c0-2.3,1.3-3.7,3.1-3.7c0.9,0,1.8,0.5,2.4,1.3v-1.1h1.1v6.9c0,2.3-1.6,3.1-3.4,3.1
						C206.2,478.2,205.4,477.9,204.6,477.1z M209.7,473.3v-3.1c-0.4-0.6-1.2-1.1-2.1-1.1c-1.4,0-2.3,1.1-2.3,2.7
						c0,1.5,0.9,2.7,2.3,2.7C208.5,474.4,209.3,473.9,209.7,473.3z"/>
					<path class="st32" d="M217.4,475.3v-4.6c0-1.2-0.6-1.6-1.6-1.6c-0.9,0-1.7,0.5-2.1,1.1v5.2h-1.1v-7.1h1.1v1
						c0.5-0.6,1.5-1.2,2.5-1.2c1.5,0,2.3,0.8,2.3,2.3v5L217.4,475.3L217.4,475.3z"/>
					<path class="st32" d="M219.9,471.7c0-2,1.5-3.7,3.5-3.7c2.1,0,3.4,1.7,3.4,3.8v0.3h-5.7c0.1,1.3,1,2.5,2.6,2.5
						c0.8,0,1.6-0.3,2.2-0.9l0.5,0.7c-0.7,0.7-1.7,1.1-2.8,1.1C221.4,475.5,219.9,474,219.9,471.7z M223.4,469
						c-1.5,0-2.3,1.3-2.3,2.4h4.6C225.7,470.3,225,469,223.4,469z"/>
					<path class="st32" d="M233.4,475.3v-1c-0.5,0.7-1.4,1.2-2.4,1.2c-1.9,0-3.1-1.4-3.1-3.7c0-2.3,1.3-3.7,3.1-3.7
						c0.9,0,1.8,0.5,2.4,1.3v-3.8h1.1v9.8L233.4,475.3L233.4,475.3z M233.4,473.4v-3.2c-0.4-0.6-1.3-1.1-2.1-1.1
						c-1.4,0-2.3,1.2-2.3,2.7c0,1.6,0.9,2.7,2.3,2.7C232.1,474.5,232.9,474,233.4,473.4z"/>
					<path class="st32" d="M239.7,475.3v-9.8h1.1v3.8c0.6-0.8,1.4-1.3,2.4-1.3c1.9,0,3.1,1.5,3.1,3.7c0,2.3-1.3,3.7-3.1,3.7
						c-1,0-1.9-0.5-2.4-1.2v1L239.7,475.3L239.7,475.3z M242.9,474.5c1.4,0,2.3-1.2,2.3-2.7c0-1.6-0.9-2.7-2.3-2.7
						c-0.9,0-1.7,0.5-2.1,1.1v3.2C241.2,474,242,474.5,242.9,474.5z"/>
					<path class="st32" d="M247.5,477.1c0.2,0.1,0.4,0.1,0.6,0.1c0.5,0,0.8-0.2,1.1-0.8l0.5-1.1l-3-7.1h1.2l2.4,5.8l2.3-5.8h1.2
						l-3.5,8.5c-0.4,1-1.1,1.4-2.1,1.4c-0.2,0-0.6,0-0.8-0.1L247.5,477.1z"/>
				</g>
			</g>
		</g>
	</g>
</g>
</svg>
