<?xml version="1.0" encoding="utf-8"?>
<!-- Generator: Adobe Illustrator 24.0.0, SVG Export Plug-In . SVG Version: 6.00 Build 0)  -->
<svg version="1.1" xmlns="http://www.w3.org/2000/svg" xmlns:xlink="http://www.w3.org/1999/xlink" x="0px" y="0px"
	 viewBox="0 0 500 500" style="enable-background:new 0 0 500 500;" xml:space="preserve">
<style type="text/css">
	.st0{fill:#FFFFFF;stroke:#000000;stroke-miterlimit:10;}
	.st1{fill:#E0E0E0;}
	.st2{fill:#F5F5F5;}
	.st3{fill:#EBEBEB;}
	.st4{fill:#FFFFFF;}
	.st5{fill:#F0F0F0;}
	.st6{fill:#E6E6E6;}
	.st7{display:none;}
	.st8{display:inline;}
	.st9{fill:#407BFF;}
	.st10{opacity:0.9;fill:#FFFFFF;}
	.st11{fill:#263238;}
	.st12{opacity:0.8;fill:#FFFFFF;}
	.st13{opacity:0.3;}
	.st14{opacity:0.5;}
	.st15{fill:#B66256;}
	.st16{opacity:0.5;fill:#FFFFFF;}
	.st17{opacity:0.6;fill:#FFFFFF;}
	.st18{fill:none;stroke:#000000;stroke-linecap:round;stroke-linejoin:round;stroke-miterlimit:10;}
	.st19{opacity:0.4;fill:#FFFFFF;}
	.st20{fill:#FDBBB5;}
	.st21{opacity:0.2;enable-background:new    ;}
	.st22{fill:none;stroke:#263238;stroke-miterlimit:10;}
	.st23{opacity:0.1;}
	.st24{fill:#D7504D;}
	.st25{fill:#962B19;}
	.st26{opacity:0.2;fill:none;stroke:#000000;stroke-width:0.75;stroke-linecap:round;stroke-linejoin:round;stroke-miterlimit:10;}
	.st27{fill:#B97964;}
</style>
<g id="Layer_8">
	<rect x="-23.79" y="-8.71" class="st0" width="541.27" height="541.27"/>
</g>
<g id="Background_complete">
	<g>
		<g>
			<rect x="264.44" y="97.9" class="st1" width="84.81" height="112.63"/>
			<rect x="266.44" y="99.9" class="st2" width="80.81" height="108.63"/>
			<rect x="266.44" y="99.9" class="st3" width="80.81" height="27"/>
			<rect x="266.44" y="151.88" class="st3" width="80.81" height="29.69"/>
			
				<ellipse transform="matrix(0.1598 -0.9872 0.9872 0.1598 167.7711 421.5025)" class="st4" cx="331.49" cy="112.2" rx="8.18" ry="8.18"/>
			
				<ellipse transform="matrix(0.9924 -0.1234 0.1234 0.9924 -15.0489 35.4825)" class="st4" cx="278.9" cy="139.22" rx="8.18" ry="8.18"/>
			<path class="st4" d="M329.33,160.5c4.17-1.73,8.96,0.25,10.69,4.43c1.73,4.17-0.25,8.96-4.43,10.69
				c-4.17,1.73-8.96-0.25-10.69-4.43C323.17,167.01,325.15,162.23,329.33,160.5z"/>
			
				<ellipse transform="matrix(0.1598 -0.9872 0.9872 0.1598 42.585 440.1652)" class="st4" cx="279.86" cy="195.07" rx="8.18" ry="8.18"/>
		</g>
		<rect x="361.06" y="64.82" class="st1" width="87.82" height="111.57"/>
		<rect x="363.07" y="66.82" class="st2" width="83.82" height="107.57"/>
		<path class="st4" d="M425.29,117.25c-3.25,3.59-4.06-3.54-4.06-3.54l-9.29-15.78l-2,16.2l7,50.2c0,0,6.4,1.9,6.81,3
			c0.41,1.1-11,1.36-12.18,0c-1.18-1.36,1.22-3,1.22-3l-8.79-41.5l-0.14,0.66l-8.66,40.85c0,0,2.43,1.62,1.21,3s-12.61,1-12.21,0
			c0.4-1,6.8-3,6.8-3l7-50.2l-2-16.2l-9.29,15.78c0,0-0.81,7.13-4.06,3.54c-3.25-3.59,2.44-6.83,2.44-6.83L395.2,92.9l5.57-1.93
			l1.23-1.55c0,0-7.15-12.83,1.85-13.08l0,0h0.27l0,0c9,0.25,1.86,13.08,1.86,13.08l1.23,1.55l5.57,1.93l10.1,17.52
			C422.88,110.42,428.53,113.67,425.29,117.25z"/>
		<path class="st1" d="M403.82,76.34v47.15l-8.62,40.85c0,0,2.43,1.62,1.21,3s-12.61,1-12.21,0c0.4-1,6.8-3,6.8-3l7-50.2l-2-16.2
			l-9.29,15.78c0,0-0.81,7.13-4.06,3.54c-3.25-3.59,2.44-6.83,2.44-6.83L395.2,92.9l5.57-1.93l1.23-1.55
			C402,89.42,394.82,76.59,403.82,76.34z"/>
		<rect x="422.35" y="79.34" class="st1" width="11.6" height="4.52"/>
		<rect x="426.29" y="99.68" class="st1" width="11.6" height="4.52"/>
		<rect x="371.19" y="121.02" class="st1" width="11.6" height="4.52"/>
		<rect x="375.83" y="79.17" class="st1" width="11.6" height="4.52"/>
		<rect x="422.35" y="128.53" class="st1" width="11.6" height="4.52"/>
		<rect x="374.37" y="145.83" class="st1" width="11.6" height="4.52"/>
		<rect x="428.16" y="150.35" class="st1" width="11.6" height="4.52"/>
	</g>
	<g>
		<g>
			<g>
				<g>
					<path class="st1" d="M443.92,312.56H263.17c-3.23,0-5.86-2.63-5.86-5.86V43.42c0-3.23,2.63-5.86,5.86-5.86h180.75
						c3.23,0,5.86,2.63,5.86,5.86v263.27C449.78,309.93,447.15,312.56,443.92,312.56z M263.17,37.81c-3.09,0-5.61,2.52-5.61,5.61
						v263.27c0,3.09,2.52,5.61,5.61,5.61h180.75c3.09,0,5.61-2.52,5.61-5.61V43.42c0-3.09-2.52-5.61-5.61-5.61H263.17z"/>
				</g>
			</g>
			<g>
				<g>
					<path class="st1" d="M235.49,312.56H54.75c-3.23,0-5.86-2.63-5.86-5.86V43.42c0-3.23,2.63-5.86,5.86-5.86h180.75
						c3.23,0,5.86,2.63,5.86,5.86v263.27C241.35,309.93,238.73,312.56,235.49,312.56z M54.75,37.81c-3.09,0-5.61,2.52-5.61,5.61
						v263.27c0,3.09,2.52,5.61,5.61,5.61h180.75c3.09,0,5.61-2.52,5.61-5.61V43.42c0-3.09-2.52-5.61-5.61-5.61H54.75z"/>
				</g>
			</g>
		</g>
		<g>
			<g>
				<g>
					<rect x="0" y="352.53" class="st1" width="500" height="0.25"/>
				</g>
			</g>
			<rect x="51.67" y="366.79" class="st1" width="16.06" height="0.25"/>
			<rect x="170.35" y="364.08" class="st1" width="53.53" height="0.25"/>
			<rect x="68.73" y="376.08" class="st1" width="36.25" height="0.25"/>
			<rect x="378.35" y="363.95" class="st1" width="43.19" height="0.25"/>
			<rect x="430.45" y="363.95" class="st1" width="6.33" height="0.25"/>
			<rect x="316.21" y="370.18" class="st1" width="53.89" height="0.25"/>
		</g>
	</g>
	<g>
		<g>
			<g>
				<path class="st1" d="M434.12,327.65c-0.02-0.49-1.65-48.69-9.49-56.31c-7.63-7.41-16.38-0.28-16.75,0.03l-0.79-0.94
					c0.1-0.08,9.98-8.15,18.39,0.03c8.19,7.97,9.8,55.15,9.86,57.15L434.12,327.65z"/>
			</g>
			<g>
				<path class="st1" d="M434.79,337.12c-0.06-0.58-5.36-57.87,15.56-81.88l0.93,0.81c-20.58,23.61-15.32,80.38-15.27,80.95
					L434.79,337.12z"/>
			</g>
			<g>
				<path class="st1" d="M434.02,331.06l-1.22-0.08c0.04-0.65,4.09-65.13-11.25-79.25l0.83-0.9
					C438.15,265.34,434.19,328.39,434.02,331.06z"/>
			</g>
			<g>
				<path class="st1" d="M436.01,331.03l-1.23-0.01c0.01-1.78,0.51-43.55,12.37-50.36c2.64-1.51,5.22-1.77,7.68-0.75
					c7.18,2.97,10.73,15.74,10.88,16.28l-1.18,0.32c-0.03-0.13-3.55-12.73-10.17-15.47c-2.09-0.86-4.31-0.63-6.6,0.68
					C436.51,288.18,436.02,330.6,436.01,331.03z"/>
			</g>
			<g>
				<path class="st1" d="M431.39,331.06l-1.22-0.07c0.02-0.33,1.79-33.02-7.03-44.53c-2.14-2.79-4.46-4.12-6.91-3.95
					c-5.78,0.4-10.63,8.86-10.67,8.95l-1.07-0.6c0.21-0.37,5.22-9.12,11.66-9.57c2.88-0.2,5.57,1.29,7.97,4.43
					C433.21,297.59,431.47,329.7,431.39,331.06z"/>
			</g>
			<g>
				<path class="st1" d="M433.33,335.5c-0.24-3.17-5.77-77.8,3.96-90.95l0.99,0.73c-9.45,12.79-3.78,89.36-3.72,90.13L433.33,335.5z
					"/>
			</g>
		</g>
		<g>
			<path class="st3" d="M457.48,287.48c0,0-5.83,2.15-4.1,7.23c1.73,5.08,20.18,13.43,20.18,13.43s7.73-7.08,0.63-18.6
				C467.1,278.02,457.64,283.84,457.48,287.48z"/>
		</g>
		<g>
			<path class="st3" d="M432.13,277.81c0,0,6.21-0.26,6.56,5.09c0.35,5.35-13.46,20.16-13.46,20.16s-9.86-3.56-7.74-16.92
				C419.61,272.79,430.58,274.52,432.13,277.81z"/>
		</g>
		<g>
			<path class="st3" d="M426.87,252.19c0,0,4.14-0.44,3.81-2.97c-0.33-2.52-16.1-9.01-25.4,1.48c0,0,5.96,10.23,14.57,10.36
				C428.45,261.2,426.87,252.19,426.87,252.19z"/>
		</g>
		<g>
			<path class="st3" d="M434.58,246.06c0,0-3.75,1.81-4.8-0.5c-1.05-2.32,8.9-16.17,22.34-12.18c0,0,0.36,11.83-6.88,16.5
				C438.01,254.55,434.58,246.06,434.58,246.06z"/>
		</g>
		<g>
			<path class="st3" d="M414.98,285.44c0,0,2.86-2.31-0.23-3.43c-3.08-1.13-18.22-0.81-18.38,14.19c0,0,17.63,2.93,19.81-2.78
				C418.36,287.7,414.98,285.44,414.98,285.44z"/>
		</g>
		<g>
			<path class="st3" d="M450.92,251.81c0,0-2.86-2.31,0.23-3.43c3.08-1.13,18.22-0.81,18.38,14.19c0,0-17.63,2.93-19.81-2.78
				C447.53,254.07,450.92,251.81,450.92,251.81z"/>
		</g>
		<g>
			<path class="st3" d="M441.6,263.89c0,0-0.25-2.81,2.01-1.71c2.26,1.1,10.15,9.61,1.98,17.69c0,0-11.01-8.15-9.02-12.4
				C438.55,263.22,441.6,263.89,441.6,263.89z"/>
		</g>
		<g>
			<path class="st3" d="M412.42,267.88c0,0,1.71-2.24-0.79-2.52c-2.5-0.28-13.72,2.72-11.1,13.91c0,0,13.66-1.03,14.25-5.68
				C415.35,268.95,412.42,267.88,412.42,267.88z"/>
		</g>
		<polygon class="st5" points="447.5,352.65 419.94,352.65 412.61,318.84 454.13,318.84 		"/>
		<rect x="410.11" y="318.35" class="st6" width="46.41" height="9.72"/>
	</g>
	<g>
		<rect x="71.21" y="47.98" class="st1" width="147.83" height="191.68"/>
		<rect x="77.71" y="54.7" class="st2" width="135.2" height="178.6"/>
		<polygon class="st4" points="115.92,54.7 77.71,203.04 77.71,122.73 95.2,54.7 		"/>
		<polygon class="st4" points="133,54.7 92.7,233.3 85.1,233.3 125.4,54.7 		"/>
		<polygon class="st4" points="212.92,97.37 212.92,177.69 204.36,233.3 183.63,233.3 		"/>
		<rect x="142.49" y="47.98" class="st1" width="5.25" height="191.68"/>
		<rect x="73.77" y="76.58" class="st1" width="142.42" height="4.52"/>
	</g>
</g>
<g id="Background_simple" class="st7">
	<g class="st8">
		<path class="st9" d="M180.76,37.95c-23.97,2.61-47.08,8.18-67.58,16.91c-24.16,10.29-48.84,26.32-41.55,47.29
			c13.46,38.71,78.03,39.42,65.14,65.45c-14.6,29.49-4.81,64.07,60.72,73.69c124.46,18.27,274.92-88.62,232.66-147.36
			C403.83,57.37,308.02,24.06,180.76,37.95z"/>
		<path class="st10" d="M180.76,37.95c-23.97,2.61-47.08,8.18-67.58,16.91c-24.16,10.29-48.84,26.32-41.55,47.29
			c13.46,38.71,78.03,39.42,65.14,65.45c-14.6,29.49-4.81,64.07,60.72,73.69c124.46,18.27,274.92-88.62,232.66-147.36
			C403.83,57.37,308.02,24.06,180.76,37.95z"/>
	</g>
</g>
<g id="Shadow">
	<g>
		<g>
			<path class="st2" d="M464.87,460.61c0,10.13-96.2,18.35-214.87,18.35s-214.87-8.22-214.87-18.35c0-10.14,96.2-18.35,214.87-18.35
				S464.87,450.48,464.87,460.61z"/>
		</g>
	</g>
</g>
<g id="Bed">
	<g>
		<rect x="70.33" y="336.24" class="st11" width="293.88" height="6.3"/>
		<rect x="70.33" y="336.24" class="st12" width="293.88" height="6.3"/>
		<rect x="66.34" y="289.6" class="st11" width="7.98" height="162.27"/>
		<rect x="66.34" y="289.6" class="st12" width="7.98" height="162.27"/>
		<rect x="359.05" y="289.6" class="st11" width="7.98" height="162.27"/>
		<rect x="359.05" y="289.6" class="st12" width="7.98" height="162.27"/>
		<path class="st9" d="M374.34,269.06H52.06c-2.62,0-4.75,2.12-4.75,4.75v8.83c0,2.62,2.12,4.75,4.75,4.75h322.28
			c2.62,0,4.75-2.12,4.75-4.75v-8.83C379.08,271.19,376.96,269.06,374.34,269.06z"/>
		<path class="st13" d="M374.34,269.06H52.06c-2.62,0-4.75,2.12-4.75,4.75v8.83c0,2.62,2.12,4.75,4.75,4.75h322.28
			c2.62,0,4.75-2.12,4.75-4.75v-8.83C379.08,271.19,376.96,269.06,374.34,269.06z"/>
		<rect x="43.97" y="282.62" class="st11" width="341.85" height="9.54"/>
		<rect x="43.97" y="282.62" class="st12" width="341.85" height="9.54"/>
		<g>
			<g>
				<path class="st11" d="M385.82,291.41c-3.23,0-6.46,0-9.7,0c-8.37,0-16.74,0-25.11,0c-12.21,0-24.42,0-36.62,0
					c-14.83,0-29.66,0-44.49,0c-16.22,0-32.44,0-48.65,0c-16.42,0-32.85,0-49.27,0c-15.28,0-30.55,0-45.83,0
					c-12.95,0-25.9,0-38.85,0c-9.39,0-18.77,0-28.16,0c-4.59,0-9.17,0-13.76,0c-0.25,0-0.5,0-0.75,0c-0.97,0-0.97,1.5,0,1.5
					c3.23,0,6.46,0,9.7,0c8.37,0,16.74,0,25.11,0c12.21,0,24.42,0,36.62,0c14.83,0,29.66,0,44.49,0c16.22,0,32.43,0,48.65,0
					c16.42,0,32.85,0,49.27,0c15.28,0,30.55,0,45.83,0c12.95,0,25.9,0,38.85,0c9.39,0,18.77,0,28.16,0c4.59,0,9.17,0,13.76,0
					c0.25,0,0.5,0,0.75,0C386.78,292.91,386.78,291.41,385.82,291.41L385.82,291.41z"/>
			</g>
		</g>
		<rect x="356.06" y="336.24" class="st13" width="2.98" height="6.19"/>
		<rect x="74.32" y="336.24" class="st13" width="3.59" height="6.3"/>
	</g>
</g>
<g id="Plant">
	<g>
		<g>
			<path class="st9" d="M435.68,401.06c2.83,0.4,5.75-0.44,8.19-1.94c2.44-1.49,4.45-3.6,6.22-5.86c4.68-5.99,7.8-13.19,8.95-20.7
				c0.25-1.61,0.4-3.28,0-4.85c-0.4-1.58-1.45-3.08-2.99-3.62c-2.3-0.81-4.73,0.67-6.6,2.23c-8.48,7.08-14.16,17.42-15.59,28.38
				C433.51,397.39,433.89,400.13,435.68,401.06"/>
		</g>
		<g>
			<path class="st9" d="M419.11,387.32c2.35-4.88,2.52-10.67,0.97-15.86c-1.55-5.19-4.75-9.8-8.7-13.51
				c-4.34-4.06-9.9-7.18-15.84-7.22c-2.53-0.01-5.28,0.67-6.83,2.67c-1.66,2.13-1.52,5.16-0.79,7.75c1.19,4.25,3.71,8.04,6.73,11.26
				c3.01,3.23,6.52,5.95,10.03,8.64c3.95,3.03,8.21,6.17,13.17,6.55"/>
		</g>
		<g>
			<path class="st9" d="M418.76,403.79c-0.7-5.49-4.96-10.02-9.94-12.42c-4.98-2.4-10.63-2.99-16.15-3.26
				c-1.23-0.06-2.49-0.11-3.66,0.26c-1.18,0.37-2.27,1.22-2.59,2.41c-0.41,1.56,0.58,3.12,1.61,4.36
				c6.05,7.26,15.52,11.55,24.97,11.31c1.09-0.03,2.21-0.12,3.22-0.54c1.01-0.42,1.91-1.22,2.22-2.27"/>
		</g>
		<g>
			<g>
				<path class="st11" d="M454.48,367.91c-9.62,14.57-18.05,29.92-25.16,45.86c-1.99,4.45-3.87,8.95-5.65,13.49
					c-0.18,0.45,0.55,0.64,0.72,0.2c6.35-16.15,14-31.77,22.89-46.67c2.52-4.23,5.14-8.39,7.85-12.5
					C455.4,367.88,454.75,367.51,454.48,367.91L454.48,367.91z"/>
			</g>
		</g>
		<g>
			<g>
				<path class="st11" d="M425.57,423.83c0.33-10.09-0.49-20.29-3.36-30.01c-2.83-9.59-7.7-18.47-14.37-25.92
					c-4.18-4.67-8.99-8.73-14.16-12.27c-0.4-0.27-0.77,0.38-0.38,0.65c8.81,6.04,16.48,13.69,21.86,22.96
					c4.94,8.51,7.8,18.06,8.99,27.79c0.69,5.57,0.85,11.2,0.67,16.81C424.8,424.31,425.55,424.31,425.57,423.83L425.57,423.83z"/>
			</g>
		</g>
		<g>
			<g>
				<path class="st11" d="M425.04,409.6c-7.89-9.17-18.95-15.57-30.87-17.69c-0.47-0.08-0.67,0.64-0.2,0.72
					c11.81,2.1,22.72,8.41,30.54,17.5C424.83,410.5,425.36,409.97,425.04,409.6L425.04,409.6z"/>
			</g>
		</g>
		<g>
			<path class="st9" d="M407.19,430.97V419.1h16.54h16.54v11.87c0,0,0.64,20.99-11.03,22.9h-5.51h-5.51
				C406.56,451.96,407.19,430.97,407.19,430.97z"/>
			<path class="st14" d="M407.19,430.97V419.1h16.54h16.54v11.87c0,0,0.64,20.99-11.03,22.9h-5.51h-5.51
				C406.56,451.96,407.19,430.97,407.19,430.97z"/>
		</g>
	</g>
</g>
<g id="Speech_Bubble">
	<g>
		<g>
			<g>
				<path class="st9" d="M219.41,71.39c-8.41-8.78-8.11-22.72,0.68-31.12c8.78-8.41,22.72-8.11,31.12,0.68
					c6.49,6.78,7.77,16.62,3.98,24.63l2.58,6.09l-6.98,0.14c-0.09,0.09-0.16,0.18-0.25,0.27C241.76,80.47,227.82,80.17,219.41,71.39
					z"/>
			</g>
			<g>
				<g>
					<path class="st9" d="M213.41,68.96c3.11,6.59,9.58,11.37,16.79,12.38c0.47,0.07,0.68-0.66,0.2-0.72
						c-7.05-0.99-13.31-5.6-16.35-12.04C213.85,68.15,213.2,68.53,213.41,68.96L213.41,68.96z"/>
				</g>
			</g>
			<g>
				<g>
					<path class="st9" d="M233.47,81.66c1.14,0.24,2.31,0.24,3.45,0.01c0.2-0.04,0.31-0.28,0.26-0.46c-0.06-0.21-0.26-0.3-0.46-0.26
						c-1,0.2-2.05,0.2-3.05-0.01c-0.2-0.04-0.41,0.06-0.46,0.26C233.16,81.39,233.27,81.62,233.47,81.66L233.47,81.66z"/>
				</g>
			</g>
		</g>
		<g>
			<polygon class="st4" points="233.52,64.24 224.23,55.76 227.19,52.51 233.42,58.2 243.77,48.09 246.84,51.23 			"/>
		</g>
	</g>
</g>
<g id="Characters">
	<g>
		<path class="st15" d="M218.82,157.14c0.57,0,18.04,2.48,21.48-1.1c3.44-3.58,7.61-21,7.61-21l14.93,4.06
			c0,0-7.08,27.97-12.81,31.41c-5.73,3.44-33.34-2.78-33.34-2.78L218.82,157.14z"/>
		<g>
			<path class="st9" d="M323.09,329.55c-1.75-17.51-5.47-120.95-5.47-120.95l-70.69-5.31c0,0-4.25,28.92-3.29,75.32l0,0
				c0,0-2.85,125.93-0.02,160.61l25.84-0.17c0.73-21.95,5.83-108.53,5.83-108.53c1.62-14.73,5.35-54.3,6.51-66.71
				c0.48-2.75,0.96-5.52,1.42-8.27c4.6,13.46,8.15,71.44,9.78,79.69c1.87,9.47,9.66,110.53,9.66,110.53l26.93-0.61
				C329.59,445.15,324.84,347.06,323.09,329.55z"/>
			<g class="st13">
				<g>
					<path class="st11" d="M261.25,240.66c-0.53,8.85-0.69,17.73-0.92,26.59c-0.38,14.63-0.7,29.26-1,43.89
						c-0.35,16.7-0.69,33.4-1.03,50.11c-0.31,15.08-0.63,30.15-1.01,45.23c-0.24,9.76-0.45,19.52-0.93,29.27
						c-0.03,0.64-0.07,1.28-0.11,1.92c-0.03,0.48,0.72,0.48,0.75,0c0.53-8.85,0.69-17.73,0.92-26.59c0.38-14.63,0.7-29.26,1-43.89
						c0.35-16.7,0.69-33.4,1.03-50.11c0.31-15.08,0.63-30.15,1.01-45.23c0.24-9.76,0.45-19.52,0.93-29.27
						c0.03-0.64,0.07-1.28,0.1-1.92C262.03,240.18,261.28,240.18,261.25,240.66L261.25,240.66z"/>
				</g>
			</g>
			<g class="st13">
				<g>
					<path class="st11" d="M301.41,241.14c0.49,5.94,0.93,11.88,1.38,17.82c0.71,9.34,1.41,18.68,2.12,28.02
						c0.75,9.84,1.51,19.67,2.3,29.51c0.6,7.44,1.19,14.87,1.92,22.3c0.26,2.62,0.54,5.23,0.76,7.85
						c0.46,5.28,0.92,10.55,1.38,15.83c0.68,7.77,1.36,15.54,2.03,23.32c0.73,8.33,1.45,16.66,2.18,25
						c0.61,6.96,1.21,13.91,1.82,20.87c0.32,3.64,0.64,7.29,0.95,10.93c0.01,0.17,0.03,0.33,0.04,0.5c0.04,0.48,0.79,0.48,0.75,0
						c-0.22-2.54-0.44-5.08-0.66-7.61c-0.55-6.32-1.1-12.65-1.65-18.97c-0.71-8.17-1.43-16.35-2.14-24.52
						c-0.71-8.09-1.41-16.18-2.12-24.27c-0.53-6.07-1.06-12.14-1.59-18.2c-0.21-2.45-0.4-4.91-0.67-7.36
						c-0.71-6.39-1.21-12.8-1.74-19.2c-0.79-9.51-1.53-19.03-2.26-28.55c-0.75-9.73-1.48-19.46-2.22-29.19
						c-0.53-7.04-1.05-14.09-1.61-21.13c-0.08-0.99-0.16-1.97-0.24-2.95C302.12,240.67,301.37,240.66,301.41,241.14L301.41,241.14z"
						/>
				</g>
			</g>
			<path class="st13" d="M244.96,223.51l73.28,1.3l0.13,3.49c-27.43,2.14-52.76,2.78-73.8,0.35L244.96,223.51z"/>
		</g>
		<g>
			<path class="st9" d="M275.15,106.91c0,0,23.56-2.57,40.8,10.72c13.04,10.05,12.15,12.41,12.15,12.41l-11.02,50.57l2.99,44.43
				c0,0-75.17,3.26-76.18-1.96s12.4-80.12,12.4-80.12S265.68,108.4,275.15,106.91z"/>
			<path class="st13" d="M243.95,220.12l18.68-9.9c0,0,7.29,2.7,13.97-5.02l42.3,3.17l-0.19-6.98l-57.97-5.16l-16.55,12.46
				l0.21,6.56L243.95,220.12C243.95,220.12,244.06,220.12,243.95,220.12z"/>
			
				<rect x="289.24" y="149.21" transform="matrix(0.9539 0.3 -0.3 0.9539 59.092 -82.0932)" class="st4" width="15.29" height="4.35"/>
			<g class="st13">
				<g>
					<path class="st11" d="M283.82,107.34c-1.89,7.23-3.79,14.46-5.68,21.7c-0.27,1.03-0.54,2.06-0.81,3.09
						c-0.08,0.32,0.26,0.58,0.55,0.42c10.94-6.08,22.03-11.97,33.33-17.34c0.44-0.21,0.06-0.85-0.38-0.65
						c-11.31,5.37-22.39,11.26-33.33,17.34c0.18,0.14,0.37,0.28,0.55,0.42c1.89-7.23,3.79-14.46,5.68-21.7
						c0.27-1.03,0.54-2.06,0.81-3.09C284.66,107.08,283.94,106.88,283.82,107.34L283.82,107.34z"/>
				</g>
			</g>
		</g>
		<path class="st15" d="M192.45,157.38c0,0-2.1-0.67-0.41-1.82c1.69-1.15,14.67-0.88,15.98-1.56c1.31-0.69-0.09-2.39-1.34-3.87
			c-1.25-1.49-2.95-4.6-0.43-3.6c2.52,1,4.72,3.06,8,4.62c2.38,1.13,3.99,4.76,4.58,6l7.55,1.47l-1.71,10.84l-7.73-2.07
			c-2.11-0.17-3.65,0.23-5.52,0.48c-3.18,0.41-9.4-0.15-12.55-0.04c-3.43,0.12-7.23-0.42-6.27-1.83c0.97-1.41,7.03-0.86,7.03-0.86
			c-0.43-0.32-10.98-0.94-11.2-2.25c-0.15-0.92,0.53-1.8,2.19-1.97c1.27-0.12,9.78,0.1,10.17,0.15c0,0-6.85-0.65-10.1-1.11
			c-1.44-0.21-1.79-1.06-1.71-1.37C189.3,157.39,192.45,157.38,192.45,157.38z"/>
		<g>
			<path class="st11" d="M262.46,430.2c0,0-0.45,16.62-0.32,17.08l1.71,9.24c0.25,0.84-0.22,1.73-1.07,1.98
				c-0.15,0.05-0.3,0.07-0.46,0.07c-4.51,0.06-6.65,0.09-12.27,0.16l-17.18,0.23c-4.68,0.06-5.72-4.65-3.79-5.11
				c8.65-2.03,16.94-5.95,19.59-8.51l-1.36-16.23L262.46,430.2z"/>
			<path class="st9" d="M264.54,456.9c0.27,0.88-0.24,1.82-1.12,2.08c-0.16,0.05-0.32,0.07-0.48,0.07
				c-4.74,0.06-6.99,0.09-12.89,0.17l-18.06,0.24c-4.92,0.07-6.01-4.88-3.99-5.37c9.09-2.14,17.8-6.26,20.58-8.95l4.21,9.62
				L264.54,456.9z"/>
			<g>
				<g>
					<path class="st11" d="M264.29,456.77c-12.04,0.01-24.08,0.49-36.13,0.5c-0.48,0-0.48,0.75,0,0.75
						c12.04-0.01,24.08-0.49,36.13-0.5C264.77,457.52,264.77,456.77,264.29,456.77L264.29,456.77z"/>
				</g>
			</g>
		</g>
		<g>
			<path class="st11" d="M308.52,436.74c0,0,1.95,11.78,1.82,12.24l-1.75,9.43c-0.26,0.86,0.23,1.76,1.09,2.02
				c0.15,0.05,0.31,0.07,0.47,0.07c4.6,0.06,6.78,0.09,12.52,0.17l17.53,0.23c4.78,0.06,5.83-4.74,3.87-5.21
				c-8.82-2.07-17.28-6.07-19.98-8.68l-0.38-13.92L308.52,436.74z"/>
			<path class="st9" d="M307.88,458.79c-0.27,0.9,0.24,1.85,1.14,2.12c0.16,0.05,0.33,0.07,0.49,0.07c4.84,0.06,7.13,0.1,13.15,0.18
				l18.42,0.25c5.02,0.07,6.13-4.98,4.07-5.47c-9.27-2.18-18.15-6.38-20.99-9.13l-4.3,9.81L307.88,458.79z"/>
			<g>
				<g>
					<path class="st11" d="M308.14,459.42c12.29,0.01,24.57,0.5,36.85,0.51c0.48,0,0.48-0.75,0-0.75
						c-12.29-0.01-24.57-0.5-36.85-0.51C307.66,458.67,307.66,459.42,308.14,459.42L308.14,459.42z"/>
				</g>
			</g>
		</g>
		<g>
			<path class="st9" d="M227.11,186.35c0,0,5.29,11.04,7.43,11.07c2.31,0.03,20.52-7.76,21.64-6.82c1.12,0.95,5.44,15.09,5.44,16.47
				s-28.78,18.41-32.98,16.96C224.45,222.59,227.11,186.35,227.11,186.35z"/>
			<path class="st16" d="M227.11,186.35c0,0,5.29,11.04,7.43,11.07c2.31,0.03,20.52-7.76,21.64-6.82
				c1.12,0.95,5.44,15.09,5.44,16.47s-28.78,18.41-32.98,16.96C224.45,222.59,227.11,186.35,227.11,186.35z"/>
			<path class="st9" d="M208.33,149.82c1.29,0.87,11.15,4.71,15.71,15.03c4.56,10.33,7.83,68.22,6.36,93.82
				c-1.47,25.6-12.32,24.87-22.45,23.92l-27.06-5.61l9.91-129.48L208.33,149.82z"/>
			<path class="st17" d="M208.33,149.82c1.29,0.87,11.15,4.71,15.71,15.03c4.56,10.33,7.83,68.22,6.36,93.82
				c-1.47,25.6-12.32,24.87-22.45,23.92l-27.06-5.61l9.91-129.48L208.33,149.82z"/>
		</g>
		<g>
			<g>
				<path class="st11" d="M161.18,430.2c0,0,0.45,16.62,0.32,17.08l-1.71,9.24c-0.25,0.84,0.22,1.73,1.07,1.98
					c0.15,0.05,0.3,0.07,0.46,0.07c4.51,0.06,6.65,0.09,12.27,0.16l17.18,0.23c4.68,0.06,5.72-4.65,3.79-5.11
					c-8.65-2.03-16.94-5.95-19.59-8.51l1.36-16.23L161.18,430.2z"/>
				<path class="st9" d="M159.1,456.9c-0.27,0.88,0.24,1.82,1.12,2.08c0.16,0.05,0.32,0.07,0.48,0.07
					c4.74,0.06,6.99,0.09,12.89,0.17l18.06,0.24c4.92,0.07,6.01-4.88,3.99-5.37c-9.09-2.14-17.8-6.26-20.58-8.95l-4.21,9.62
					L159.1,456.9z"/>
				<path class="st17" d="M159.1,456.9c-0.27,0.88,0.24,1.82,1.12,2.08c0.16,0.05,0.32,0.07,0.48,0.07
					c4.74,0.06,6.99,0.09,12.89,0.17l18.06,0.24c4.92,0.07,6.01-4.88,3.99-5.37c-9.09-2.14-17.8-6.26-20.58-8.95l-4.21,9.62
					L159.1,456.9z"/>
				<g>
					<g>
						<path class="st11" d="M159.36,457.52c12.04,0.01,24.08,0.49,36.13,0.5c0.48,0,0.48-0.75,0-0.75
							c-12.04-0.01-24.08-0.49-36.13-0.5C158.87,456.77,158.87,457.52,159.36,457.52L159.36,457.52z"/>
					</g>
				</g>
			</g>
			<path class="st13" d="M161.53,446.74c0.04-0.08,0-1.27,0-1.27l14.01,0.1l1.35,1L161.53,446.74z"/>
		</g>
		<g>
			<g>
				<path class="st11" d="M202.25,430.2c0,0,0.45,16.62,0.32,17.08l-1.71,9.24c-0.25,0.84,0.22,1.73,1.07,1.98
					c0.15,0.05,0.3,0.07,0.46,0.07c4.51,0.06,6.65,0.09,12.27,0.16l17.18,0.23c4.68,0.06,5.72-4.65,3.79-5.11
					c-8.65-2.03-16.94-5.95-19.59-8.51l1.36-16.23L202.25,430.2z"/>
				<path class="st9" d="M200.17,456.9c-0.27,0.88,0.24,1.82,1.12,2.08c0.16,0.05,0.32,0.07,0.48,0.07
					c4.74,0.06,6.99,0.09,12.89,0.17l18.06,0.24c4.92,0.07,6.01-4.88,3.99-5.37c-9.09-2.14-17.8-6.26-20.58-8.95l-4.21,9.62
					L200.17,456.9z"/>
				<path class="st17" d="M200.17,456.9c-0.27,0.88,0.24,1.82,1.12,2.08c0.16,0.05,0.32,0.07,0.48,0.07
					c4.74,0.06,6.99,0.09,12.89,0.17l18.06,0.24c4.92,0.07,6.01-4.88,3.99-5.37c-9.09-2.14-17.8-6.26-20.58-8.95l-4.21,9.62
					L200.17,456.9z"/>
				<g>
					<g>
						<path class="st11" d="M200.43,457.52c12.04,0.01,24.08,0.49,36.13,0.5c0.48,0,0.48-0.75,0-0.75
							c-12.04-0.01-24.08-0.49-36.13-0.5C199.94,456.77,199.94,457.52,200.43,457.52L200.43,457.52z"/>
					</g>
				</g>
			</g>
			<polygon class="st13" points="202.31,448.71 202.57,447.27 202.59,445.64 216.43,445.43 218.89,447.17 			"/>
		</g>
		<g>
			<path class="st11" d="M183.03,238.12c0.25,3.22,30.54,5.78,30.54,5.78s16.27,76.43,16,95.19c-0.27,18.76-4.32,106.23-4.32,106.23
				l-27.52,0.32c0,0-1.65-92.93-2.88-102.4c-2.13-16.39-18.26-66.87-18.26-66.87L183.03,238.12z"/>
			<path class="st13" d="M192.47,271.83c-0.4,0.34-4.4,16.22-3.86,16.56c0.53,0.34,2.04,35.72,2.04,35.72l-4.33-16.23l-1.58-22.66
				L192.47,271.83z"/>
			<path class="st11" d="M150.03,224.81c-1.15,2.19-7.82,29.46-9.32,49.14c-0.49,6.41,2.05,14.61,3.78,26.38
				c3.59,24.38,8.44,55.68,8.91,59.13c0.7,5.13,2.79,85.97,2.79,85.97l29.22,0.21c0,0,4.1-82.16,3.01-97.89
				c-1.61-23.29-4.14-63.07-4.03-64.18c0.92-8.94,8.06-48.44,8.06-48.44l-39.29-10.13"/>
			<path class="st18" d="M192.47,270.99l-7.73,14.22c0,0,3.38,60.53,3.7,65.37l-3.18,94.57"/>
		</g>
		<g>
			<path class="st9" d="M207.53,149.17c0,0,0.3,0.22,0.8,0.65c2.25,1.9,4.45,4.73,8.03,13.35c4.4,10.58,5.1,15.22,2.95,40.1
				c-1.71,19.8-4.99,43.93-4.99,43.93c-13.78,5.44-29.95,5.48-46.67-3.23l18.41-97.64l2.47-3.55L207.53,149.17z"/>
			<path class="st12" d="M207.53,149.17c0,0,0.3,0.22,0.8,0.65c2.25,1.9,4.45,4.73,8.03,13.35c4.4,10.58,5.1,15.22,2.95,40.1
				c-1.71,19.8-4.99,43.93-4.99,43.93c-13.78,5.44-29.95,5.48-46.67-3.23l18.41-97.64l2.47-3.55L207.53,149.17z"/>
		</g>
		<g>
			<g>
				<circle class="st11" cx="181.88" cy="121.96" r="9.19"/>
				<circle class="st19" cx="181.88" cy="121.96" r="9.19"/>
			</g>
			<g class="st13">
				<g>
					<path class="st4" d="M173.9,125.6c2.1-2.4,5.03-4.01,8.2-4.43c0.47-0.06,0.48-0.81,0-0.75c-3.36,0.45-6.49,2.09-8.73,4.65
						C173.06,125.43,173.58,125.96,173.9,125.6L173.9,125.6z"/>
				</g>
			</g>
			<path class="st11" d="M216.15,92.65c-5.69-3.04-10,3.51-10,3.51c-12.22-8.65-29.08,8.4-22.98,26.77
				c3.7,11.13,10.02,17.73,10.02,17.73l31.58-4.34c0,0,0.18-0.26,0.48-0.73C228.11,131.08,248.23,109.81,216.15,92.65z"/>
			<path class="st19" d="M216.15,92.65c-5.69-3.04-10,3.51-10,3.51c-12.22-8.65-29.08,8.4-22.98,26.77
				c3.7,11.13,10.02,17.73,10.02,17.73l31.58-4.34c0,0,0.18-0.26,0.48-0.73C228.11,131.08,248.23,109.81,216.15,92.65z"/>
			<path class="st20" d="M210.78,151.38c-4.51-1.78-2.45-7.36-0.66-11.57c0.66-1.5,1.45-2.94,2.35-4.32l-6.22-9.02l-5.6-8.24
				c-0.3,2.85-1.91,4.92-2.51,7.73c-0.92,4.89-2.29,8.56-4.2,12.98c-1.14,1.89-3.34,3.18-4.7,4.19c0,0,8,9.33,13.75,10.77
				C208.75,155.33,210.78,151.38,210.78,151.38z"/>
			<path class="st21" d="M197.68,134.84c0,0,0.32,12.98,10.38,12.13l0.24-2.44L197.68,134.84z"/>
			<path class="st20" d="M196.3,109.97c3.72-7.94,13.47-11.65,21.77-8.28c11.45,4.66,12.29,21.45,9.24,31.54
				c-3.39,11.23-17.26,17.2-25.89,8.36c-5.76-5.88-6.36-13.54-6.56-24.83C194.81,114.42,195.3,112.11,196.3,109.97z"/>
			<path class="st11" d="M199.98,119.93c0,0,6.04-9.04,5.74-16.38c0,0,11.52-2.98,20.68,9.31c1.46,1.96,2.32,5.22,3.63,8.03
				c0,0,2.25-22.19-17.44-24.05c-19.66-1.86-23.58,25.78-14.01,35.1C198.58,131.95,196.24,125.59,199.98,119.93z"/>
			<path class="st19" d="M199.98,119.93c0,0,6.04-9.04,5.74-16.38c0,0,11.52-2.98,20.68,9.31c1.46,1.96,2.32,5.22,3.63,8.03
				c0,0,2.25-22.19-17.44-24.05c-19.66-1.86-23.58,25.78-14.01,35.1C198.58,131.95,196.24,125.59,199.98,119.93z"/>
			<g>
				<path class="st22" d="M215.03,120.56c-0.08-1.29-0.89-2.28-1.77-2.2c-0.88,0.07-1.54,1.16-1.46,2.47"/>
				<path class="st22" d="M226.26,121.13c-0.08-1.29-0.89-2.28-1.77-2.2c-0.88,0.07-1.54,1.24-1.46,2.47"/>
				<path class="st11" d="M228.12,116.28c-0.2,0.11-0.45,0.11-0.65,0c-1.33-0.81-2.98-0.97-4.47-0.44
					c-0.31,0.14-0.68,0.02-0.82-0.27c-0.15-0.29-0.01-0.64,0.3-0.78c0,0,0,0,0,0c1.86-0.72,3.97-0.54,5.65,0.48
					c0.3,0.16,0.4,0.52,0.22,0.8c0,0-0.01,0.01-0.01,0.01C228.27,116.15,228.2,116.22,228.12,116.28z"/>
				<path class="st19" d="M228.12,116.28c-0.2,0.11-0.45,0.11-0.65,0c-1.33-0.81-2.98-0.97-4.47-0.44
					c-0.31,0.14-0.68,0.02-0.82-0.27c-0.15-0.29-0.01-0.64,0.3-0.78c0,0,0,0,0,0c1.86-0.72,3.97-0.54,5.65,0.48
					c0.3,0.16,0.4,0.52,0.22,0.8c0,0-0.01,0.01-0.01,0.01C228.27,116.15,228.2,116.22,228.12,116.28z"/>
				<path class="st11" d="M211.13,115.93c-0.12-0.05-0.22-0.12-0.29-0.23c-0.13-0.3,0.02-0.64,0.34-0.76c0,0,0.01,0,0.01,0
					c1.85-0.69,3.96-0.46,5.66,0.6c0.28,0.2,0.34,0.56,0.14,0.82l0,0c-0.2,0.25-0.58,0.3-0.86,0.11l0,0
					c-1.36-0.8-3.03-0.95-4.49-0.41C211.46,116.1,211.27,116.05,211.13,115.93z"/>
				<path class="st19" d="M211.13,115.93c-0.12-0.05-0.22-0.12-0.29-0.23c-0.13-0.3,0.02-0.64,0.34-0.76c0,0,0.01,0,0.01,0
					c1.85-0.69,3.96-0.46,5.66,0.6c0.28,0.2,0.34,0.56,0.14,0.82l0,0c-0.2,0.25-0.58,0.3-0.86,0.11l0,0
					c-1.36-0.8-3.03-0.95-4.49-0.41C211.46,116.1,211.27,116.05,211.13,115.93z"/>
			</g>
			<g>
				<path class="st20" d="M187.57,125.72c0.97,2.95,3.14,5.4,6.04,6.8c3.85,1.83,6.67-1.29,6.36-5.17
					c-0.31-3.45-2.65-8.67-6.89-8.84C188.83,118.33,186.43,122.08,187.57,125.72z"/>
				<g class="st23">
					<g>
						<path d="M197.44,127.81c-0.02-1.65-0.62-3.24-1.65-4.53c-0.94-1.17-2.69-2.61-4.27-1.76c-0.42,0.23-0.05,0.88,0.38,0.65
							c0.65-0.35,1.41-0.03,1.98,0.34c0.57,0.38,1.08,0.89,1.49,1.44c0.83,1.12,1.3,2.46,1.32,3.86
							C196.7,128.29,197.45,128.29,197.44,127.81L197.44,127.81z"/>
					</g>
				</g>
			</g>
			<path class="st24" d="M220.1,119.73c1.46,2.96,3.36,5.71,5.62,8.17c-1.41,1.11-3.24,1.59-5.03,1.3L220.1,119.73z"/>
			<g class="st23">
				<g>
					<path d="M206.8,120.8c1.13,0.1,2.26,0.24,3.38,0.44c0-0.24,0-0.48,0-0.72c-1.12,0.21-2.22,0.48-3.3,0.83
						c-0.46,0.15-0.26,0.87,0.2,0.72c1.08-0.34,2.19-0.62,3.3-0.83c0.36-0.07,0.36-0.66,0-0.72c-1.18-0.21-2.38-0.37-3.57-0.47
						c-0.2-0.02-0.38,0.18-0.38,0.38C206.43,120.65,206.6,120.79,206.8,120.8L206.8,120.8z"/>
				</g>
			</g>
			<g class="st23">
				<g>
					<path d="M227.14,121.14c0.19,0.03,0.38,0.05,0.57,0.03c0.19-0.02,0.38-0.05,0.56-0.12c0.09-0.04,0.17-0.08,0.22-0.17
						c0.05-0.08,0.07-0.2,0.04-0.29c-0.03-0.09-0.09-0.18-0.17-0.22c-0.08-0.04-0.2-0.07-0.29-0.04c-0.13,0.05-0.27,0.09-0.41,0.1
						c0.03,0,0.07-0.01,0.1-0.01c-0.16,0.02-0.31,0.02-0.47,0c0.03,0,0.07,0.01,0.1,0.01c-0.02,0-0.03,0-0.05-0.01
						c-0.1-0.02-0.2-0.02-0.29,0.04c-0.08,0.05-0.15,0.13-0.17,0.22c-0.02,0.1-0.02,0.2,0.04,0.29
						C226.97,121.04,227.05,121.12,227.14,121.14L227.14,121.14z"/>
				</g>
			</g>
			<g class="st23">
				<g>
					<path d="M210.91,122.28c1.58,1.21,3.83,1.05,5.28-0.29c0.36-0.33-0.18-0.86-0.53-0.53c-1.22,1.13-3.06,1.17-4.37,0.17
						c-0.16-0.12-0.42-0.02-0.51,0.13C210.66,121.96,210.75,122.16,210.91,122.28L210.91,122.28z"/>
				</g>
			</g>
			<g class="st23">
				<g>
					<path d="M222.59,122.45c0.65,0.51,1.46,0.81,2.29,0.75c0.81-0.05,1.57-0.4,2.14-0.97c0.34-0.34-0.19-0.87-0.53-0.53
						c-0.9,0.89-2.36,1.02-3.37,0.22c-0.16-0.13-0.38-0.15-0.53,0C222.46,122.05,222.43,122.32,222.59,122.45L222.59,122.45z"/>
				</g>
			</g>
			<g class="st23">
				<g>
					<path d="M210.24,128.22c0.01-0.02,0.03-0.04,0.01-0.01c0.02-0.02,0.04-0.05,0.06-0.07c0.04-0.04,0.07-0.08,0.11-0.12
						c0.03-0.03,0.07-0.07,0.11-0.1c0.02-0.02,0.05-0.04,0.07-0.06c0,0,0.06-0.05,0.03-0.03c-0.03,0.02,0.04-0.03,0.05-0.04
						c0.02-0.01,0.04-0.03,0.06-0.04c0.05-0.03,0.09-0.06,0.14-0.09c0.05-0.03,0.1-0.05,0.14-0.08c0.02-0.01,0.04-0.02,0.07-0.03
						c0.06-0.03-0.01,0,0.03-0.01c0.2-0.08,0.4-0.14,0.61-0.17c-0.04,0.01-0.02,0,0.01,0c0.03,0,0.06-0.01,0.09-0.01
						c0.05,0,0.1,0,0.14-0.01c0.05,0,0.11,0,0.16,0c0.03,0,0.06,0,0.09,0.01c0.01,0,0.09,0.01,0.03,0c0.19,0.03,0.41-0.05,0.46-0.26
						c0.04-0.18-0.05-0.43-0.26-0.46c-1.1-0.16-2.19,0.28-2.85,1.18c-0.12,0.16-0.03,0.43,0.13,0.51
						C209.93,128.46,210.12,128.39,210.24,128.22L210.24,128.22z"/>
				</g>
			</g>
			<g class="st23">
				<g>
					<path d="M212.88,111.02c3.07,0.78,6.27,0.83,9.36,0.18c0.47-0.1,0.27-0.82-0.2-0.72c-2.96,0.63-6.03,0.57-8.96-0.18
						C212.61,110.18,212.41,110.9,212.88,111.02L212.88,111.02z"/>
				</g>
			</g>
			<g class="st23">
				<g>
					<path d="M214.86,110.27c2.22,0.23,4.46,0.13,6.65-0.3c0.47-0.09,0.27-0.81-0.2-0.72c-2.13,0.41-4.3,0.5-6.45,0.27
						C214.38,109.47,214.39,110.22,214.86,110.27L214.86,110.27z"/>
				</g>
			</g>
			<g>
				<g>
					<path class="st11" d="M212.25,129.32c0.61,2.24,3.01,3.71,5.28,3.29c0.47-0.09,0.27-0.81-0.2-0.72
						c-1.87,0.35-3.86-0.94-4.36-2.77C212.85,128.66,212.13,128.85,212.25,129.32L212.25,129.32z"/>
				</g>
			</g>
			<g class="st23">
				<g>
					<path d="M181.07,113.79c-0.28,5.24,1.26,10.49,4.34,14.74c0.28,0.39,0.93,0.01,0.65-0.38c-3.02-4.16-4.52-9.24-4.24-14.36
						C181.85,113.31,181.1,113.31,181.07,113.79L181.07,113.79z"/>
				</g>
			</g>
			<g class="st13">
				<g>
					<path class="st4" d="M182.48,111.79c8.2,0.62,18.58,0.74,23.12-7.59c0.23-0.42-0.42-0.8-0.65-0.38
						c-4.4,8.08-14.56,7.81-22.47,7.21C182,111.01,182,111.76,182.48,111.79L182.48,111.79z"/>
				</g>
			</g>
			<g class="st13">
				<g>
					<path class="st4" d="M182.57,118.64c7.91-1.16,16.6-2.66,21.79-9.39c0.29-0.38-0.36-0.76-0.65-0.38
						c-5.04,6.54-13.69,7.93-21.34,9.05C181.9,117.99,182.1,118.71,182.57,118.64L182.57,118.64z"/>
				</g>
			</g>
		</g>
		<path class="st9" d="M188.55,142.79c-2.16,0.9-15.36-0.39-26.02,8.7c-10.66,9.09-39.05,110.55-34.72,116.69
			c4.33,6.15,49.62,17.12,55.49,12.82c5.87-4.3,8.61-39.69,11.08-62.51c2.48-22.82,5.67-51.73,5.88-58.09
			C200.47,154.04,188.55,142.79,188.55,142.79z"/>
		<path class="st17" d="M188.55,142.79c-2.16,0.9-15.36-0.39-26.02,8.7c-10.66,9.09-39.05,110.55-34.72,116.69
			c4.33,6.15,49.62,17.12,55.49,12.82c5.87-4.3,8.61-39.69,11.08-62.51c2.48-22.82,5.67-51.73,5.88-58.09
			C200.47,154.04,188.55,142.79,188.55,142.79z"/>
		<g>
			<path class="st13" d="M177.62,184.65c0,0-3.3,9.57-7.5,13.51c-4.2,3.94-14.1,12.04-15.15,17.82c-1.05,5.78,7.48,27.4,8.27,31.68
				c0.79,4.28-2.89,8.74-2.89,8.74l0.66,8.01l-19.94-4.73l1.17-55.19L177.62,184.65z"/>
		</g>
		<path class="st9" d="M275.15,106.93c-1.1-0.01-9.05-0.5-16.29,5.56c-7.25,6.06-16.1,25.9-14.85,26.47
			c1.25,0.57,18.14,5.48,18.03,4.83C261.93,143.13,275.15,106.93,275.15,106.93z"/>
		<path class="st13" d="M256.3,142.99c0.05-2.56,4.47-18.03,3.75-17.61c-0.73,0.42-8.79,7.93-8.97,15.76
			c-0.18,7.83,2.35,18.16,2.35,18.16L256.3,142.99z"/>
		<path class="st15" d="M285.19,112.28c0,0,2.79-2.82,3.7-5.78c0.57-1.65,0.71-3.42,0.4-5.14c-0.14-0.96-0.34-1.9-0.61-2.83
			l19.29-11.93c-2.3,7.46-6.93,21.14-1.81,27.17l-23.98,11.81L285.19,112.28z"/>
		<path class="st21" d="M303.02,94.68c-0.41,8.63-9.56,11.36-14.08,12.02c0.54-1.57,0.68-3.25,0.38-4.89L303.02,94.68z"/>
		<path class="st11" d="M289.67,55.72c-9.53-1.97-4.56,5.72-15.05,7.1c-0.28,6.38,6.97,13.57,9.73,9.66
			C287.39,68.18,297.59,57.28,289.67,55.72z"/>
		<path class="st15" d="M312.08,79.79c-4.09,10.99-6.16,17.26-13.71,21.23c-11.36,5.97-23.78-3.16-23.16-15.19
			c0.56-10.82,7.15-26.97,19.77-27.97C307.42,56.88,316.17,68.81,312.08,79.79z"/>
		<path class="st11" d="M293.94,78.23c-0.35,1.15-1.25,1.88-2.02,1.65c-0.77-0.24-1.11-1.36-0.77-2.5c0.35-1.15,1.25-1.88,2.02-1.65
			C293.94,75.96,294.29,77.08,293.94,78.23z"/>
		<path class="st11" d="M283.32,75.21c-0.35,1.15-1.25,1.88-2.02,1.65c-0.77-0.24-1.11-1.36-0.77-2.5c0.35-1.15,1.25-1.88,2.02-1.65
			C283.32,72.94,283.66,74.06,283.32,75.21z"/>
		<path class="st25" d="M286.92,75.41c0,0-5.45,4.59-7.35,6.55c1.21,1.93,4.24,2.1,4.24,2.1L286.92,75.41z"/>
		<path class="st11" d="M299.26,73.4c-0.2,0.04-0.41-0.03-0.55-0.19c-1.68-1.91-3.79-1.69-3.81-1.69c-0.32,0.04-0.61-0.18-0.65-0.49
			c-0.04-0.31,0.18-0.58,0.49-0.62c0.11-0.01,2.75-0.29,4.84,2.08c0.21,0.24,0.18,0.59-0.06,0.79
			C299.44,73.34,299.35,73.38,299.26,73.4z"/>
		<path class="st11" d="M279.26,68.2c-0.09-0.07-0.16-0.16-0.2-0.26c-0.11-0.29,0.04-0.62,0.34-0.72c2.98-1.01,5.08,0.58,5.19,0.64
			c0.25,0.19,0.3,0.55,0.11,0.79c-0.19,0.24-0.54,0.29-0.8,0.1c-0.08-0.07-1.72-1.28-4.11-0.47
			C279.61,68.35,279.41,68.31,279.26,68.2z"/>
		<path class="st11" d="M322.44,66.91c0,0,4.48-5.86-0.09-10.5c-7.15-7.26-13.56-1.31-28.29-14c-0.65,3.82,0.95,7.1,0.95,7.1
			c-6.37-2.54-8.98-3.38-16.72-2.63c3.23,2.35-2.81,9.39,3.5,14.7c6.31,5.32,18.13,1.84,18.13,1.84c0.15,4.71,6.77,8.62,6.77,8.62
			c-0.95,1.99-1.63,4.09-2.03,6.25c-0.24,2.77-0.08,5.56,0.46,8.28c0.8-0.13,1.54-0.13,2.22-0.06l-2.96,8.08l12.04-6.61
			C334.33,74.63,322.44,66.91,322.44,66.91z"/>
		<g>
			<path class="st15" d="M313.82,90.48c-1.79,2.61-4.66,4.14-7.28,4.57c-3.94,0.64-4.12-3.39-2.73-6.82
				c1.25-3.09,3.37-6.67,7.19-5.75C314.75,83.38,315.87,87.49,313.82,90.48z"/>
			<path class="st26" d="M312.12,86.6c-0.26-0.81-1.14-1.33-2-1.38c-0.86-0.05-1.7,0.32-2.39,0.82c-0.83,0.6-1.48,1.43-1.88,2.35"/>
		</g>
		<g>
			<path class="st4" d="M290.79,86.49c-1.1,1.23-2.69,2.01-4.34,2.1c-0.39,0.02-0.91,0.11-0.95,0.51c-0.02,0.22,0.15,0.42,0.31,0.57
				c0.89,0.84,2.04,1.45,3.26,1.47c1.22,0.02,2.48-0.62,3-1.72c0.51-1.11,0.08-2.62-1.03-3.13"/>
		</g>
		<g>
			<g>
				<g>
					<path class="st27" d="M160.04,283.92c-0.01-1.79-0.07-3.58-0.08-5.37c-0.02-1.75,0.17-3.53,0.06-5.28
						c-0.24-3.96-2.1-7.49-5.97-8.89c-6.25-2.26-12.92,2.87-14.17,9.01c-0.51,2.52-0.23,5.37-0.25,7.92
						c-0.04,5.56-0.03,11.11-0.02,16.67c0.02,7.75,0.05,15.5,0.09,23.26c0.05,9.14,0.11,18.28,0.18,27.42
						c0.07,9.62,0.14,19.24,0.22,28.86c0.08,9.19,0.16,18.37,0.24,27.56c0.07,7.96,0.15,15.91,0.22,23.87
						c0.06,5.81,0.11,11.62,0.17,17.43c0.03,2.78,0,5.57,0.08,8.35c0,0.12,0,0.24,0,0.36c0.03,2.89,4.53,2.9,4.5,0
						c-0.02-1.83-0.04-3.67-0.06-5.5c-0.05-4.95-0.1-9.9-0.15-14.86c-0.07-7.25-0.14-14.5-0.2-21.75
						c-0.08-8.72-0.16-17.45-0.23-26.17c-0.08-9.42-0.16-18.84-0.23-28.26c-0.07-9.21-0.14-18.42-0.19-27.62
						c-0.05-8.21-0.1-16.43-0.13-24.64c-0.02-6.4-0.04-12.8-0.03-19.2c0.01-3.76,0-7.53,0.1-11.29c0.01-0.43,0.03-0.86,0.05-1.29
						c0.01-0.13,0.03-0.26,0.03-0.39c-0.01-0.38-0.23,0.69-0.05,0.37c0.38-0.67,0.51-1.52,0.9-2.21c0.42-0.76,0.91-1.44,1.52-2.06
						c1.02-1.02,2.31-1.73,3.76-1.84c1.33-0.1,2.74,0.24,3.7,1.2c1.11,1.11,1.39,2.77,1.42,4.28c0.06,3.34-0.01,6.72,0,10.06
						C155.54,286.82,160.04,286.82,160.04,283.92L160.04,283.92z"/>
				</g>
			</g>
			<g>
				<path class="st20" d="M155.11,253.1l-12.73,7.94c-1.79,2.33-1.61,5.77-0.23,8.35c1.38,2.58,3.75,4.46,6.17,6.06
					c1.69,1.12,4.05,2.12,5.59,0.77c0.98-0.86,1.15-2.29,1.44-3.57c0.29-1.28,0.98-2.71,2.25-2.9c1.27-0.19,2.35,1.04,2.65,2.31
					c0.3,1.26,0.09,2.59,0.2,3.89c0.11,1.3,0.71,2.71,1.93,3.1c1.14,0.36,2.41-0.35,3.05-1.39c0.64-1.03,0.77-2.3,0.79-3.51
					C166.34,268.36,158.86,257.41,155.11,253.1z"/>
			</g>
			<path class="st9" d="M178.78,156.24c-0.39-1.87-1.14-3.65-2.32-5.15c-2.33-2.95-6.92-5.53-18,2.39
				c-14.78,10.56-34.1,42.11-37.14,52.43c-3.04,10.32,9.42,52.39,15.71,55.54c2.64,1.32,7.74,0.87,12.77-0.09
				c7.55-1.45,12.15-9.17,9.96-16.54l-6.68-22.52c-1.4-4.72-0.03-9.83,3.55-13.22c6.33-5.99,15.87-15.3,18.46-19.37
				C182.42,178.18,180.05,162.27,178.78,156.24z"/>
			<path class="st16" d="M178.78,156.24c-0.39-1.87-1.14-3.65-2.32-5.15c-2.33-2.95-6.92-5.53-18,2.39
				c-14.78,10.56-34.1,42.11-37.14,52.43c-3.04,10.32,9.42,52.39,15.71,55.54c2.64,1.32,7.74,0.87,12.77-0.09
				c7.55-1.45,12.15-9.17,9.96-16.54l-6.68-22.52c-1.4-4.72-0.03-9.83,3.55-13.22c6.33-5.99,15.87-15.3,18.46-19.37
				C182.42,178.18,180.05,162.27,178.78,156.24z"/>
			<g class="st13">
				<g>
					<path class="st11" d="M172.7,148.57c10.19,8.46,8.18,23,6.18,34.51c-0.08,0.47,0.64,0.67,0.72,0.2
						c2.05-11.77,4.03-26.6-6.37-35.24C172.86,147.73,172.33,148.26,172.7,148.57L172.7,148.57z"/>
				</g>
			</g>
		</g>
		<g>
			<g>
				<path class="st11" d="M179.38,233.81c-4.47,4.05-9.71,7.18-15.4,9.19c-0.45,0.16-0.26,0.88,0.2,0.72
					c5.81-2.06,11.16-5.25,15.73-9.38C180.27,234.02,179.73,233.49,179.38,233.81L179.38,233.81z"/>
			</g>
		</g>
		<g>
			<path class="st15" d="M274.67,191.94c0.59,0.02,30.68,3.78,36.49-4.04c5.81-7.82,3.94-29.39,3.94-29.39l17.99-2.23
				c0,0-0.53,39.31-10.04,45.57c-9.51,6.26-50.81-0.46-50.81-0.46L274.67,191.94z"/>
			<path class="st15" d="M258.44,185.81c-0.71,0.76-6.13,7.01-4.14,11.56c1.99,4.55,6.3,11.11,11.38,8.13
				c5.08-2.98,9.2-5.61,9.2-5.61l-0.91-11.22l-6.71-2.68l-6.28,0.75C260.98,186.74,259.87,184.29,258.44,185.81z"/>
			<path class="st20" d="M256.18,190.6c0,0,7.44-7.72,12.26-6.4c4.82,1.32,11.43,4.25,10.44,11.3c-0.77,5.52-4.62,8.98-8.82,8.99
				c-4.2,0.01-4.38-1.56-4.38-1.56s1.95-5.98,1.13-7.12c-0.28-0.38-0.81-0.95-1.39-1.52c-1.43-1.41-3.85-1.17-4.85,0.57
				c-0.52,0.91-0.7,1.73,0.17,1.95c2.17,0.57,6.96,2.48,4.49,4.61c-2.48,2.13-4.12,0.58-6.86-0.6c-2.74-1.18-4.88-1.6-5.06-5.22
				C253.11,191.98,256.18,190.6,256.18,190.6z"/>
			<path class="st15" d="M255.29,194.01c0,0-2.19,2.81,0.8,3.78c2.99,0.98,10.87-0.33,10.87-0.33s-1.12-2.81-2.59-4.15
				C262.91,191.96,255.29,194.01,255.29,194.01z"/>
			<g>
				<g>
					<path class="st24" d="M269.5,204.55c1.87-4.07,2.8-9.11-0.27-12.87c-0.31-0.37-0.83,0.16-0.53,0.53
						c2.83,3.46,1.86,8.23,0.15,11.96C268.66,204.61,269.3,204.99,269.5,204.55L269.5,204.55z"/>
				</g>
			</g>
			<g>
				<g>
					<path class="st24" d="M273.55,203.33c2.2-3.9,2.66-8.64,1.23-12.89c-0.15-0.46-0.88-0.26-0.72,0.2
						c1.37,4.06,0.95,8.57-1.15,12.31C272.66,203.38,273.31,203.75,273.55,203.33L273.55,203.33z"/>
				</g>
			</g>
			<g>
				<path class="st9" d="M308.57,163.18c0,0,26.49,1.43,26.35,1c-0.14-0.43-2.69-36.65-8.87-36.41
					C318.36,128.07,309.05,149.12,308.57,163.18z"/>
				<g class="st13">
					<g>
						<path class="st11" d="M324.91,126.87c-3.22,1.23-6,3.16-8.13,5.89c-3.42,4.38-5.14,9.96-6.34,15.31
							c-1.12,4.97-1.77,10.04-2.25,15.1c-0.02,0.21,0.19,0.37,0.38,0.38c7.69,0.29,15.39,0.59,23.08,0.88
							c1.09,0.04,2.18,0.08,3.27,0.12c0.48,0.02,0.48-0.73,0-0.75c-7.69-0.29-15.39-0.59-23.08-0.88c-1.09-0.04-2.18-0.08-3.27-0.12
							c0.13,0.13,0.25,0.25,0.38,0.38c0.72-7.67,1.76-15.56,4.54-22.79c1.5-3.92,3.67-7.77,7.08-10.34
							c1.38-1.04,2.93-1.83,4.54-2.45C325.55,127.43,325.36,126.7,324.91,126.87L324.91,126.87z"/>
					</g>
				</g>
			</g>
		</g>
	</g>
</g>
</svg>
