<?xml version="1.0" encoding="utf-8"?>
<!-- Generator: Adobe Illustrator 24.0.0, SVG Export Plug-In . SVG Version: 6.00 Build 0)  -->
<svg version="1.1" xmlns="http://www.w3.org/2000/svg" xmlns:xlink="http://www.w3.org/1999/xlink" x="0px" y="0px"
	 viewBox="0 0 500 500" style="enable-background:new 0 0 500 500;" xml:space="preserve">
<style type="text/css">
	.st0{fill:#52629B;}
	.st1{fill:#29ABE2;}
	.st2{fill:#DD819A;}
	.st3{fill:#C4CFFF;}
	.st4{clip-path:url(#SVGID_2_);}
	.st5{fill:#302C43;}
	.st6{fill:url(#SVGID_3_);}
	.st7{fill:#407BFF;}
	.st8{opacity:0.5;fill:url(#SVGID_4_);}
	.st9{fill:#FFFFFF;}
	.st10{fill:#EBB591;}
	.st11{fill:#EFC3A6;}
	.st12{fill:#E49B6A;}
	.st13{fill:#314488;}
	.st14{fill:url(#SVGID_5_);}
	.st15{fill:#F8FAFF;}
	.st16{fill:#C26951;}
	.st17{opacity:0.29;fill:url(#SVGID_6_);}
	.st18{fill:#C97A65;}
	.st19{fill:url(#SVGID_7_);}
	.st20{fill:url(#SVGID_8_);}
	.st21{fill:url(#SVGID_9_);}
	.st22{fill:url(#SVGID_10_);}
	.st23{display:none;}
	.st24{display:inline;}
	.st25{fill:#1D262D;}
</style>
<g id="BACKGROUND">
	<g>
		<g>
			<g>
				<g>
					<path class="st0" d="M62.34,111.73c-5.08,9.77-8.55,0.03-9.62-6.6c-0.86-5.36-1.75-18.63-11.22-14.39
						c-9.92,4.45,0.92,11.07,1.71,15.62c1.75,10.16-9.38-1.5-12.39-4.32c-4.11-3.87-12.49-11.97-15.03-3.46
						c-2.06,6.88,6.88,15.29,11.42,18.77c3.24,2.48,18.92,9.48,14.7,14.38c-3.2,3.71-19.02-2.35-8.48,8.61
						c4.28,4.46,11.97,4.71,17.19,7.1c7.64,3.5,10.8,4.97,7.95,11.78c-1.48,3.53-6.08,3.11-3.51,7.98
						c1.32,2.51,8.58,4.05,11.13,4.32c23.42,2.54,40.18-4.99,42.72-9.17c3.43-5.66,0.77-17.22-1.57-22.67
						c-1.16-2.71-3.04-7.62-6.77-7.73c-4.19-0.12-4.34,6.36-6.81,6.32c-6.99-0.13,1.09-12.08,0.52-15.72
						c-0.75-4.71-8.02-13.21-12.88-8.93c-0.5,0.44-4.25,20.15-9.26,8.04c-2.77-6.7,7.74-12.33,1.54-19.2
						C64.73,92.55,64.24,108.06,62.34,111.73z"/>
				</g>
				<path class="st1" d="M65.82,113.85c-2.36,4.18-4.57,8.52-5.53,13.25c-3.81-3.85-7.57-7.86-11.93-10.96
					c-1.23-0.87-2.39,1.17-1.17,2.04c0.53,0.38,1.05,0.79,1.56,1.19c-1.47,0.2-3.55-0.49-4.67-0.75c-2.9-0.69-5.41-2.1-7.97-3.57
					c-1.31-0.75-2.48,1.29-1.17,2.04c3.32,1.91,6.53,3.48,10.32,4.19c1.86,0.35,3.89,0.7,5.57-0.21c4.95,4.24,9.37,9.32,14.13,13.7
					c-2.74,1.31-5.54,2.19-8.63,2.38c-3.36,0.21-6.67-0.58-10.03-0.63c-1.51-0.02-1.49,2.33,0.02,2.35
					c4.04,0.05,7.9,0.98,11.95,0.43c3.05-0.41,5.83-1.46,8.56-2.85c5.76,5.06,11.81,9.82,18.31,13.91c2.16,1.36,4.37,2.63,6.6,3.87
					c-3.51,1.8-7.11,3.21-11,4.03c-2.16,0.46-4.45,0.97-6.66,1c-1.67,0.02-3.21-0.34-4.85,0.13c-1.46,0.41-0.84,2.68,0.62,2.27
					c2.01-0.57,4.48-0.01,6.59-0.28c2.04-0.26,4.07-0.63,6.07-1.1c4.09-0.95,7.89-2.6,11.57-4.59c0.05-0.03,0.08-0.07,0.13-0.1
					c3.86,2.1,7.74,4.17,11.49,6.44c0.1,0.16,0.22,0.3,0.43,0.41c0.42,0.23,1,0.64,1.52,0.82c7.8,4.19,15.6,8.41,23.46,12.5
					c1.34,0.7,2.51-1.34,1.17-2.04c-7.83-4.08-15.6-8.28-23.37-12.46c-0.03-0.02-0.05-0.05-0.09-0.08
					c-2.01-1.28-4.08-2.49-6.17-3.66c1.57-4.12,0.88-8.98-0.25-13.13c-0.4-1.46-2.67-0.85-2.27,0.62c0.98,3.6,1.59,7.72,0.43,11.35
					c-4.78-2.63-9.62-5.14-14.24-8.03c-1.84-1.15-3.63-2.36-5.39-3.62c0.06-0.07,0.13-0.13,0.19-0.22
					c3.02-5.52,4.69-11.65,4.44-17.96c-0.06-1.51-2.41-1.5-2.35,0.02c0.24,5.91-1.29,11.6-4.13,16.78c-0.01,0.01,0,0.02-0.01,0.03
					c-5.19-3.84-10.11-8.05-14.85-12.42c-0.81-0.75-1.6-1.52-2.39-2.3c0.34-0.1,0.63-0.34,0.72-0.8c0.91-4.6,3.03-8.76,5.32-12.81
					C68.6,113.7,66.57,112.53,65.82,113.85z"/>
			</g>
			<g>
				<g>
					<g>
						<path class="st2" d="M67.05,61.16c2.81,10.79,4,21.62,8.51,31.94c4.33,9.91,9.43,19.64,15.08,28.86
							c5.21,8.5,10.84,16.71,16.01,25.24c6.04,9.95,13.92,17.39,21.38,26.16c1.2,1.41-0.88,3.39-2.08,1.98
							c-6.76-7.95-14.25-14.74-19.89-23.62c-5.99-9.43-12.11-18.86-17.94-28.37c-5.88-9.59-11.18-19.74-15.61-30.08
							c-4.33-10.12-5.51-20.87-8.26-31.44C63.78,60.03,66.58,59.37,67.05,61.16L67.05,61.16z"/>
					</g>
					<path class="st2" d="M66.05,62.91c-0.72-2.33,0.09-6.2,1.98-7.81c2.21-1.88,3.89,0.27,4.07,2.61c0.19,2.6-1.07,5.11-1.84,7.52
						c-0.8,2.5-0.56,5.34-1.67,7.64c-0.98-1.61-1.35-4.49-1.6-6.33c-0.27-1.96-1-3.83-1.28-5.75"/>
					<path class="st2" d="M67.48,67.69c-0.93-4.08,0.19-9.82-3.31-13.01c-2.29-2.09-4.63-1.72-5.27,1.45
						c-0.49,2.41,0.89,4.57,2.37,6.31c1.89,2.22,4.29,4.88,6.54,6.63"/>
					<path class="st2" d="M68.64,78.81c-4.38-1.95-9.95-4.28-12.18-8.99c-1.38-2.93,2.02-3.08,3.84-2.18
						c4.16,2.04,7.34,6.7,9.19,10.81L68.64,78.81z"/>
					<path class="st2" d="M71.76,89.52c-5.65-1.54-12.82-3.3-16.38-8.56c-2.22-3.28,1.85-4.09,4.22-3.36
						c5.4,1.68,10.12,6.71,13.12,11.32L71.76,89.52z"/>
					<path class="st2" d="M82.91,112.88c-5.83-0.53-13.19-1.01-17.63-5.57c-2.76-2.84,1.11-4.35,3.57-4.04
						c5.61,0.71,11.14,4.84,14.9,8.85L82.91,112.88z"/>
					<path class="st2" d="M94.58,131.96c-6.81,1.23-15.35,3-21.83-0.81c-4.04-2.37-0.1-5.31,2.8-5.73
						c6.62-0.95,14.21,2.01,19.76,5.41L94.58,131.96z"/>
					<path class="st2" d="M78.26,105c-6.21-2.63-14.12-5.76-17.3-12.26c-1.98-4.05,2.84-4.31,5.43-3.11
						c5.9,2.76,10.44,9.18,13.08,14.85L78.26,105z"/>
					<path class="st2" d="M71.14,78.22c3.04-3.71,6.98-8.29,6.86-13.49c-0.08-3.24-3.18-1.85-4.41-0.23
						c-2.8,3.69-3.56,9.28-3.38,13.78L71.14,78.22z"/>
					<path class="st2" d="M77.27,102.84c2.12-5.02,4.94-11.29,3.13-16.93c-1.13-3.51-4.07-0.99-4.89,1.17
						c-1.87,4.93-0.89,11.28,0.76,16.13L77.27,102.84z"/>
					<path class="st2" d="M87.34,116.07c2.27-5.39,5.3-12.11,3.36-18.16c-1.21-3.77-4.36-1.06-5.24,1.25
						c-2,5.28-0.96,12.09,0.82,17.29L87.34,116.07z"/>
					<path class="st2" d="M95.36,129.57c2.72-7.22,6.38-16.23,3.57-24.54c-1.75-5.18-5.75-1.64-6.79,1.47
						c-2.38,7.09-0.7,16.4,1.85,23.55L95.36,129.57z"/>
					<path class="st2" d="M88.84,122.03c-3.71,0.86-7.04,2.43-10.93,2.11c-3.38-0.27-6.27-2.1-8.52-4.55
						c-0.99-1.08-2.34-2.26-2.34-3.88c0-2.27,2.29-1.05,3.7-0.46c3,1.26,6.14,2.36,9.25,3.28c1.72,0.51,3.31,1.04,4.92,1.68
						c1.06,0.42,3.25,0.67,3.94,1.23"/>
					<path class="st2" d="M101.63,115.68c-0.43,4.16-0.7,17.72-1.23,22.88c0.81,1.29,1.59,2.59,2.37,3.91
						c3.01-8.17,5.96-21.87,5.51-25.64c-0.19-1.62-1.18-5.07-2.74-5.82C102.75,109.66,101.82,113.87,101.63,115.68z"/>
					<path class="st2" d="M120.76,130.03c-1.69,4.86-5.81,21.02-7.91,27.04c0.6,1.77,1.17,3.55,1.74,5.35
						c5.9-8.93,13.28-24.51,13.8-29.14c0.23-2,0.01-6.4-1.64-7.74C123.78,123.13,121.49,127.91,120.76,130.03z"/>
					<path class="st2" d="M103.86,145.57c-2.31,0.41-9.62,5.34-21.53,1.45c-1.69-0.55-3.89-1.44-4.35-3.37
						c-0.63-2.67,2.26-2.53,4.09-2.38c3.6,0.28,17.17,2.32,20.61,2.39"/>
					<path class="st2" d="M109.15,153.08c1.01-2.43,2.87-4.76,4.01-7.27c1.22-2.69,5.66-17.89,5.22-22.9
						c-0.19-2.18,0.45-6.3-2.2-7.14c-2.55-0.81-4.55,2.18-5.46,4.15c-2.12,4.58-3.15,27.26-2.61,33.12"/>
					<path class="st2" d="M109.81,155.26c-9.05,4.92-26.64,5.24-28.23,3.6c-3.45-3.56,2.95-6.8,5.92-7.24
						c6.68-0.99,21.73,2.36,21.82,3.46"/>
				</g>
			</g>
			<g>
				<path class="st1" d="M127.91,126.52c2.73,4.25,6.18,9.71,8.66,14.09c3.23,5.71,7.01,6.15,12.07,2.15
					c6.26-4.94,10.47-14.53,12.59-22.09c0.75-2.67,0.62-3.2-2.46-3.62c-2.28-0.31-4.43-0.25-6.71-0.72
					c-4.4-0.91-8.13-2.07-11.49-5.1c-5.3-4.79,1.92-4.32,5.11-2.76c3.71,1.83,7.8,3.23,11.99,3.75c7.2,0.9-0.87-23.9-4.59-27.83
					c-2.36,2.45-11.19,4.62-14.26,2.14c-2.7-2.18,0.59-2.6,2.57-2.77c2.28-0.2,4.41-0.17,6.41-1.28
					c8.18-4.53-10.45-18.12-14.31-20.71c-5.07-3.41-5.49-6.72-5.07-12.36c-5.71,3.38-13.94,8.31-15.03,15.31
					c-0.53,3.39,1.56,6.58,3.01,9.46c1,1.99,3.36,8.4-0.85,4.63c-2.94-2.63-3.5-7.09-6.58-9.71c-2.48,1.55-7.36,7.34-7.04,10.45
					c0.39,3.72,7.37,5.65,9.57,8.23c-4.66,2.06-8.44-3.38-11.81-5.5c-4,4.38-9.36,13.57-8.41,19.99c1.39,9.37,14.13,2.28,16.29,0.78
					c1.59-1.1,4.42-2.8,2.89,0.47c-1.34,2.87-8.38,5.94-11.36,6.85c-1.46,0.44-5.42,0.09-6.43,1.26
					c-1.15,1.34,6.79,26.75,14.47,30.4C115.12,145.84,126.04,133.45,127.91,126.52z"/>
			</g>
		</g>
		<g>
			<g>
				<g>
					<path class="st0" d="M447.42,386.32c0.09-9.87,6.83-3.49,10.37,1.37c2.87,3.93,8.96,14.18,14.8,6.95
						c6.12-7.58-5.23-8.47-7.7-11.79c-5.52-7.41,8.11-2.61,11.65-1.57c4.85,1.42,14.84,4.5,13.42-3.33
						c-1.15-6.33-11.7-9.43-16.74-10.37c-3.59-0.67-18.97,0.1-17.58-5.53c1.05-4.26,16.15-5.84,3.29-10.32
						c-5.23-1.82-11.48,1.09-16.62,1.3c-7.53,0.3-10.65,0.41-11.13-6.19c-0.25-3.42,3.59-4.95-0.44-7.8
						c-2.07-1.47-8.5,0.25-10.65,1.06c-19.75,7.47-30.09,20.29-30.42,24.66c-0.45,5.91,6.37,14.07,10.45,17.48
						c2.03,1.69,5.52,4.86,8.55,3.43c3.4-1.61,0.89-6.85,2.88-7.81c5.64-2.73,4.03,10.1,5.96,12.77c2.51,3.46,11.77,7.31,13.92,1.91
						c0.22-0.55-4.78-17.83,4.14-10.18c4.94,4.23-1.18,12.99,6.56,15.97C453.28,402.61,447.38,390.02,447.42,386.32z"/>
				</g>
				<path class="st1" d="M443.77,386.04c0.2-4.3,0.19-8.66-0.96-12.84c4.61,1.53,9.23,3.21,13.98,3.92c1.34,0.2,1.44-1.91,0.11-2.1
					c-0.58-0.09-1.16-0.21-1.73-0.32c1.09-0.76,3.03-1.05,4.04-1.29c2.6-0.63,5.18-0.52,7.82-0.38c1.35,0.07,1.46-2.03,0.11-2.1
					c-3.43-0.18-6.62-0.13-9.94,0.84c-1.63,0.48-3.39,1.02-4.36,2.43c-5.67-1.38-11.26-3.65-16.85-5.21c1.66-2.16,3.54-4,5.93-5.4
					c2.6-1.53,5.56-2.24,8.27-3.57c1.22-0.6,0.25-2.47-0.97-1.87c-3.25,1.6-6.71,2.43-9.73,4.5c-2.27,1.57-4.07,3.53-5.68,5.75
					c-6.66-1.71-13.43-3.06-20.28-3.69c-2.28-0.21-4.56-0.33-6.84-0.41c2.07-2.86,4.38-5.45,7.15-7.68c1.54-1.24,3.17-2.58,4.92-3.5
					c1.33-0.69,2.7-1.03,3.82-2.07c0.99-0.92-0.42-2.49-1.41-1.56c-1.37,1.27-3.57,1.83-5.15,2.89c-1.52,1.03-3,2.16-4.41,3.34
					c-2.88,2.42-5.25,5.28-7.38,8.36c-0.03,0.05-0.03,0.09-0.06,0.13c-3.94-0.11-7.88-0.19-11.8-0.49c-0.14-0.09-0.3-0.15-0.51-0.16
					c-0.43-0.01-1.06-0.11-1.55-0.04c-7.94-0.18-15.88-0.39-23.81-0.47c-1.35-0.01-1.46,2.09-0.11,2.1
					c7.91,0.08,15.82,0.29,23.73,0.47c0.04,0.01,0.06,0.02,0.1,0.03c2.13,0.21,4.27,0.33,6.41,0.42c0.41,3.93,2.94,7.54,5.53,10.39
					c0.91,1.01,2.47-0.41,1.56-1.41c-2.25-2.48-4.4-5.52-4.95-8.9c4.88,0.16,9.78,0.2,14.64,0.64c1.93,0.18,3.86,0.42,5.78,0.7
					c-0.02,0.08-0.06,0.15-0.06,0.25c-0.18,5.63,0.98,11.22,3.74,16.16c0.66,1.18,2.53,0.22,1.87-0.97
					c-2.59-4.63-3.67-9.8-3.51-15.08c0-0.01-0.01-0.02-0.01-0.03c5.71,0.96,11.34,2.33,16.91,3.91c0.95,0.27,1.89,0.56,2.84,0.86
					c-0.23,0.21-0.36,0.52-0.25,0.93c1.14,4.04,1.13,8.23,0.94,12.4C441.61,387.29,443.71,387.4,443.77,386.04z"/>
			</g>
			<g>
				<g>
					<g>
						<path class="st2" d="M464.17,428.65c-6.62-7.48-11.97-15.66-19.76-22.07c-7.48-6.16-15.5-11.87-23.76-16.95
							c-7.61-4.68-15.44-8.96-23.04-13.67c-8.87-5.5-18.18-8.25-27.69-12.23c-1.53-0.64-0.67-3.07,0.86-2.43
							c8.62,3.61,17.37,6,25.47,10.81c8.61,5.11,17.32,10.16,25.85,15.4c8.59,5.28,16.94,11.24,24.68,17.71
							c7.57,6.33,12.87,14.45,19.35,21.77C467.23,428.23,465.27,429.89,464.17,428.65L464.17,428.65z"/>
					</g>
					<path class="st2" d="M464.25,426.84c1.52,1.57,2.44,4.99,1.58,7.04c-1.01,2.4-3.22,1.36-4.31-0.44c-1.21-2-1.22-4.52-1.58-6.76
						c-0.38-2.32-1.72-4.49-1.77-6.79c1.44,0.89,2.9,3.04,3.85,4.41c1.01,1.46,2.35,2.65,3.36,4.07"/>
					<path class="st2" d="M461.17,423.6c2.4,2.89,3.83,7.93,7.92,9.05c2.67,0.74,4.39-0.5,3.63-3.3c-0.58-2.12-2.56-3.29-4.45-4.08
						c-2.41-1.01-5.41-2.16-7.92-2.65"/>
					<path class="st2" d="M455.73,415.19c4.29-0.21,9.69-0.62,13.38,2.24c2.3,1.78-0.36,3.28-2.18,3.3
						c-4.15,0.06-8.59-2.38-11.73-4.91L455.73,415.19z"/>
					<path class="st2" d="M448.89,407.89c5.14-1.06,11.58-2.56,16.56,0.2c3.11,1.72,0.18,4.02-2.01,4.39
						c-5,0.85-10.81-1.26-15.08-3.72L448.89,407.89z"/>
					<path class="st2" d="M430.51,393.75c4.87-1.94,10.95-4.55,16.34-2.7c3.36,1.15,0.88,3.93-1.22,4.68
						c-4.77,1.71-10.86,0.65-15.5-1.03L430.51,393.75z"/>
					<path class="st2" d="M413.44,383.24c4.94-3.75,11.05-8.62,17.78-8.21c4.19,0.26,2.24,4.2,0.09,5.71
						c-4.9,3.45-12.18,4.16-17.98,3.7L413.44,383.24z"/>
					<path class="st2" d="M437.42,398.16c6.03-0.42,13.62-1.13,18.79,2.78c3.22,2.43-0.52,4.6-3.08,4.68
						c-5.83,0.19-12.06-3.1-16.47-6.56L437.42,398.16z"/>
					<path class="st2" d="M453.98,416.67c-0.92,4.19-2.22,9.45-0.01,13.56c1.38,2.56,3.29,0.19,3.62-1.6
						c0.74-4.08-0.92-8.86-2.89-12.39L453.98,416.67z"/>
					<path class="st2" d="M439.09,399.48c0.35,4.87,0.63,11.03,4.37,14.8c2.33,2.35,3.65-0.86,3.43-2.92
						c-0.5-4.7-3.86-9.38-7.15-12.58L439.09,399.48z"/>
					<path class="st2" d="M425.67,393c0.37,5.23,0.68,11.83,4.68,15.87c2.5,2.52,3.92-0.92,3.68-3.13
						c-0.54-5.03-4.14-10.05-7.67-13.49L425.67,393z"/>
					<path class="st2" d="M413.79,385.46c0.75,6.88,1.48,15.55,7.1,21.05c3.5,3.43,5.26-1.02,4.83-3.93
						c-0.97-6.63-6.09-13.39-11.03-18.07L413.79,385.46z"/>
					<path class="st2" d="M422.06,388.84c2.62-2.19,4.65-4.8,7.88-6.12c2.81-1.15,5.86-0.87,8.66,0.18
						c1.23,0.46,2.79,0.85,3.45,2.15c0.92,1.81-1.4,1.77-2.77,1.87c-2.91,0.21-5.86,0.6-8.72,1.13c-1.58,0.29-3.07,0.52-4.62,0.66
						c-1.02,0.09-2.87,0.78-3.65,0.61"/>
					<path class="st2" d="M414.41,399.1c-1.34-3.5-6.63-14.44-8.3-18.79c-1.17-0.7-2.32-1.43-3.48-2.16
						c0.9,7.75,4.11,19.9,5.99,22.72c0.81,1.22,3,3.57,4.55,3.54C415.96,404.36,415,400.63,414.41,399.1z"/>
					<path class="st2" d="M393.31,395.39c-0.62-4.57-3.88-19.15-4.65-24.82c-1.2-1.17-2.38-2.36-3.56-3.57
						c-1.1,9.53-0.67,24.97,0.79,28.89c0.63,1.69,2.59,5.11,4.45,5.52C393.69,402.13,393.58,397.39,393.31,395.39z"/>
					<path class="st2" d="M400.5,376.13c1.68-1.26,5.52-8.17,16.62-9.89c1.58-0.24,3.69-0.42,4.84,0.93
						c1.59,1.88-0.78,2.93-2.3,3.56c-2.99,1.24-14.67,5.11-17.44,6.45"/>
					<path class="st2" d="M393.23,372.26c0.17,2.35-0.36,4.97-0.26,7.44c0.11,2.65,2.73,16.59,5.12,20.42
						c1.03,1.66,2.2,5.22,4.65,4.82c2.37-0.39,2.75-3.59,2.68-5.53c-0.16-4.52-8.54-23.06-11.35-27.53"/>
					<path class="st2" d="M391.82,370.79c5.24-7.6,19.16-14.99,21.1-14.33c4.2,1.45,0.41,6.63-1.79,8.19
						c-4.93,3.5-18.32,6.93-18.85,6.08"/>
				</g>
			</g>
			<g>
				<path class="st0" d="M389.01,401.1c-3.91-2.29-8.88-5.25-12.63-7.75c-4.89-3.25-8.09-2.07-10.52,3.18
					c-3,6.48-2.47,15.86-1.1,22.76c0.48,2.44,0.8,2.81,3.43,1.89c1.94-0.68,3.64-1.6,5.65-2.14c3.89-1.05,7.33-1.64,11.25-0.58
					c6.18,1.68,0.22,4.24-2.97,4.28c-3.71,0.05-7.54,0.58-11.1,1.86c-6.12,2.2,10.39,18.75,14.96,20.38
					c0.89-2.92,7.07-8.23,10.53-7.5c3.04,0.65,0.59,2.32-0.93,3.26c-1.74,1.09-3.46,1.93-4.6,3.62c-4.7,6.94,15.7,10.24,19.84,10.75
					c5.44,0.67,7.11,3.14,9.06,7.82c3.19-5.01,7.77-12.3,5.8-18.33c-0.96-2.92-3.91-4.62-6.24-6.34c-1.6-1.18-6.09-5.35-1.2-4.05
					c3.42,0.91,5.67,4.25,9.2,5.09c1.35-2.24,2.9-8.85,1.39-11.2c-1.82-2.82-8.19-1.53-10.98-2.7c2.89-3.54,8.11-0.72,11.67-0.4
					c1.42-5.12,1.98-14.64-1.39-19.39c-4.91-6.93-12.22,3.92-13.33,5.98c-0.82,1.52-2.4,4.03-2.51,0.8
					c-0.09-2.83,4.29-8.15,6.3-10.09c0.98-0.95,4.29-2.27,4.63-3.62c0.38-1.54-16.28-18.62-23.9-18.43
					C391.4,380.48,387.7,394.8,389.01,401.1z"/>
			</g>
		</g>
	</g>
	<g>
		<g>
			<g>
				<path class="st3" d="M456.06,264.35c-2.5-9.39-6.33-18.76-8.03-28.35c-3.82-21.57,3.3-43.62,3.26-65.62
					c-0.04-24.77-11.26-51.03-31.61-60.03c-3.16-1.4-6.37-2.34-9.63-2.92c-18.89-3.39-39.12,5.25-58.79,6.22
					c-49.8,2.48-93.13-44.16-142.98-44.74c-31.67-0.36-62.92,19.79-78.81,50.85c-5.23,10.2-9.04,21.66-16.48,29.9
					c-9.17,10.15-22.29,13.78-34.28,18.94c-24.38,10.47-39.76,37.27-26.96,65.79c5.32,11.87,12.99,22.7,15.47,35.72
					c0.67,3.5,0.94,7.02,0.93,10.54c-0.03,14.51-4.71,29.19-5.41,43.93c-1.75,37.16,26.71,73.04,59.51,73.9
					c25.24,0.66,47.99-16.44,72.62-22.74c23.9-6.1,49.31-1.73,71.88,9.07c17.57,8.4,33.53,20.49,50.51,30.34
					c16.97,9.84,35.64,17.54,54.66,16.04c19.01-1.49,38.3-13.99,44.75-34.34c6.03-19.01,0.29-41.29,7.95-59.52
					c8.02-19.06,29.05-29.47,33.11-50.07C459.26,279.56,458.09,271.95,456.06,264.35z"/>
			</g>
		</g>
	</g>
</g>
<g id="OBJECTS">
	<g>
		<defs>
			<rect id="SVGID_1_" x="23" y="119.29" width="454" height="380.71"/>
		</defs>
		<clipPath id="SVGID_2_">
			<use xlink:href="#SVGID_1_"  style="overflow:visible;"/>
		</clipPath>
		<g class="st4">
			<g>
				<path class="st5" d="M415.6,148.82c-2.24-5.41-4.13-11.33-7.77-15.91l2,3.99c-3.96-6.3-21.11-7.24-27.46-6.43
					c-4.4,0.56-8.92,2.88-12.28,5.79c-6.28,5.43-8.32,9.99-11.17,18.12c-3.41,9.75-3.24,17.45-0.32,27.41
					c2.31,7.91,6.05,16.14,13.74,19.87c9.5,4.61,22.34,3.58,31.15-2.02c9.17-5.82,14.87-17.2,15.63-28.31
					C419.66,163.23,418.68,156.27,415.6,148.82z"/>
			</g>
			<linearGradient id="SVGID_3_" gradientUnits="userSpaceOnUse" x1="386.3998" y1="436.1551" x2="386.3998" y2="635.7341">
				<stop  offset="0" style="stop-color:#29ABE2"/>
				<stop  offset="0.1086" style="stop-color:#22A1DB"/>
				<stop  offset="0.4513" style="stop-color:#0F87CA"/>
				<stop  offset="0.7577" style="stop-color:#0477C0"/>
				<stop  offset="0.9955" style="stop-color:#0071BC"/>
			</linearGradient>
			<path class="st6" d="M370.03,519.35l16.32-110.93h14.92l4.42,110.93h30.13l4.34-123.66h-97.3
				c-4.56,33.96-7.71,76.81-10.21,123.66H370.03z"/>
			<path class="st7" d="M440.15,395.7h-97.3c2.34-17.42,5.06-32.5,8.25-44.59l-16.87-69.88l-8.5-35.2
				c0.95-9.68,28.46-21.77,44.77-28.13c2.03-0.79,3.9-1.5,5.51-2.1c3.86-1.43,6.3-2.25,6.3-2.25h21.97l4.26,1.77l5.65,2.34l20,8.29
				l0,90.19c0,4.2,0.17,8.4,0.51,12.58L440.15,395.7z"/>
			<linearGradient id="SVGID_4_" gradientUnits="userSpaceOnUse" x1="334.2304" y1="338.2899" x2="360.8647" y2="338.2899">
				<stop  offset="0" style="stop-color:#29ABE2"/>
				<stop  offset="0.1086" style="stop-color:#22A1DB"/>
				<stop  offset="0.4513" style="stop-color:#0F87CA"/>
				<stop  offset="0.7577" style="stop-color:#0477C0"/>
				<stop  offset="0.9955" style="stop-color:#0071BC"/>
			</linearGradient>
			<path class="st8" d="M360.86,395.14l-18.01,0.56c2.34-17.42,5.06-32.5,8.25-44.59l-16.87-69.88l20.79,0.1
				C355.02,281.33,356.48,267.44,360.86,395.14z"/>
			<path class="st9" d="M414.34,220.44c0,13.32-9.85,24.13-21.98,24.13c-12.14,0-21.98-10.81-21.98-24.13
				c0-0.86,0.04-1.72,0.12-2.55c2.04-0.79,3.9-1.5,5.51-2.1c3.86-1.43,6.3-2.25,6.3-2.25h21.97l4.26,1.77l5.65,2.35
				C414.29,218.57,414.34,219.5,414.34,220.44z"/>
			<path class="st10" d="M409.64,221.38c0,9.55-7.74,17.28-17.28,17.28c-9.55,0-17.28-7.74-17.28-17.28c0-1.95,0.33-3.84,0.94-5.59
				c3.86-1.43,6.3-2.25,6.3-2.25h21.97l4.26,1.77C409.25,217.2,409.64,219.24,409.64,221.38z"/>
			<rect x="377.9" y="195.57" class="st10" width="29.2" height="25.59"/>
			<g>
				<path class="st5" d="M421.97,161.21c-0.53-5.4-8.57-21.5-13.7-12.02l0,0c-0.38,2.24-0.12,4.59,0.87,6.59
					c2.69,5.42,5.84,15.87,6.19,20.03c0.49,5.71,0.9,14.97-1.75,20.34C421.36,186.83,422.99,171.71,421.97,161.21z"/>
			</g>
			<path class="st11" d="M355.57,178.71c1.78,6.81,7.04,8.79,11.88,10.02c0.2,0.4,0.4,0.76,0.64,1.15
				c2.81,4.97,6.66,9.72,10.98,13.36c5.87,5,12.57,7.94,18.6,6.7c9.88-2.07,17.58-10.36,20.98-20.23c0.17-0.49,0.33-0.99,0.47-1.48
				c1.22-4.05,1.73-8.4,1.33-12.6c-3.4-38.09-16.4-44.96-31.09-43.23c-11.25,1.32-22.12,18.84-25.01,34.35
				c-1.55-0.84-3.06-1.3-4.43-1.16C355.42,166.13,354.17,173.32,355.57,178.71z"/>
			<g>
				<path class="st5" d="M434.64,127.69c-2.55,2.43-3.41,5.83-7.57,6.34c-0.11-1.13,1.34-2.97,1.48-4.41
					c0.12-1.21,0.05-2.62-0.04-3.83c-1.18,3.55-8.07,6.38-11.39,6.68c0.33-1.5,2.36-2.77,3.14-4.2c0.65-1.19,1.34-2.64,1.67-3.92
					c-3.99,4.49-9.72,4.76-15.28,5.31c-3.82,0.38-7.73,0.24-11.58,0.28c-2.67,0.02-5.3,0.93-7.92,1.41
					c-9.33,1.71-17.54,7.65-21.45,16.53c-1.27,2.89-3.85,9.66-2.01,13.33c-0.31,3.82,0.77,7.64,1.52,11.62
					c0.97,5.15,2.54,9.86,4.69,14.66c0.78,1.74,2.35,4.34,3.18,6.66c-0.1-2.6,0.25-5.45,0.25-7.75c0-5.78,0.39-11.76,2.18-17.3
					c0.01-0.03,0.02-0.06,0.03-0.09c2.15-6.63,7.74-11.62,14.59-12.89c0.57-0.11,1.14-0.2,1.72-0.27
					c7.52-0.94,15.28,0.09,22.77-1.15c3.7-0.61,7.48-1.81,10.87-3.44c3.21-1.54,4.74-3.73,5.95-6.98
					C433.29,139.32,435.07,133.06,434.64,127.69z"/>
			</g>
			<path class="st5" d="M389.56,172.16c-0.04,1.64,1.13,2.99,2.61,3.03c1.49,0.04,2.73-1.26,2.77-2.89
				c0.04-1.63-1.13-2.99-2.61-3.03C390.84,169.23,389.6,170.52,389.56,172.16z"/>
			<path class="st5" d="M408.1,172.26c-0.04,1.64,1.13,2.99,2.61,3.03c1.49,0.04,2.73-1.25,2.77-2.89c0.04-1.64-1.13-2.99-2.61-3.03
				C409.38,169.33,408.15,170.62,408.1,172.26z"/>
			<g>
				<path class="st5" d="M383.14,166.39c0.35,0.03,0.69-0.15,0.87-0.47c2.82-5.11,7.53-2.89,7.73-2.8c0.45,0.22,1,0.03,1.23-0.42
					c0.22-0.46,0.03-1.01-0.43-1.23c-2.23-1.08-7.22-1.73-10.14,3.56c-0.25,0.44-0.08,1,0.36,1.25
					C382.88,166.34,383.01,166.38,383.14,166.39z"/>
			</g>
			<g>
				<path class="st5" d="M398.94,190.06c-0.14-0.32-0.45-0.55-0.82-0.56c-5.83-0.17-6.02-5.37-6.03-5.59
					c-0.01-0.51-0.43-0.9-0.94-0.9c-0.51,0.01-0.91,0.43-0.89,0.94c0.06,2.48,1.77,7.21,7.81,7.39c0.51,0.01,0.93-0.38,0.94-0.89
					C399.01,190.31,398.99,190.18,398.94,190.06z"/>
			</g>
			<g>
				<path class="st5" d="M408.07,162.59c0.21,0.21,0.52,0.29,0.81,0.18c4.6-1.69,6.37,2.3,6.45,2.47c0.17,0.39,0.62,0.57,1.01,0.4
					c0.39-0.17,0.57-0.62,0.4-1.01c-0.82-1.91-3.64-5.06-8.4-3.31c-0.4,0.15-0.6,0.59-0.45,0.99
					C407.93,162.42,407.99,162.52,408.07,162.59z"/>
			</g>
			<g>
				<path class="st5" d="M407.07,185.8c0.59-0.16,1.1-0.47,1.5-0.92c1.27-1.43,1.03-3.84-0.65-6.45l-4.62-8.95
					c-0.18-0.34-0.59-0.49-0.95-0.3c-0.35,0.18-0.48,0.6-0.3,0.95l4.65,9.01c1.58,2.47,1.45,4.1,0.81,4.81
					c-0.66,0.74-1.95,0.77-3.32,0.11c-0.35-0.17-0.8-0.05-0.98,0.29c-0.17,0.34-0.08,0.74,0.26,0.92
					C404.8,185.92,406.05,186.08,407.07,185.8z"/>
			</g>
			<path class="st10" d="M434.19,225.95c0,0,14.65,3.24,17.7,15.26l12.95,65.28c0.5,2.52,0.79,5.08,0.74,7.64
				c-0.45,23.6-33.24,16.96-60.67,8.66l28.77-22.39L434.19,225.95z"/>
			<path class="st7" d="M433.3,285.28l29.25-2.49c0,0-3.3-27.32-12.65-47c-2.65-5.57-9.02-8.4-15.7-9.84L433.3,285.28z"/>
			<path class="st11" d="M414.51,315.33l-37.07,28.86c-6.12,4.18-11.41,6.91-15.93,8.63c-11.5,4.37-24.11-2.49-27.47-14.83
				c-9.83-36.14-12.62-75.02-8.41-91.95c5.76-4.43,12.45,0.79,17.71,7.12c5.52,6.65,14.44,62.89,14.44,62.89l48.89-10.98
				c0.03-0.03,0.07-0.07,0.1-0.1C408.81,307.56,412.29,312.29,414.51,315.33z"/>
			<path class="st7" d="M324.1,247.82c-5.08,17.84,1.62,64.16,1.62,64.16l33.96-13.83c0,0-5.3-61.58-29.15-56.38
				C327.46,242.44,324.97,244.79,324.1,247.82z"/>
			<path class="st10" d="M359.69,300.57c0,0-12.35-1.58-17.75-6.47c0,0-2.56-0.46-2.22,2.53c0.12,1.08,0.6,2.1,1.32,2.92
				c1.36,1.56,4.33,3.9,10.08,4.24L359.69,300.57z"/>
			<g>
				<path class="st10" d="M375.33,305.17c-1.96,0.12-3.91-0.29-5.64-1.2c-4.89-2.59-16.4-7.03-25.65,2.04l-11.58,12.36
					c0,0-1.21,1.44-1.58,2.98c-0.12,0.48-0.15,0.99-0.04,1.45c0.09,0.35,0.27,0.69,0.57,0.97c0.24,0.24,0.53,0.44,0.93,0.61
					c1.11,0.49,2.92,0.71,5.76,0.44c4.34-0.41,8.53-1.79,12.37-3.87l9.02-4.9l9.41-2.01l41.92-8.96L375.33,305.17z"/>
				<g>
					<path class="st12" d="M348.69,307.28c-1.24,0.36-10.7,8.88-17.85,15.51c-0.11-0.46-0.08-0.97,0.04-1.45
						c5.61-5.18,15.89-14.58,17.52-15.05L348.69,307.28z"/>
				</g>
				<g>
					<path class="st12" d="M349.98,312.1l-17.65,12.27c-0.39-0.16-0.69-0.37-0.93-0.61l17.99-12.51L349.98,312.1z"/>
				</g>
			</g>
			<path class="st11" d="M433.69,300.41l-19.18,14.92c-2.22-3.03-5.7-7.77-7.75-10.36C421.42,289.52,433.69,300.41,433.69,300.41z"
				/>
			<rect x="360.86" y="259.2" class="st9" width="25.49" height="4.43"/>
		</g>
		<g class="st4">
			<g>
				<path class="st13" d="M161.73,180.76c4.24-4.71,6.43-13.19,1.34-17.95c-3.9-3.65-9.67-3.38-14.37-4.89
					c-8.41-2.7-16.97-3.4-25.71-3.4c-5.57,0-12.15,0.52-16.57-3.6l7.73-3.6c-3.44,1.35-8.67,2.18-12.69,3.79
					c-2.27,0.91-5.12,1.89-5.69,4.81c-0.56,2.85,1.57,3.96,2.79,6.11c-2.59,1.31-12.65,8.32-4.76,10.47
					c-4.21,1.79-8.25,4.96-9.85,10c-1.68,5.32,0.64,9,6.14,7.81c-0.07,3.69-5.52,24.67,5.31,17.49c1.71,4.07,1.25,8.95,5.64,11.66
					c3.46,2.14,6.62,0.6,8.34-3.29c1.89,4.16,14.74,13.64,14.41,3.21c2.99,1.81,4.07,5.82,8.6,5.48c3.49-0.27,6.77-2.98,5.46-7.1
					c6.35,5.62,18.67,2.95,14.8-7.94c5.18-0.49,13.29-5.51,6.21-11.09c5.38-1.27,9.17-1.04,9.88-8.22
					C169.17,186.13,166.52,180.33,161.73,180.76z"/>
			</g>
			<path class="st7" d="M93.1,235.18c-13.62,11.74-14.28,43.35-11.3,76.84l-32.16-1.86l4.28,17.65l34.16,6.84
				c6.49,1.3,12.54-3.66,12.54-10.27v-86.45L93.1,235.18z"/>
			<linearGradient id="SVGID_5_" gradientUnits="userSpaceOnUse" x1="75.6294" y1="481.2473" x2="186.6547" y2="481.2473">
				<stop  offset="0" style="stop-color:#29ABE2"/>
				<stop  offset="0.1086" style="stop-color:#22A1DB"/>
				<stop  offset="0.4513" style="stop-color:#0F87CA"/>
				<stop  offset="0.7577" style="stop-color:#0477C0"/>
				<stop  offset="0.9955" style="stop-color:#0071BC"/>
			</linearGradient>
			<path class="st14" d="M84.66,530.53h38.12l5.16-60.09l4.5-0.53l7.17,60.63h40.76l6.1-93.56c0.02-0.22,0.02-0.42,0.04-0.63
				c0.1-1.45,0.16-2.91,0.16-4.38H75.63c0.06,1.51,0.18,2.95,0.36,4.38L84.66,530.53z"/>
			<rect x="75.63" y="431.38" class="st15" width="111.03" height="6.02"/>
			<path class="st16" d="M112.15,224.79l1.23-0.16c0.8-0.08,1.5-0.35,2.1-0.8c1.09-0.78,1.79-2.08,1.81-3.52
				c0.02-1.07,0.08-2.14,0.16-3.19c0.02-0.41,0.04-0.82,0.08-1.22c0.06-1.61,0.17-3.21,0.33-4.76l0.78-8.52l22.03-9
				c-1.15,2.12-2.76,18.82-2.61,22.09c0.04,0.86,0.12,1.79,0.25,2.76c0,0,0,0,0,0.04c0.06,0.27,0.12,0.53,0.19,0.78
				c0.43,1.57,0.99,2.78,1.81,3.73C123.33,244.68,113.88,245.42,112.15,224.79z"/>
			<path class="st7" d="M186.66,431.96H75.63c-0.93-26.44,18.08-63.31,25.43-73.77c0.28-0.35,0.51-0.7,0.74-1.02
				c0.87-1.22,1.42-2.67,1.46-4.17c0.02-0.88-0.1-1.72-0.42-2.56c-0.21-0.65-0.53-1.58-0.97-2.75
				c-4.06-11.85-16.12-47.26-18.11-58.53c-2.64-14.95,9.35-53.99,9.35-53.99l15.31-8.63c-8.21,18.58,6.1,32.52,6.1,32.52
				c20.01-7.68,26.44-24.35,28.5-33.51c0.37,0.2,0.79,0.39,1.23,0.53c0.02,0.02,0.02,0.02,0.04,0.02h0.02l10.85,1.63v0.04
				c1.84,0.16,10.58,2.39,11.72,4.68c0.55,1.09,0.84,2.32,0.78,3.61c0,0.15-0.01,0.29-0.02,0.44c-0.65,7.42-1.39,15.03-0.06,22.16
				c1.04,5.77,2.77,11.37,3.7,17.14c1.21,7.7,0.03,15.03-2.91,22.22c-1.55,3.82-6.84,28.99-9.81,43.45
				c-0.23,1.3-0.41,2.58-0.48,3.88c-0.16,3.45,0.42,6.85,1.63,10.04c0.63,1.69,1.46,3.27,2.45,4.8l0.42,0.63
				C162.57,360.83,186.68,398.05,186.66,431.96z"/>
			<linearGradient id="SVGID_6_" gradientUnits="userSpaceOnUse" x1="164.5529" y1="266.6636" x2="164.5529" y2="384.2894">
				<stop  offset="0" style="stop-color:#ECADB5"/>
				<stop  offset="1" style="stop-color:#DD819A"/>
			</linearGradient>
			<path class="st17" d="M186.66,431.96h-9.55c-7.52-24.82-18.32-47.89-26.72-63.96c-8.05-15.4-10.05-33.24-5.69-50.06l22.16-85.48
				l0.78,3.61c0,0.15-0.01,0.29-0.02,0.44c-0.65,7.42-1.39,15.03-0.06,22.16c1.04,5.77,2.77,11.37,3.7,17.14
				c1.21,7.7,0.03,15.03-2.91,22.22c-1.55,3.82-6.84,28.99-9.81,43.45c-0.23,1.3-0.41,2.58-0.48,3.88
				c-0.16,3.45,0.42,6.85,1.63,10.04c0.63,1.69,1.46,3.27,2.45,4.8l0.42,0.63C162.57,360.83,186.68,398.05,186.66,431.96z"/>
			<rect x="87.12" y="265.47" class="st9" width="22.26" height="5.63"/>
			<g>
				<g>
					<path class="st18" d="M154.98,187.61c1.77-4.68,1.33-11.24-2.65-12.14c-1.19-0.27-2.61-0.01-4.06,0.6
						c-1.12-14.16-9.2-30.88-19.14-33.13c-13-2.95-25.29,1.97-31.97,35.77c-2.65,13.37,4.54,28.84,17.15,32.88
						c9.47,3.04,22.23-5.85,29.08-16.13C147.84,194.83,152.73,193.54,154.98,187.61z"/>
					<g>
						<g>
							<g>
								<path class="st5" d="M109.56,196.96c-0.82-0.11-1.32-0.23-1.34-0.24c-0.44-0.12-0.7-0.57-0.59-1.01
									c0.12-0.44,0.53-0.72,1.01-0.59c0.4,0.11,10.03,2.54,13.72-6.65c0.17-0.42,0.64-0.63,1.08-0.46
									c0.42,0.17,0.63,0.65,0.46,1.08C120.53,197.48,112.7,197.37,109.56,196.96z"/>
							</g>
						</g>
						<path class="st5" d="M125.17,178.51c-0.12,1.47-1.29,2.57-2.63,2.47c-1.33-0.11-2.32-1.38-2.2-2.85
							c0.12-1.47,1.29-2.57,2.63-2.47C124.3,175.76,125.29,177.04,125.17,178.51z"/>
						<path class="st5" d="M108.55,176.84c-0.12,1.47-1.29,2.57-2.63,2.47c-1.33-0.11-2.32-1.38-2.2-2.85
							c0.12-1.47,1.29-2.57,2.63-2.47C107.68,174.09,108.67,175.37,108.55,176.84z"/>
						<g>
							<g>
								<path class="st5" d="M131.47,173.95c-0.31-0.01-0.61-0.2-0.74-0.51c-2.04-4.84-6.47-3.31-6.66-3.24
									c-0.43,0.15-0.9-0.07-1.06-0.5c-0.15-0.43,0.07-0.9,0.5-1.06c2.1-0.76,6.63-0.86,8.75,4.15c0.18,0.42-0.02,0.91-0.44,1.08
									C131.7,173.93,131.58,173.95,131.47,173.95z"/>
							</g>
						</g>
						<g>
							<g>
								<path class="st5" d="M109.5,168.18c-0.2,0.17-0.49,0.21-0.75,0.08c-3.96-1.95-5.93,1.45-6.01,1.6
									c-0.19,0.33-0.61,0.45-0.95,0.27c-0.33-0.19-0.45-0.61-0.26-0.95c0.92-1.63,3.74-4.19,7.84-2.16
									c0.34,0.17,0.49,0.59,0.31,0.93C109.64,168.05,109.58,168.12,109.5,168.18z"/>
							</g>
						</g>
					</g>
				</g>
			</g>
			<g>
				<path class="st5" d="M111.11,189.71c0.42,0,0.76-0.34,0.76-0.76c0-0.42-0.34-0.76-0.76-0.77c-0.01,0-1.47-0.04-1.84-0.82
					c-0.17-0.36-0.34-1.48,1.77-4.11c0.26-0.33,0.21-0.81-0.12-1.07c-0.33-0.26-0.81-0.21-1.07,0.12c-1.98,2.47-2.62,4.34-1.96,5.72
					C108.7,189.69,111.01,189.71,111.11,189.71L111.11,189.71z"/>
			</g>
			<g>
				<linearGradient id="SVGID_7_" gradientUnits="userSpaceOnUse" x1="156.2623" y1="350.8048" x2="161.8504" y2="391.7838">
					<stop  offset="0" style="stop-color:#29ABE2"/>
					<stop  offset="0.1086" style="stop-color:#22A1DB"/>
					<stop  offset="0.4513" style="stop-color:#0F87CA"/>
					<stop  offset="0.7577" style="stop-color:#0477C0"/>
					<stop  offset="0.9955" style="stop-color:#0071BC"/>
				</linearGradient>
				<polygon class="st19" points="171.25,412 178.33,404.93 153.63,380.23 146.55,387.3 				"/>
				
					<rect x="155.43" y="383.63" transform="matrix(0.7071 -0.7071 0.7071 0.7071 -237.4956 228.8188)" class="st15" width="4.07" height="34.93"/>
			</g>
			<g>
				
					<linearGradient id="SVGID_8_" gradientUnits="userSpaceOnUse" x1="93.2466" y1="359.3979" x2="98.8347" y2="400.3767" gradientTransform="matrix(0.9235 -0.0765 -0.0765 0.9235 38.8086 38.8086)">
					<stop  offset="0" style="stop-color:#29ABE2"/>
					<stop  offset="0.1086" style="stop-color:#22A1DB"/>
					<stop  offset="0.4513" style="stop-color:#0F87CA"/>
					<stop  offset="0.7577" style="stop-color:#0477C0"/>
					<stop  offset="0.9955" style="stop-color:#0071BC"/>
				</linearGradient>
				<polygon class="st20" points="89.88,412.44 83.89,406.45 108.59,381.75 114.58,387.74 				"/>
				<linearGradient id="SVGID_9_" gradientUnits="userSpaceOnUse" x1="89.8818" y1="401.3138" x2="117.0233" y2="401.3138">
					<stop  offset="0" style="stop-color:#29ABE2"/>
					<stop  offset="0.1086" style="stop-color:#22A1DB"/>
					<stop  offset="0.4513" style="stop-color:#0F87CA"/>
					<stop  offset="0.7577" style="stop-color:#0477C0"/>
					<stop  offset="0.9955" style="stop-color:#0071BC"/>
				</linearGradient>
				<polygon class="st21" points="89.88,412.44 92.32,414.88 117.02,390.18 114.58,387.74 				"/>
			</g>
			<path class="st9" d="M143,225.56c-2.06,9.17-8.5,25.83-28.5,33.51c0,0-14.3-13.94-6.1-32.51l3.48-1.09
				c1.76,21.01,11.39,20.26,28.68-1.8c0.51,0.63,1.15,1.17,1.9,1.6C142.65,225.36,142.83,225.46,143,225.56z"/>
			<g>
				<path class="st13" d="M156.82,154.93c-4.26-8.15-12.47-13.95-21-16.23c-7.72-2.06-18.31-1.73-25.11,3.31
					c-6.19,4.59-11.52,12.32-10.98,20.82c0,0,0,0.01,0,0.01c0.09,1.88,2.42,2.68,3.6,1.21c1.52-1.9,3.11-3.77,4.68-4.34
					c1.01,2.58,3.19,4.31,5.76,4.55c2.64,0.25,5.22,0,6.62-1.84c0,0,0,0,0,0c0.68,2.89,4.05,4.28,6.59,2.77
					c1.32-0.78,2.67-1.49,4.05-2.12c2.11,7.41,4.21,14.81,6.32,22.22c0.56,1.98,1.26,4.14,2.93,5.15c1.68,1.01,3.78,0.49,5.55-0.3
					C158.22,184.62,163.4,167.55,156.82,154.93z"/>
			</g>
			<g>
				<path class="st18" d="M224.63,316.51c-13.58,14.83-34.98,25.42-60.94,33.52c0,0,1.64,8.93-15.49,8.26
					c-0.81-0.03-1.61-0.27-2.33-0.68c-0.33-0.2-0.65-0.42-0.94-0.67c-0.12-0.12-0.25-0.25-0.37-0.37c-0.26-0.27-0.53-0.57-0.81-0.89
					c-0.23-0.25-0.44-0.5-0.68-0.78c-0.56-0.69-1.13-1.45-1.62-2.23c-0.2-0.3-0.37-0.6-0.52-0.89c-0.89-1.67-1.32-3.37-0.54-4.67
					c1.18-1.97,3.44-4.3,7.31-7.03c0,0,8.55-5.87,11.41-2.06l1.22,1.81l36.04-29.12l-20.41-21.46c-6.75-7.1-10.6-16.47-10.78-26.26
					l-0.61-32.32c5.02,1.26,43.89,51.24,60.27,70.47C228.46,305.4,228.41,312.4,224.63,316.51z"/>
				<g>
					<path class="st16" d="M158.1,351.24l-12.23,6.38c-0.33-0.2-0.65-0.42-0.94-0.67l12.69-6.62L158.1,351.24z"/>
				</g>
				<g>
					<path class="st16" d="M155.65,347.27l-11.91,8.41c-0.23-0.25-0.44-0.5-0.68-0.78l11.99-8.47L155.65,347.27z"/>
				</g>
				<g>
					<path class="st16" d="M152.72,343.64l-11.27,9.03c-0.2-0.3-0.37-0.6-0.52-0.89l11.16-8.94L152.72,343.64z"/>
				</g>
			</g>
			<path class="st13" d="M45.55,270.27l44.04-0.57c2.47-0.03,4.63,1.66,5.19,4.07l16.18,70.18c0.75,3.27-1.7,6.39-5.05,6.43
				l-44.38,0.57c-2.48,0.03-4.65-1.68-5.19-4.1l-15.83-70.19C39.75,273.42,42.2,270.31,45.55,270.27z"/>
			<path class="st18" d="M52.95,327.92c-0.62,0.07-1.24-0.13-1.75-0.55c-4.14-3.49-4.92-10.53-5.02-14.25
				c-0.04-1.39,0.86-2.61,2.11-2.79c8.44-1.27,12.68,1.56,14.8,4.58c0.28,0.38,0.5,0.76,0.71,1.13c0.24,0.43,0.43,0.86,0.6,1.27
				c0.14,0.35,0.27,0.69,0.36,1c0.15,0.49,0.26,0.92,0.33,1.28c0.1,0.54,0.13,0.9,0.14,1.02c0,0.02,0,0.03,0,0.03
				C65.81,326.11,56.01,327.6,52.95,327.92z"/>
			<g>
				<path class="st16" d="M63.82,316.04c-3.25-0.52-10.35-0.78-12.75-0.79v-1.03c0.84,0,7.94,0.15,12.04,0.69
					C63.38,315.29,63.61,315.67,63.82,316.04z"/>
			</g>
			<g>
				<path class="st16" d="M64.77,318.3l-13.61,1.2l-0.08-1.03l13.34-1.17C64.55,317.66,64.68,318,64.77,318.3z"/>
			</g>
			<g>
				<path class="st16" d="M65.24,320.6c-3.8,1.49-10.91,3.14-13.11,3.56l-0.2-1.02c4.46-0.84,10.32-2.46,13.16-3.56
					C65.2,320.13,65.23,320.49,65.24,320.6z"/>
			</g>
			<path class="st7" d="M164.55,230.65l1.08,35.8c0.21,6.86,2.66,13.46,6.97,18.8l16.19,20.01l21.3-25.66
				C210.09,279.59,170.34,227.91,164.55,230.65z"/>
		</g>
		<g class="st4">
			<g>
				<path class="st5" d="M227.98,177.51c-2.23,6.06-2.84,12.32-5.59,18.23c-4.23,9.11-13.59,11.82-19.94,19.08
					c-2.51,2.87-3.77,5.47-3.51,9.27c0.39,5.59,4.76,6.8,6.76,11.53c3.98,9.39-5.68,10.33-12.14,14.79
					c-22.51,15.53-13.01,43.19,11.48,48.5c12.36,2.68,22.99-0.22,33.91,7.58c9.33,6.67,15.21,12.28,27.01,14.01
					c10.84,1.59,23.39,1.83,34.29,0.35c12.81-1.74,19.36-9.51,30.89-13.55c9.04-3.17,20.94,3.03,27.82-4.14
					c5.97-6.22,8.74-19.72,2.75-26.21c-9.13-9.9-21.89-12.37-24.54-27.31c-1.65-9.32,2.05-18.99,0.22-28.21
					c-2.29-11.49-16.89-19.99-25.2-27.04c-8.1-6.88-6.17-12.3-7.96-22.15c-3.4-18.77-20.44-39.56-41-37.94
					c-21.69,1.71-37.08,24.29-35.94,45.26"/>
			</g>
			<path class="st11" d="M224.27,236.93c0,0-13.55,1.85-13.55,22.86l-2.93,68.09l-29.78,89.09c-1.12,3.36-1.7,6.88-1.7,10.43v20.72
				l14.85,11.95c0,0,3.26-1.81-9.05-11.95l0.72-16.3c0,0,2.17,15.21,4.71,15.21c1.68-0.16,1.27-10.59,1.11-19.78
				c-0.02-1.05-0.24-2.08-0.66-3.04l-1.89-4.3l37.56-71.71c4.09-7.8,5.98-16.56,5.48-25.35L224.27,236.93z"/>
			<path class="st7" d="M224.27,236.93c0,0-22.56,0.5-18.44,63.04h22.82L224.27,236.93z"/>
			<path class="st7" d="M313.46,408.75c-26.34,8.91-55.54,14.66-80.33,8.75c-9.18-2.14-17.72-5.9-25.33-11.68
				c0,0,9.95-35.75,20.24-62.64c1.69-4.33,2.95-11.7,2.71-16.36c-0.75-15.07-7.53-26.13-9.43-40.66
				c-1.65-12.45,2.97-49.23,2.97-49.23s23.03-7.98,24.99-8c0.12,0,0.27,0,0.39-0.02c-0.16,2.71-0.18,6,0.22,9.36
				c1.57,13,18.54,17.62,26.26,7.04c2.5-3.42,4.67-7.9,5.76-13.65l2.14,0.32l0.83,0.12c5.65,0.84,16.19,2.22,16.19,2.22
				c-0.89,8.85-3.05,18.35-1.79,27.23c0.75,5.27,2.12,10.5,2.71,15.8c0.79,7.13-0.53,13.8-3.54,20.26c-3.66,8-6.92,17.11-7.79,26.01
				c-1.87,19.04,6.41,36.09,13.18,53.44C309.8,392.25,313.46,408.75,313.46,408.75z"/>
			<path class="st13" d="M247.19,302.54l16.33,59.32c0.77,2.79,3.68,4.4,6.45,3.57l38.7-11.55c2.67-0.8,4.23-3.57,3.51-6.27
				l-15.37-57.66c-0.73-2.72-3.5-4.36-6.23-3.67l-39.66,9.89C248.1,296.87,246.42,299.75,247.19,302.54z"/>
			<rect x="229.91" y="272.85" class="st9" width="19.64" height="4.49"/>
			<path class="st9" d="M284.03,231.98c0.38,21.91-21.05,38.72-21.05,38.72c-18.39-9.2-17.07-40.93-17.07-40.93
				c0.05-0.13,3.67-1.02,3.74-0.86c-0.16,2.71-0.18,6,0.22,9.36c1.57,13,18.54,17.62,26.26,7.04c2.5-3.42,4.67-7.9,5.76-13.65
				L284.03,231.98z"/>
			<path class="st11" d="M232.59,233.12"/>
			<path class="st10" d="M276.2,230.78c-1.46-0.22-2.48-1.53-2.36-2.97l0.38-3.72c0-0.03,0-0.03,0-0.03l1.59-10.07l-19.32-5.53
				c0,0-1.44,10.88-1.56,12.35c-0.09,0.84-0.19,1.69-0.22,2.53l-0.01,0.01l-0.37,1.55c-0.54,2.21-2.43,3.8-4.62,3.95
				c-0.02,0.02-0.03,0.03-0.06,0.05c-0.16,2.71-0.18,6,0.22,9.36c1.57,13,18.53,17.61,26.26,7.04c2.5-3.42,4.68-7.89,5.76-13.65
				L276.2,230.78z"/>
			<path class="st11" d="M234.32,173.79c1.27-0.05,2.68,0.47,4.06,1.37c2.22-8.42,7.09-17.27,12.87-23.25
				c2.45-2.99,5.19-4.89,8.14-5.97c1.6-0.7,3.21-1.14,4.8-1.21c1.09-0.05,2.17-0.04,3.23,0.02c1.06,0.03,2.14,0.11,3.22,0.26
				c1.58,0.21,3.14,0.79,4.67,1.62c2.84,1.33,5.41,3.46,7.6,6.65c5.25,6.46,9.33,15.69,10.82,24.27c1.44-0.77,2.9-1.18,4.16-1.02
				c4.22,0.55,5.31,7.32,3.93,12.35c-1.75,6.38-6.71,8.19-11.27,9.28c-2.25,4.17-5.36,8.23-8.88,11.57
				c-3.71,4.01-8.4,6.9-13.66,7.94c-0.15,0.03-0.31,0.06-0.46,0.09c-0.3,0.05-0.6,0.13-0.91,0.17c-0.21,0.03-0.42,0.02-0.63,0.04
				c-0.18,0.01-0.35,0.02-0.53,0.03c-0.4,0.02-0.81,0.03-1.21,0.01c-0.41-0.02-0.81-0.06-1.21-0.11c-0.17-0.02-0.35-0.04-0.52-0.07
				c-0.21-0.04-0.42-0.04-0.62-0.09c-0.3-0.07-0.59-0.17-0.89-0.25c-0.15-0.04-0.3-0.08-0.45-0.13c-5.15-1.48-9.57-4.77-12.93-9.09
				c-3.22-3.64-5.97-7.94-7.85-12.29c-4.46-1.48-9.24-3.71-10.43-10.22C228.41,180.62,230.08,173.97,234.32,173.79z"/>
			<g>
				<g>
					<path class="st5" d="M267.47,204.04c3.01-0.8,6.35-2.83,7.93-7.71c0.13-0.4-0.09-0.83-0.49-0.96c-0.4-0.13-0.83,0.09-0.96,0.49
						c-2.83,8.7-11.84,7.06-12.22,6.99c-0.41-0.08-0.81,0.19-0.9,0.6c-0.08,0.41,0.19,0.81,0.6,0.89
						C261.49,204.36,264.3,204.88,267.47,204.04z"/>
				</g>
				<g>
					<path class="st5" d="M278.11,186.11c-0.16,1.43-1.44,2.46-2.86,2.3c-1.42-0.16-2.44-1.44-2.28-2.87
						c0.16-1.43,1.44-2.46,2.86-2.3C277.25,183.39,278.27,184.68,278.11,186.11z"/>
				</g>
				<g>
					<path class="st5" d="M257.15,185.21c-0.16,1.43-1.44,2.46-2.86,2.3c-1.42-0.16-2.44-1.44-2.28-2.87
						c0.16-1.43,1.44-2.46,2.86-2.3C256.29,182.49,257.31,183.78,257.15,185.21z"/>
				</g>
				<g>
					<path class="st5" d="M281.55,179.72c0.03-0.01,0.05-0.02,0.08-0.03c0.39-0.15,0.59-0.59,0.44-0.99
						c-1.81-4.7-5.99-4.71-7.96-4.08c-0.4,0.13-0.62,0.56-0.49,0.96c0.13,0.4,0.51,0.63,0.96,0.49c0.14-0.04,4.32-1.32,6.05,3.18
						C280.78,179.63,281.17,179.82,281.55,179.72z"/>
				</g>
				<g>
					<path class="st5" d="M258.66,175.78c0.02-0.02,0.03-0.05,0.04-0.07c0.21-0.37,0.08-0.83-0.29-1.04
						c-4.38-2.48-7.62,0.16-8.74,1.89c-0.23,0.35-0.12,0.82,0.23,1.05c0.35,0.23,0.8,0.16,1.06-0.23c0.08-0.12,2.5-3.76,6.7-1.39
						C258.01,176.19,258.43,176.09,258.66,175.78z"/>
				</g>
				<g>
					<path class="st5" d="M262.45,196.11c0.41,0.02,0.75-0.3,0.77-0.7c0.02-0.41-0.29-0.75-0.7-0.78c-0.01,0-1.42-0.1-1.75-0.87
						c-0.15-0.36-0.27-1.46,1.89-3.93c0.27-0.31,0.24-0.77-0.07-1.04c-0.31-0.27-0.77-0.24-1.05,0.07
						c-2.02,2.31-2.73,4.11-2.14,5.48C260.11,195.99,262.35,196.11,262.45,196.11L262.45,196.11z"/>
				</g>
			</g>
			<g>
				<path class="st5" d="M295.63,156.65c-0.95-6.64-6.11-12.47-11.82-15.38c-6.05-3.09-13.29-3.32-19.79-1.7
					c-8.18,2.03-17.29,6.69-22.75,13.17c-3.12,3.69-5.59,10.17-6.84,17.56c-1.43,8.4,9.65,12.44,14.28,5.29
					c0.16-0.24,0.32-0.48,0.48-0.7c3.21-4.35,9.21-4.14,14.32-3.71c7.62,0.64,14.5,0.63,20.79-4.35c-0.21,2.79,0.29,5.29,0.88,8.19
					C287,183.92,300.2,188.42,295.63,156.65z"/>
			</g>
			<path class="st11" d="M348.75,324.84c-17.06,9.28-49.54,12.91-80.84,16.97c0,0-6.14,3.61-11.01,4.57
				c-1.77,0.35-3.54-0.54-4.34-2.16c-1.45-2.92-3.68-8.01-3.86-11.82c-0.1-1.97,1.41-3.64,3.37-3.78l8.63-0.6l-7.1-1.69
				c-0.93-0.22-1.25-1.41-0.52-2.01c2.06-1.75,8.54-2.5,15.69,3.85c15.22-1.83,36.79-9.81,59.24-18.64l-8.95-10.66l-19.56-23.31
				l-0.39-0.46c0,0-0.04-0.22-0.11-0.63c-0.77-4.59-5.11-32.87,2.05-40.14l8.09,4.68c4.4,2.54,8.14,6.09,10.91,10.36l20.58,31.77
				l13.65,21.07C359.29,309.94,356.85,320.43,348.75,324.84z"/>
			<path class="st9" d="M249.66,228.91"/>
			<linearGradient id="SVGID_10_" gradientUnits="userSpaceOnUse" x1="130.1287" y1="465.693" x2="316.8497" y2="465.693">
				<stop  offset="0" style="stop-color:#29ABE2"/>
				<stop  offset="0.1086" style="stop-color:#22A1DB"/>
				<stop  offset="0.4513" style="stop-color:#0F87CA"/>
				<stop  offset="0.7577" style="stop-color:#0477C0"/>
				<stop  offset="0.9955" style="stop-color:#0071BC"/>
			</linearGradient>
			<polygon class="st22" points="230.76,525.56 251.06,444.74 267.91,444.74 265.76,525.56 300.51,525.56 313.46,408.75 
				207.79,405.82 192.18,525.56 			"/>
			<path class="st7" d="M342.41,279.67l-1.78,1.47l-21.56,17.73l-3.87,3.18c-6.25-7.76-11.48-17.21-15.69-26.48
				c0,0,0-0.01-0.01-0.01c-0.34-0.73-0.57-1.51-0.69-2.31c-1.1-7.05-4.44-32.13,2.24-38.91
				C318.08,236.58,342.41,279.67,342.41,279.67z"/>
		</g>
	</g>
</g>
<g id="DESIGNED_BY_FREEPIK" class="st23">
	<g class="st24">
		<g>
			<g id="XMLID_1_">
				<g id="XMLID_20_">
					<path id="XMLID_28_" class="st25" d="M260.1,465.47c-0.43,0.44-0.8,0.93-1.11,1.45l-0.46-0.24c-0.07-0.3-0.35-0.5-0.66-0.47
						c-0.33,0.04-0.57,0.34-0.53,0.67c0.04,0.33,0.34,0.57,0.67,0.53c0.07-0.01,0.13-0.03,0.18-0.05l0.45,0.23
						c-0.25,0.55-0.43,1.14-0.54,1.74l0.75,0.13c0.23-1.31,0.85-2.51,1.79-3.47L260.1,465.47z"/>
					<path id="XMLID_27_" class="st25" d="M265.59,463.16c-0.17,0-0.34,0.01-0.51,0.02l-0.08-0.63c0.19-0.15,0.3-0.39,0.27-0.64
						c-0.05-0.39-0.4-0.67-0.8-0.63c-0.39,0.05-0.67,0.4-0.63,0.79c0.03,0.25,0.19,0.46,0.4,0.56l0.07,0.63
						c-0.71,0.12-1.4,0.33-2.06,0.65l0.33,0.68c0.93-0.45,1.94-0.67,3-0.67c0.5,0,0.99,0.05,1.48,0.16l0.16-0.74
						C266.69,463.22,266.14,463.16,265.59,463.16z"/>
					<path id="XMLID_26_" class="st25" d="M272.19,465.71c0.33-0.04,0.57-0.34,0.53-0.67c-0.04-0.33-0.34-0.57-0.67-0.53
						c-0.31,0.04-0.54,0.3-0.53,0.61l-0.42,0.36c-0.42-0.43-0.89-0.81-1.41-1.14l-0.4,0.64c1.13,0.71,2.02,1.73,2.56,2.92l0.69-0.31
						c-0.25-0.55-0.57-1.07-0.94-1.54l0.4-0.35C272.07,465.72,272.13,465.72,272.19,465.71z"/>
					<path id="XMLID_25_" class="st25" d="M265.04,473.37c-0.39,0.02-0.78,0.04-1.16,0.04c-0.88,0-1.73-0.06-2.48-0.18
						c-0.39-0.06-0.85-0.15-1.27-0.29c1.05,1.86,3.07,3.13,5.39,3.13c2.86,0,5.26-1.92,5.95-4.5c-0.68,0.45-1.5,0.83-2.46,1.12
						C267.84,473.05,266.46,473.29,265.04,473.37z"/>
					<path id="XMLID_21_" class="st25" d="M265.59,464.68c-3.35,0-6.08,2.67-6.08,5.94c0,0.43,0.05,0.85,0.14,1.26
						c0.67,0.48,2.7,0.89,5.35,0.73c2.88-0.17,5.3-0.96,6.67-2.16c-0.01-0.19-0.02-0.39-0.05-0.58
						C271.24,466.91,268.65,464.68,265.59,464.68z M263.43,471.19c-1.02,0-1.85-0.83-1.85-1.85c0-1.02,0.83-1.85,1.85-1.85
						c1.02,0,1.85,0.83,1.85,1.85C265.28,470.36,264.45,471.19,263.43,471.19z M268.17,470.29c-0.75,0-1.36-0.61-1.36-1.36
						s0.61-1.36,1.36-1.36c0.75,0,1.36,0.61,1.36,1.36S268.92,470.29,268.17,470.29z"/>
				</g>
				<path id="XMLID_18_" class="st25" d="M281.6,466.55c-0.29-0.12-0.8-0.31-1.38-0.24c-0.55,0.07-0.84,0.34-0.84,1.01v0.87h2.23
					v1.72h-2.23v5.46h-1.93v-5.46h-1.34v-1.72h1.34v-0.89c0-1.68,0.9-2.78,2.57-2.78c0.64,0,1.16,0.12,1.59,0.31V466.55z"/>
				<path id="XMLID_16_" class="st25" d="M286.3,469.88c-0.18-0.03-0.36-0.05-0.53-0.05c-0.9,0-1.51,0.55-1.51,1.61v3.91h-1.93
					v-7.17h1.87v0.78c0.45-0.67,1.14-0.98,2.02-0.98c0.41,0,0.85,0.13,1.09,0.34L286.3,469.88z"/>
				<path id="XMLID_13_" class="st25" d="M293.97,471.76c0,0.22-0.02,0.49-0.04,0.65h-5.09c0.21,1.04,0.93,1.49,1.84,1.49
					c0.62,0,1.29-0.25,1.81-0.69l1.13,1.24c-0.82,0.75-1.85,1.09-3.06,1.09c-2.2,0-3.72-1.5-3.72-3.75c0-2.26,1.48-3.8,3.63-3.8
					C292.54,467.99,293.96,469.52,293.97,471.76z M288.85,471.09h3.17c-0.18-0.92-0.73-1.44-1.56-1.44
					C289.55,469.65,289.02,470.2,288.85,471.09z"/>
				<path id="XMLID_10_" class="st25" d="M301.62,471.76c0,0.22-0.02,0.49-0.04,0.65h-5.08c0.21,1.04,0.93,1.49,1.84,1.49
					c0.62,0,1.3-0.25,1.81-0.69l1.13,1.24c-0.82,0.75-1.85,1.09-3.06,1.09c-2.2,0-3.72-1.5-3.72-3.75c0-2.26,1.48-3.8,3.63-3.8
					C300.2,467.99,301.61,469.52,301.62,471.76z M296.51,471.09h3.17c-0.18-0.92-0.73-1.44-1.56-1.44
					C297.21,469.65,296.68,470.2,296.51,471.09z"/>
				<path id="XMLID_7_" class="st25" d="M309.97,471.76c0,2.15-1.5,3.77-3.47,3.77c-0.96,0-1.64-0.38-2.11-0.93v3.71h-1.92v-10.13
					h1.89v0.79c0.47-0.58,1.15-0.98,2.14-0.98C308.47,467.99,309.97,469.61,309.97,471.76z M304.29,471.76
					c0,1.13,0.75,1.98,1.84,1.98c1.14,0,1.85-0.88,1.85-1.98s-0.71-1.98-1.85-1.98C305.03,469.79,304.29,470.63,304.29,471.76z"/>
				<path id="XMLID_4_" class="st25" d="M313.07,465.84c0,0.7-0.54,1.23-1.24,1.23c-0.7,0-1.23-0.53-1.23-1.23
					c0-0.7,0.53-1.24,1.23-1.24C312.53,464.59,313.07,465.14,313.07,465.84z M312.81,475.35h-1.93v-7.17h1.93V475.35z"/>
				<path id="XMLID_2_" class="st25" d="M316.03,470.74l2.7-2.55h2.37l-3.48,3.38l3.5,3.8h-2.38l-2.72-2.9v2.9h-1.93V464.7h1.93
					V470.74z"/>
			</g>
			<g>
				<path class="st25" d="M184.41,475.29v-1.05c-0.53,0.72-1.39,1.23-2.39,1.23c-1.85,0-3.15-1.41-3.15-3.71
					c0-2.26,1.29-3.72,3.15-3.72c0.95,0,1.82,0.47,2.39,1.25v-3.76h1.1v9.77H184.41z M184.41,473.37v-3.21
					c-0.4-0.62-1.25-1.14-2.12-1.14c-1.42,0-2.27,1.17-2.27,2.74c0,1.57,0.85,2.72,2.27,2.72
					C183.17,474.48,184.02,473.99,184.41,473.37z"/>
				<path class="st25" d="M186.93,471.74c0-2.05,1.46-3.71,3.48-3.71c2.14,0,3.4,1.67,3.4,3.79v0.28h-5.73
					c0.09,1.33,1.02,2.45,2.55,2.45c0.81,0,1.63-0.32,2.18-0.89l0.53,0.72c-0.7,0.7-1.65,1.08-2.81,1.08
					C188.44,475.46,186.93,473.96,186.93,471.74z M190.4,468.95c-1.51,0-2.26,1.27-2.31,2.36h4.64
					C192.72,470.25,192.02,468.95,190.4,468.95z"/>
				<path class="st25" d="M194.61,474.35l0.57-0.79c0.47,0.54,1.36,1.01,2.33,1.01c1.08,0,1.67-0.51,1.67-1.22
					c0-1.71-4.38-0.66-4.38-3.28c0-1.1,0.95-2.04,2.64-2.04c1.2,0,2.05,0.45,2.62,1.03l-0.51,0.76c-0.43-0.51-1.2-0.89-2.11-0.89
					c-0.97,0-1.57,0.48-1.57,1.11c0,1.55,4.38,0.53,4.38,3.28c0,1.19-0.95,2.14-2.78,2.14
					C196.31,475.46,195.32,475.11,194.61,474.35z"/>
				<path class="st25" d="M201.48,466.47c0-0.41,0.34-0.75,0.73-0.75c0.41,0,0.75,0.34,0.75,0.75c0,0.41-0.34,0.73-0.75,0.73
					C201.81,467.2,201.48,466.88,201.48,466.47z M201.67,475.29v-7.07h1.1v7.07H201.67z"/>
				<path class="st25" d="M204.58,477.11l0.55-0.82c0.59,0.7,1.29,0.97,2.3,0.97c1.17,0,2.27-0.57,2.27-2.12v-1.01
					c-0.51,0.72-1.38,1.26-2.37,1.26c-1.85,0-3.15-1.38-3.15-3.66c0-2.27,1.29-3.68,3.15-3.68c0.95,0,1.8,0.47,2.37,1.25v-1.07h1.1
					v6.87c0,2.34-1.64,3.08-3.37,3.08C206.24,478.16,205.42,477.93,204.58,477.11z M209.71,473.25v-3.09
					c-0.38-0.62-1.23-1.14-2.11-1.14c-1.42,0-2.27,1.13-2.27,2.69c0,1.55,0.85,2.7,2.27,2.7
					C208.48,474.41,209.33,473.87,209.71,473.25z"/>
				<path class="st25" d="M217.41,475.29v-4.63c0-1.24-0.63-1.64-1.58-1.64c-0.86,0-1.68,0.53-2.09,1.1v5.17h-1.1v-7.07h1.1v1.03
					c0.5-0.59,1.46-1.2,2.52-1.2c1.48,0,2.25,0.75,2.25,2.28v4.97H217.41z"/>
				<path class="st25" d="M219.93,471.74c0-2.05,1.46-3.71,3.49-3.71c2.14,0,3.4,1.67,3.4,3.79v0.28h-5.73
					c0.09,1.33,1.02,2.45,2.55,2.45c0.81,0,1.63-0.32,2.18-0.89l0.53,0.72c-0.7,0.7-1.66,1.08-2.81,1.08
					C221.44,475.46,219.93,473.96,219.93,471.74z M223.4,468.95c-1.51,0-2.26,1.27-2.31,2.36h4.64
					C225.72,470.25,225.02,468.95,223.4,468.95z"/>
				<path class="st25" d="M233.35,475.29v-1.05c-0.53,0.72-1.39,1.23-2.39,1.23c-1.85,0-3.15-1.41-3.15-3.71
					c0-2.26,1.29-3.72,3.15-3.72c0.95,0,1.82,0.47,2.39,1.25v-3.76h1.1v9.77H233.35z M233.35,473.37v-3.21
					c-0.4-0.62-1.25-1.14-2.12-1.14c-1.42,0-2.27,1.17-2.27,2.74c0,1.57,0.85,2.72,2.27,2.72
					C232.1,474.48,232.95,473.99,233.35,473.37z"/>
				<path class="st25" d="M239.69,475.29v-9.77h1.1v3.76c0.57-0.78,1.42-1.25,2.39-1.25c1.85,0,3.15,1.46,3.15,3.72
					c0,2.3-1.3,3.71-3.15,3.71c-1,0-1.86-0.51-2.39-1.23v1.05H239.69z M242.9,474.48c1.44,0,2.29-1.16,2.29-2.72
					c0-1.57-0.85-2.74-2.29-2.74c-0.86,0-1.73,0.53-2.11,1.14v3.21C241.17,473.99,242.04,474.48,242.9,474.48z"/>
				<path class="st25" d="M247.53,477.06c0.16,0.07,0.43,0.12,0.6,0.12c0.48,0,0.8-0.16,1.05-0.75l0.47-1.07l-2.96-7.15h1.19
					l2.36,5.8l2.34-5.8h1.2l-3.54,8.51c-0.42,1.03-1.14,1.42-2.08,1.44c-0.23,0-0.6-0.04-0.81-0.1L247.53,477.06z"/>
			</g>
		</g>
	</g>
</g>
</svg>
